G04 #@! TF.GenerationSoftware,KiCad,Pcbnew,(5.1.10-1-10_14)*
G04 #@! TF.CreationDate,2021-12-21T22:20:50-08:00*
G04 #@! TF.ProjectId,power,706f7765-722e-46b6-9963-61645f706362,rev?*
G04 #@! TF.SameCoordinates,Original*
G04 #@! TF.FileFunction,Soldermask,Top*
G04 #@! TF.FilePolarity,Negative*
%FSLAX46Y46*%
G04 Gerber Fmt 4.6, Leading zero omitted, Abs format (unit mm)*
G04 Created by KiCad (PCBNEW (5.1.10-1-10_14)) date 2021-12-21 22:20:50*
%MOMM*%
%LPD*%
G01*
G04 APERTURE LIST*
%ADD10C,0.010000*%
%ADD11C,3.302000*%
%ADD12O,1.802000X1.802000*%
%ADD13C,6.502000*%
%ADD14C,2.502000*%
%ADD15C,1.626000*%
%ADD16C,2.102000*%
%ADD17C,0.100000*%
G04 APERTURE END LIST*
D10*
G36*
X95900000Y-48030000D02*
G01*
X95900000Y-51030000D01*
X97200000Y-51030000D01*
X97600000Y-50580000D01*
X97600000Y-50380000D01*
X99100000Y-50380000D01*
X99100000Y-48680000D01*
X97600000Y-48680000D01*
X97600000Y-48480000D01*
X97200000Y-48030000D01*
X95900000Y-48030000D01*
G37*
X95900000Y-48030000D02*
X95900000Y-51030000D01*
X97200000Y-51030000D01*
X97600000Y-50580000D01*
X97600000Y-50380000D01*
X99100000Y-50380000D01*
X99100000Y-48680000D01*
X97600000Y-48680000D01*
X97600000Y-48480000D01*
X97200000Y-48030000D01*
X95900000Y-48030000D01*
G36*
X94600000Y-48030000D02*
G01*
X94600000Y-51030000D01*
X93300000Y-51030000D01*
X92900000Y-50580000D01*
X92900000Y-50380000D01*
X91400000Y-50380000D01*
X91400000Y-48680000D01*
X92900000Y-48680000D01*
X92900000Y-48480000D01*
X93300000Y-48030000D01*
X94600000Y-48030000D01*
G37*
X94600000Y-48030000D02*
X94600000Y-51030000D01*
X93300000Y-51030000D01*
X92900000Y-50580000D01*
X92900000Y-50380000D01*
X91400000Y-50380000D01*
X91400000Y-48680000D01*
X92900000Y-48680000D01*
X92900000Y-48480000D01*
X93300000Y-48030000D01*
X94600000Y-48030000D01*
G36*
X95900000Y-48030000D02*
G01*
X95900000Y-51030000D01*
X97200000Y-51030000D01*
X97600000Y-50580000D01*
X97600000Y-50380000D01*
X99100000Y-50380000D01*
X99100000Y-48680000D01*
X97600000Y-48680000D01*
X97600000Y-48480000D01*
X97200000Y-48030000D01*
X95900000Y-48030000D01*
G37*
X95900000Y-48030000D02*
X95900000Y-51030000D01*
X97200000Y-51030000D01*
X97600000Y-50580000D01*
X97600000Y-50380000D01*
X99100000Y-50380000D01*
X99100000Y-48680000D01*
X97600000Y-48680000D01*
X97600000Y-48480000D01*
X97200000Y-48030000D01*
X95900000Y-48030000D01*
G36*
X94600000Y-48030000D02*
G01*
X94600000Y-51030000D01*
X93300000Y-51030000D01*
X92900000Y-50580000D01*
X92900000Y-50380000D01*
X91400000Y-50380000D01*
X91400000Y-48680000D01*
X92900000Y-48680000D01*
X92900000Y-48480000D01*
X93300000Y-48030000D01*
X94600000Y-48030000D01*
G37*
X94600000Y-48030000D02*
X94600000Y-51030000D01*
X93300000Y-51030000D01*
X92900000Y-50580000D01*
X92900000Y-50380000D01*
X91400000Y-50380000D01*
X91400000Y-48680000D01*
X92900000Y-48680000D01*
X92900000Y-48480000D01*
X93300000Y-48030000D01*
X94600000Y-48030000D01*
G36*
G01*
X41596000Y-53774000D02*
X41596000Y-50726000D01*
G75*
G02*
X41647000Y-50675000I51000J0D01*
G01*
X43933000Y-50675000D01*
G75*
G02*
X43984000Y-50726000I0J-51000D01*
G01*
X43984000Y-53774000D01*
G75*
G02*
X43933000Y-53825000I-51000J0D01*
G01*
X41647000Y-53825000D01*
G75*
G02*
X41596000Y-53774000I0J51000D01*
G01*
G37*
G36*
G01*
X36516000Y-53774000D02*
X36516000Y-50726000D01*
G75*
G02*
X36567000Y-50675000I51000J0D01*
G01*
X38853000Y-50675000D01*
G75*
G02*
X38904000Y-50726000I0J-51000D01*
G01*
X38904000Y-53774000D01*
G75*
G02*
X38853000Y-53825000I-51000J0D01*
G01*
X36567000Y-53825000D01*
G75*
G02*
X36516000Y-53774000I0J51000D01*
G01*
G37*
D11*
X39500000Y-119250000D03*
X151000000Y-32000000D03*
X151000000Y-119250000D03*
X39500000Y-32000000D03*
D12*
X157480000Y-100330000D03*
X154940000Y-100330000D03*
X157480000Y-97790000D03*
X154940000Y-97790000D03*
X157480000Y-95250000D03*
X154940000Y-95250000D03*
X157480000Y-92710000D03*
X154940000Y-92710000D03*
X157480000Y-90170000D03*
X154940000Y-90170000D03*
X157480000Y-87630000D03*
X154940000Y-87630000D03*
X157480000Y-85090000D03*
X154940000Y-85090000D03*
X157480000Y-82550000D03*
X154940000Y-82550000D03*
X157480000Y-80010000D03*
X154940000Y-80010000D03*
X157480000Y-77470000D03*
X154940000Y-77470000D03*
X157480000Y-74930000D03*
X154940000Y-74930000D03*
X157480000Y-72390000D03*
X154940000Y-72390000D03*
X157480000Y-69850000D03*
X154940000Y-69850000D03*
X157480000Y-67310000D03*
X154940000Y-67310000D03*
X157480000Y-64770000D03*
X154940000Y-64770000D03*
X157480000Y-62230000D03*
X154940000Y-62230000D03*
X157480000Y-59690000D03*
X154940000Y-59690000D03*
X157480000Y-57150000D03*
X154940000Y-57150000D03*
X157480000Y-54610000D03*
X154940000Y-54610000D03*
X157480000Y-52070000D03*
G36*
G01*
X154039000Y-52920000D02*
X154039000Y-51220000D01*
G75*
G02*
X154090000Y-51169000I51000J0D01*
G01*
X155790000Y-51169000D01*
G75*
G02*
X155841000Y-51220000I0J-51000D01*
G01*
X155841000Y-52920000D01*
G75*
G02*
X155790000Y-52971000I-51000J0D01*
G01*
X154090000Y-52971000D01*
G75*
G02*
X154039000Y-52920000I0J51000D01*
G01*
G37*
D13*
X160020000Y-120650000D03*
X30480000Y-120650000D03*
X160020000Y-30480000D03*
X30480000Y-30480000D03*
G36*
G01*
X36550000Y-72749000D02*
X38950000Y-72749000D01*
G75*
G02*
X39001000Y-72800000I0J-51000D01*
G01*
X39001000Y-75200000D01*
G75*
G02*
X38950000Y-75251000I-51000J0D01*
G01*
X36550000Y-75251000D01*
G75*
G02*
X36499000Y-75200000I0J51000D01*
G01*
X36499000Y-72800000D01*
G75*
G02*
X36550000Y-72749000I51000J0D01*
G01*
G37*
D14*
X37750000Y-77500000D03*
X37750000Y-63250000D03*
G36*
G01*
X36550000Y-58499000D02*
X38950000Y-58499000D01*
G75*
G02*
X39001000Y-58550000I0J-51000D01*
G01*
X39001000Y-60950000D01*
G75*
G02*
X38950000Y-61001000I-51000J0D01*
G01*
X36550000Y-61001000D01*
G75*
G02*
X36499000Y-60950000I0J51000D01*
G01*
X36499000Y-58550000D01*
G75*
G02*
X36550000Y-58499000I51000J0D01*
G01*
G37*
G36*
G01*
X53816800Y-51702801D02*
X53816800Y-51347201D01*
G75*
G02*
X53867800Y-51296201I51000J0D01*
G01*
X55290200Y-51296201D01*
G75*
G02*
X55341200Y-51347201I0J-51000D01*
G01*
X55341200Y-51702801D01*
G75*
G02*
X55290200Y-51753801I-51000J0D01*
G01*
X53867800Y-51753801D01*
G75*
G02*
X53816800Y-51702801I0J51000D01*
G01*
G37*
G36*
G01*
X53816800Y-52352799D02*
X53816800Y-51997199D01*
G75*
G02*
X53867800Y-51946199I51000J0D01*
G01*
X55290200Y-51946199D01*
G75*
G02*
X55341200Y-51997199I0J-51000D01*
G01*
X55341200Y-52352799D01*
G75*
G02*
X55290200Y-52403799I-51000J0D01*
G01*
X53867800Y-52403799D01*
G75*
G02*
X53816800Y-52352799I0J51000D01*
G01*
G37*
G36*
G01*
X53816800Y-53002801D02*
X53816800Y-52647201D01*
G75*
G02*
X53867800Y-52596201I51000J0D01*
G01*
X55290200Y-52596201D01*
G75*
G02*
X55341200Y-52647201I0J-51000D01*
G01*
X55341200Y-53002801D01*
G75*
G02*
X55290200Y-53053801I-51000J0D01*
G01*
X53867800Y-53053801D01*
G75*
G02*
X53816800Y-53002801I0J51000D01*
G01*
G37*
G36*
G01*
X53816800Y-53652799D02*
X53816800Y-53297199D01*
G75*
G02*
X53867800Y-53246199I51000J0D01*
G01*
X55290200Y-53246199D01*
G75*
G02*
X55341200Y-53297199I0J-51000D01*
G01*
X55341200Y-53652799D01*
G75*
G02*
X55290200Y-53703799I-51000J0D01*
G01*
X53867800Y-53703799D01*
G75*
G02*
X53816800Y-53652799I0J51000D01*
G01*
G37*
G36*
G01*
X59658800Y-53652799D02*
X59658800Y-53297199D01*
G75*
G02*
X59709800Y-53246199I51000J0D01*
G01*
X61132200Y-53246199D01*
G75*
G02*
X61183200Y-53297199I0J-51000D01*
G01*
X61183200Y-53652799D01*
G75*
G02*
X61132200Y-53703799I-51000J0D01*
G01*
X59709800Y-53703799D01*
G75*
G02*
X59658800Y-53652799I0J51000D01*
G01*
G37*
G36*
G01*
X59658800Y-53002801D02*
X59658800Y-52647201D01*
G75*
G02*
X59709800Y-52596201I51000J0D01*
G01*
X61132200Y-52596201D01*
G75*
G02*
X61183200Y-52647201I0J-51000D01*
G01*
X61183200Y-53002801D01*
G75*
G02*
X61132200Y-53053801I-51000J0D01*
G01*
X59709800Y-53053801D01*
G75*
G02*
X59658800Y-53002801I0J51000D01*
G01*
G37*
G36*
G01*
X59658800Y-52352799D02*
X59658800Y-51997199D01*
G75*
G02*
X59709800Y-51946199I51000J0D01*
G01*
X61132200Y-51946199D01*
G75*
G02*
X61183200Y-51997199I0J-51000D01*
G01*
X61183200Y-52352799D01*
G75*
G02*
X61132200Y-52403799I-51000J0D01*
G01*
X59709800Y-52403799D01*
G75*
G02*
X59658800Y-52352799I0J51000D01*
G01*
G37*
G36*
G01*
X59658800Y-51702801D02*
X59658800Y-51347201D01*
G75*
G02*
X59709800Y-51296201I51000J0D01*
G01*
X61132200Y-51296201D01*
G75*
G02*
X61183200Y-51347201I0J-51000D01*
G01*
X61183200Y-51702801D01*
G75*
G02*
X61132200Y-51753801I-51000J0D01*
G01*
X59709800Y-51753801D01*
G75*
G02*
X59658800Y-51702801I0J51000D01*
G01*
G37*
G36*
G01*
X56901000Y-43068244D02*
X56901000Y-44431756D01*
G75*
G02*
X56631756Y-44701000I-269244J0D01*
G01*
X55743244Y-44701000D01*
G75*
G02*
X55474000Y-44431756I0J269244D01*
G01*
X55474000Y-43068244D01*
G75*
G02*
X55743244Y-42799000I269244J0D01*
G01*
X56631756Y-42799000D01*
G75*
G02*
X56901000Y-43068244I0J-269244D01*
G01*
G37*
G36*
G01*
X60026000Y-43068244D02*
X60026000Y-44431756D01*
G75*
G02*
X59756756Y-44701000I-269244J0D01*
G01*
X58868244Y-44701000D01*
G75*
G02*
X58599000Y-44431756I0J269244D01*
G01*
X58599000Y-43068244D01*
G75*
G02*
X58868244Y-42799000I269244J0D01*
G01*
X59756756Y-42799000D01*
G75*
G02*
X60026000Y-43068244I0J-269244D01*
G01*
G37*
G36*
G01*
X51526000Y-55318244D02*
X51526000Y-56681756D01*
G75*
G02*
X51256756Y-56951000I-269244J0D01*
G01*
X50368244Y-56951000D01*
G75*
G02*
X50099000Y-56681756I0J269244D01*
G01*
X50099000Y-55318244D01*
G75*
G02*
X50368244Y-55049000I269244J0D01*
G01*
X51256756Y-55049000D01*
G75*
G02*
X51526000Y-55318244I0J-269244D01*
G01*
G37*
G36*
G01*
X48401000Y-55318244D02*
X48401000Y-56681756D01*
G75*
G02*
X48131756Y-56951000I-269244J0D01*
G01*
X47243244Y-56951000D01*
G75*
G02*
X46974000Y-56681756I0J269244D01*
G01*
X46974000Y-55318244D01*
G75*
G02*
X47243244Y-55049000I269244J0D01*
G01*
X48131756Y-55049000D01*
G75*
G02*
X48401000Y-55318244I0J-269244D01*
G01*
G37*
G36*
G01*
X144191756Y-94986000D02*
X142828244Y-94986000D01*
G75*
G02*
X142559000Y-94716756I0J269244D01*
G01*
X142559000Y-93828244D01*
G75*
G02*
X142828244Y-93559000I269244J0D01*
G01*
X144191756Y-93559000D01*
G75*
G02*
X144461000Y-93828244I0J-269244D01*
G01*
X144461000Y-94716756D01*
G75*
G02*
X144191756Y-94986000I-269244J0D01*
G01*
G37*
G36*
G01*
X144191756Y-91861000D02*
X142828244Y-91861000D01*
G75*
G02*
X142559000Y-91591756I0J269244D01*
G01*
X142559000Y-90703244D01*
G75*
G02*
X142828244Y-90434000I269244J0D01*
G01*
X144191756Y-90434000D01*
G75*
G02*
X144461000Y-90703244I0J-269244D01*
G01*
X144461000Y-91591756D01*
G75*
G02*
X144191756Y-91861000I-269244J0D01*
G01*
G37*
G36*
G01*
X141558244Y-57999000D02*
X142921756Y-57999000D01*
G75*
G02*
X143191000Y-58268244I0J-269244D01*
G01*
X143191000Y-59156756D01*
G75*
G02*
X142921756Y-59426000I-269244J0D01*
G01*
X141558244Y-59426000D01*
G75*
G02*
X141289000Y-59156756I0J269244D01*
G01*
X141289000Y-58268244D01*
G75*
G02*
X141558244Y-57999000I269244J0D01*
G01*
G37*
G36*
G01*
X141558244Y-54874000D02*
X142921756Y-54874000D01*
G75*
G02*
X143191000Y-55143244I0J-269244D01*
G01*
X143191000Y-56031756D01*
G75*
G02*
X142921756Y-56301000I-269244J0D01*
G01*
X141558244Y-56301000D01*
G75*
G02*
X141289000Y-56031756I0J269244D01*
G01*
X141289000Y-55143244D01*
G75*
G02*
X141558244Y-54874000I269244J0D01*
G01*
G37*
G36*
G01*
X53468500Y-84408244D02*
X53468500Y-85771756D01*
G75*
G02*
X53199256Y-86041000I-269244J0D01*
G01*
X52310744Y-86041000D01*
G75*
G02*
X52041500Y-85771756I0J269244D01*
G01*
X52041500Y-84408244D01*
G75*
G02*
X52310744Y-84139000I269244J0D01*
G01*
X53199256Y-84139000D01*
G75*
G02*
X53468500Y-84408244I0J-269244D01*
G01*
G37*
G36*
G01*
X56593500Y-84408244D02*
X56593500Y-85771756D01*
G75*
G02*
X56324256Y-86041000I-269244J0D01*
G01*
X55435744Y-86041000D01*
G75*
G02*
X55166500Y-85771756I0J269244D01*
G01*
X55166500Y-84408244D01*
G75*
G02*
X55435744Y-84139000I269244J0D01*
G01*
X56324256Y-84139000D01*
G75*
G02*
X56593500Y-84408244I0J-269244D01*
G01*
G37*
G36*
G01*
X56724000Y-69681756D02*
X56724000Y-68318244D01*
G75*
G02*
X56993244Y-68049000I269244J0D01*
G01*
X57881756Y-68049000D01*
G75*
G02*
X58151000Y-68318244I0J-269244D01*
G01*
X58151000Y-69681756D01*
G75*
G02*
X57881756Y-69951000I-269244J0D01*
G01*
X56993244Y-69951000D01*
G75*
G02*
X56724000Y-69681756I0J269244D01*
G01*
G37*
G36*
G01*
X59849000Y-69681756D02*
X59849000Y-68318244D01*
G75*
G02*
X60118244Y-68049000I269244J0D01*
G01*
X61006756Y-68049000D01*
G75*
G02*
X61276000Y-68318244I0J-269244D01*
G01*
X61276000Y-69681756D01*
G75*
G02*
X61006756Y-69951000I-269244J0D01*
G01*
X60118244Y-69951000D01*
G75*
G02*
X59849000Y-69681756I0J269244D01*
G01*
G37*
G36*
G01*
X56502500Y-78166001D02*
X56502500Y-78674001D01*
G75*
G02*
X56451500Y-78725001I-51000J0D01*
G01*
X55435500Y-78725001D01*
G75*
G02*
X55384500Y-78674001I0J51000D01*
G01*
X55384500Y-78166001D01*
G75*
G02*
X55435500Y-78115001I51000J0D01*
G01*
X56451500Y-78115001D01*
G75*
G02*
X56502500Y-78166001I0J-51000D01*
G01*
G37*
G36*
G01*
X56502500Y-77216000D02*
X56502500Y-77724000D01*
G75*
G02*
X56451500Y-77775000I-51000J0D01*
G01*
X55435500Y-77775000D01*
G75*
G02*
X55384500Y-77724000I0J51000D01*
G01*
X55384500Y-77216000D01*
G75*
G02*
X55435500Y-77165000I51000J0D01*
G01*
X56451500Y-77165000D01*
G75*
G02*
X56502500Y-77216000I0J-51000D01*
G01*
G37*
G36*
G01*
X56502500Y-76265999D02*
X56502500Y-76773999D01*
G75*
G02*
X56451500Y-76824999I-51000J0D01*
G01*
X55435500Y-76824999D01*
G75*
G02*
X55384500Y-76773999I0J51000D01*
G01*
X55384500Y-76265999D01*
G75*
G02*
X55435500Y-76214999I51000J0D01*
G01*
X56451500Y-76214999D01*
G75*
G02*
X56502500Y-76265999I0J-51000D01*
G01*
G37*
G36*
G01*
X53835500Y-76265999D02*
X53835500Y-76773999D01*
G75*
G02*
X53784500Y-76824999I-51000J0D01*
G01*
X52768500Y-76824999D01*
G75*
G02*
X52717500Y-76773999I0J51000D01*
G01*
X52717500Y-76265999D01*
G75*
G02*
X52768500Y-76214999I51000J0D01*
G01*
X53784500Y-76214999D01*
G75*
G02*
X53835500Y-76265999I0J-51000D01*
G01*
G37*
G36*
G01*
X53835500Y-77216000D02*
X53835500Y-77724000D01*
G75*
G02*
X53784500Y-77775000I-51000J0D01*
G01*
X52768500Y-77775000D01*
G75*
G02*
X52717500Y-77724000I0J51000D01*
G01*
X52717500Y-77216000D01*
G75*
G02*
X52768500Y-77165000I51000J0D01*
G01*
X53784500Y-77165000D01*
G75*
G02*
X53835500Y-77216000I0J-51000D01*
G01*
G37*
G36*
G01*
X53835500Y-78166001D02*
X53835500Y-78674001D01*
G75*
G02*
X53784500Y-78725001I-51000J0D01*
G01*
X52768500Y-78725001D01*
G75*
G02*
X52717500Y-78674001I0J51000D01*
G01*
X52717500Y-78166001D01*
G75*
G02*
X52768500Y-78115001I51000J0D01*
G01*
X53784500Y-78115001D01*
G75*
G02*
X53835500Y-78166001I0J-51000D01*
G01*
G37*
D15*
X152400000Y-44450000D03*
X154940000Y-44450000D03*
X157480000Y-44450000D03*
X151460000Y-108000000D03*
X154000000Y-108000000D03*
X156540000Y-108000000D03*
G36*
G01*
X60093615Y-61099000D02*
X61406385Y-61099000D01*
G75*
G02*
X61676000Y-61368615I0J-269615D01*
G01*
X61676000Y-62231385D01*
G75*
G02*
X61406385Y-62501000I-269615J0D01*
G01*
X60093615Y-62501000D01*
G75*
G02*
X59824000Y-62231385I0J269615D01*
G01*
X59824000Y-61368615D01*
G75*
G02*
X60093615Y-61099000I269615J0D01*
G01*
G37*
G36*
G01*
X60093615Y-57999000D02*
X61406385Y-57999000D01*
G75*
G02*
X61676000Y-58268615I0J-269615D01*
G01*
X61676000Y-59131385D01*
G75*
G02*
X61406385Y-59401000I-269615J0D01*
G01*
X60093615Y-59401000D01*
G75*
G02*
X59824000Y-59131385I0J269615D01*
G01*
X59824000Y-58268615D01*
G75*
G02*
X60093615Y-57999000I269615J0D01*
G01*
G37*
G36*
G01*
X53843615Y-57999000D02*
X55156385Y-57999000D01*
G75*
G02*
X55426000Y-58268615I0J-269615D01*
G01*
X55426000Y-59131385D01*
G75*
G02*
X55156385Y-59401000I-269615J0D01*
G01*
X53843615Y-59401000D01*
G75*
G02*
X53574000Y-59131385I0J269615D01*
G01*
X53574000Y-58268615D01*
G75*
G02*
X53843615Y-57999000I269615J0D01*
G01*
G37*
G36*
G01*
X53843615Y-61099000D02*
X55156385Y-61099000D01*
G75*
G02*
X55426000Y-61368615I0J-269615D01*
G01*
X55426000Y-62231385D01*
G75*
G02*
X55156385Y-62501000I-269615J0D01*
G01*
X53843615Y-62501000D01*
G75*
G02*
X53574000Y-62231385I0J269615D01*
G01*
X53574000Y-61368615D01*
G75*
G02*
X53843615Y-61099000I269615J0D01*
G01*
G37*
G36*
G01*
X48142213Y-42099000D02*
X50357787Y-42099000D01*
G75*
G02*
X50626000Y-42367213I0J-268213D01*
G01*
X50626000Y-43332787D01*
G75*
G02*
X50357787Y-43601000I-268213J0D01*
G01*
X48142213Y-43601000D01*
G75*
G02*
X47874000Y-43332787I0J268213D01*
G01*
X47874000Y-42367213D01*
G75*
G02*
X48142213Y-42099000I268213J0D01*
G01*
G37*
G36*
G01*
X48142213Y-46899000D02*
X50357787Y-46899000D01*
G75*
G02*
X50626000Y-47167213I0J-268213D01*
G01*
X50626000Y-48132787D01*
G75*
G02*
X50357787Y-48401000I-268213J0D01*
G01*
X48142213Y-48401000D01*
G75*
G02*
X47874000Y-48132787I0J268213D01*
G01*
X47874000Y-47167213D01*
G75*
G02*
X48142213Y-46899000I268213J0D01*
G01*
G37*
G36*
G01*
X74906385Y-57251000D02*
X73593615Y-57251000D01*
G75*
G02*
X73324000Y-56981385I0J269615D01*
G01*
X73324000Y-56118615D01*
G75*
G02*
X73593615Y-55849000I269615J0D01*
G01*
X74906385Y-55849000D01*
G75*
G02*
X75176000Y-56118615I0J-269615D01*
G01*
X75176000Y-56981385D01*
G75*
G02*
X74906385Y-57251000I-269615J0D01*
G01*
G37*
G36*
G01*
X74906385Y-54151000D02*
X73593615Y-54151000D01*
G75*
G02*
X73324000Y-53881385I0J269615D01*
G01*
X73324000Y-53018615D01*
G75*
G02*
X73593615Y-52749000I269615J0D01*
G01*
X74906385Y-52749000D01*
G75*
G02*
X75176000Y-53018615I0J-269615D01*
G01*
X75176000Y-53881385D01*
G75*
G02*
X74906385Y-54151000I-269615J0D01*
G01*
G37*
G36*
G01*
X62843615Y-84669000D02*
X64156385Y-84669000D01*
G75*
G02*
X64426000Y-84938615I0J-269615D01*
G01*
X64426000Y-85801385D01*
G75*
G02*
X64156385Y-86071000I-269615J0D01*
G01*
X62843615Y-86071000D01*
G75*
G02*
X62574000Y-85801385I0J269615D01*
G01*
X62574000Y-84938615D01*
G75*
G02*
X62843615Y-84669000I269615J0D01*
G01*
G37*
G36*
G01*
X62843615Y-81569000D02*
X64156385Y-81569000D01*
G75*
G02*
X64426000Y-81838615I0J-269615D01*
G01*
X64426000Y-82701385D01*
G75*
G02*
X64156385Y-82971000I-269615J0D01*
G01*
X62843615Y-82971000D01*
G75*
G02*
X62574000Y-82701385I0J269615D01*
G01*
X62574000Y-81838615D01*
G75*
G02*
X62843615Y-81569000I269615J0D01*
G01*
G37*
G36*
G01*
X43469000Y-75586385D02*
X43469000Y-74273615D01*
G75*
G02*
X43738615Y-74004000I269615J0D01*
G01*
X44601385Y-74004000D01*
G75*
G02*
X44871000Y-74273615I0J-269615D01*
G01*
X44871000Y-75586385D01*
G75*
G02*
X44601385Y-75856000I-269615J0D01*
G01*
X43738615Y-75856000D01*
G75*
G02*
X43469000Y-75586385I0J269615D01*
G01*
G37*
G36*
G01*
X46569000Y-75586385D02*
X46569000Y-74273615D01*
G75*
G02*
X46838615Y-74004000I269615J0D01*
G01*
X47701385Y-74004000D01*
G75*
G02*
X47971000Y-74273615I0J-269615D01*
G01*
X47971000Y-75586385D01*
G75*
G02*
X47701385Y-75856000I-269615J0D01*
G01*
X46838615Y-75856000D01*
G75*
G02*
X46569000Y-75586385I0J269615D01*
G01*
G37*
G36*
G01*
X97526000Y-67898244D02*
X97526000Y-69261756D01*
G75*
G02*
X97256756Y-69531000I-269244J0D01*
G01*
X96368244Y-69531000D01*
G75*
G02*
X96099000Y-69261756I0J269244D01*
G01*
X96099000Y-67898244D01*
G75*
G02*
X96368244Y-67629000I269244J0D01*
G01*
X97256756Y-67629000D01*
G75*
G02*
X97526000Y-67898244I0J-269244D01*
G01*
G37*
G36*
G01*
X94401000Y-67898244D02*
X94401000Y-69261756D01*
G75*
G02*
X94131756Y-69531000I-269244J0D01*
G01*
X93243244Y-69531000D01*
G75*
G02*
X92974000Y-69261756I0J269244D01*
G01*
X92974000Y-67898244D01*
G75*
G02*
X93243244Y-67629000I269244J0D01*
G01*
X94131756Y-67629000D01*
G75*
G02*
X94401000Y-67898244I0J-269244D01*
G01*
G37*
G36*
G01*
X118959000Y-60371756D02*
X118959000Y-59008244D01*
G75*
G02*
X119228244Y-58739000I269244J0D01*
G01*
X120116756Y-58739000D01*
G75*
G02*
X120386000Y-59008244I0J-269244D01*
G01*
X120386000Y-60371756D01*
G75*
G02*
X120116756Y-60641000I-269244J0D01*
G01*
X119228244Y-60641000D01*
G75*
G02*
X118959000Y-60371756I0J269244D01*
G01*
G37*
G36*
G01*
X115834000Y-60371756D02*
X115834000Y-59008244D01*
G75*
G02*
X116103244Y-58739000I269244J0D01*
G01*
X116991756Y-58739000D01*
G75*
G02*
X117261000Y-59008244I0J-269244D01*
G01*
X117261000Y-60371756D01*
G75*
G02*
X116991756Y-60641000I-269244J0D01*
G01*
X116103244Y-60641000D01*
G75*
G02*
X115834000Y-60371756I0J269244D01*
G01*
G37*
G36*
G01*
X106416000Y-59008244D02*
X106416000Y-60371756D01*
G75*
G02*
X106146756Y-60641000I-269244J0D01*
G01*
X105258244Y-60641000D01*
G75*
G02*
X104989000Y-60371756I0J269244D01*
G01*
X104989000Y-59008244D01*
G75*
G02*
X105258244Y-58739000I269244J0D01*
G01*
X106146756Y-58739000D01*
G75*
G02*
X106416000Y-59008244I0J-269244D01*
G01*
G37*
G36*
G01*
X103291000Y-59008244D02*
X103291000Y-60371756D01*
G75*
G02*
X103021756Y-60641000I-269244J0D01*
G01*
X102133244Y-60641000D01*
G75*
G02*
X101864000Y-60371756I0J269244D01*
G01*
X101864000Y-59008244D01*
G75*
G02*
X102133244Y-58739000I269244J0D01*
G01*
X103021756Y-58739000D01*
G75*
G02*
X103291000Y-59008244I0J-269244D01*
G01*
G37*
G36*
G01*
X90591000Y-41228244D02*
X90591000Y-42591756D01*
G75*
G02*
X90321756Y-42861000I-269244J0D01*
G01*
X89433244Y-42861000D01*
G75*
G02*
X89164000Y-42591756I0J269244D01*
G01*
X89164000Y-41228244D01*
G75*
G02*
X89433244Y-40959000I269244J0D01*
G01*
X90321756Y-40959000D01*
G75*
G02*
X90591000Y-41228244I0J-269244D01*
G01*
G37*
G36*
G01*
X93716000Y-41228244D02*
X93716000Y-42591756D01*
G75*
G02*
X93446756Y-42861000I-269244J0D01*
G01*
X92558244Y-42861000D01*
G75*
G02*
X92289000Y-42591756I0J269244D01*
G01*
X92289000Y-41228244D01*
G75*
G02*
X92558244Y-40959000I269244J0D01*
G01*
X93446756Y-40959000D01*
G75*
G02*
X93716000Y-41228244I0J-269244D01*
G01*
G37*
D16*
X107950000Y-44450000D03*
X107950000Y-49530000D03*
G36*
G01*
X87061000Y-52683615D02*
X87061000Y-53996385D01*
G75*
G02*
X86791385Y-54266000I-269615J0D01*
G01*
X85928615Y-54266000D01*
G75*
G02*
X85659000Y-53996385I0J269615D01*
G01*
X85659000Y-52683615D01*
G75*
G02*
X85928615Y-52414000I269615J0D01*
G01*
X86791385Y-52414000D01*
G75*
G02*
X87061000Y-52683615I0J-269615D01*
G01*
G37*
G36*
G01*
X83961000Y-52683615D02*
X83961000Y-53996385D01*
G75*
G02*
X83691385Y-54266000I-269615J0D01*
G01*
X82828615Y-54266000D01*
G75*
G02*
X82559000Y-53996385I0J269615D01*
G01*
X82559000Y-52683615D01*
G75*
G02*
X82828615Y-52414000I269615J0D01*
G01*
X83691385Y-52414000D01*
G75*
G02*
X83961000Y-52683615I0J-269615D01*
G01*
G37*
G36*
G01*
X94401000Y-62843615D02*
X94401000Y-64156385D01*
G75*
G02*
X94131385Y-64426000I-269615J0D01*
G01*
X93268615Y-64426000D01*
G75*
G02*
X92999000Y-64156385I0J269615D01*
G01*
X92999000Y-62843615D01*
G75*
G02*
X93268615Y-62574000I269615J0D01*
G01*
X94131385Y-62574000D01*
G75*
G02*
X94401000Y-62843615I0J-269615D01*
G01*
G37*
G36*
G01*
X97501000Y-62843615D02*
X97501000Y-64156385D01*
G75*
G02*
X97231385Y-64426000I-269615J0D01*
G01*
X96368615Y-64426000D01*
G75*
G02*
X96099000Y-64156385I0J269615D01*
G01*
X96099000Y-62843615D01*
G75*
G02*
X96368615Y-62574000I269615J0D01*
G01*
X97231385Y-62574000D01*
G75*
G02*
X97501000Y-62843615I0J-269615D01*
G01*
G37*
G36*
G01*
X93446400Y-53913999D02*
X93446400Y-53405999D01*
G75*
G02*
X93497400Y-53354999I51000J0D01*
G01*
X94373700Y-53354999D01*
G75*
G02*
X94424700Y-53405999I0J-51000D01*
G01*
X94424700Y-53913999D01*
G75*
G02*
X94373700Y-53964999I-51000J0D01*
G01*
X93497400Y-53964999D01*
G75*
G02*
X93446400Y-53913999I0J51000D01*
G01*
G37*
G36*
G01*
X93446400Y-54864000D02*
X93446400Y-54356000D01*
G75*
G02*
X93497400Y-54305000I51000J0D01*
G01*
X94373700Y-54305000D01*
G75*
G02*
X94424700Y-54356000I0J-51000D01*
G01*
X94424700Y-54864000D01*
G75*
G02*
X94373700Y-54915000I-51000J0D01*
G01*
X93497400Y-54915000D01*
G75*
G02*
X93446400Y-54864000I0J51000D01*
G01*
G37*
G36*
G01*
X93446400Y-55814001D02*
X93446400Y-55306001D01*
G75*
G02*
X93497400Y-55255001I51000J0D01*
G01*
X94373700Y-55255001D01*
G75*
G02*
X94424700Y-55306001I0J-51000D01*
G01*
X94424700Y-55814001D01*
G75*
G02*
X94373700Y-55865001I-51000J0D01*
G01*
X93497400Y-55865001D01*
G75*
G02*
X93446400Y-55814001I0J51000D01*
G01*
G37*
G36*
G01*
X96075300Y-55814001D02*
X96075300Y-55306001D01*
G75*
G02*
X96126300Y-55255001I51000J0D01*
G01*
X97002600Y-55255001D01*
G75*
G02*
X97053600Y-55306001I0J-51000D01*
G01*
X97053600Y-55814001D01*
G75*
G02*
X97002600Y-55865001I-51000J0D01*
G01*
X96126300Y-55865001D01*
G75*
G02*
X96075300Y-55814001I0J51000D01*
G01*
G37*
G36*
G01*
X96075300Y-54864000D02*
X96075300Y-54356000D01*
G75*
G02*
X96126300Y-54305000I51000J0D01*
G01*
X97002600Y-54305000D01*
G75*
G02*
X97053600Y-54356000I0J-51000D01*
G01*
X97053600Y-54864000D01*
G75*
G02*
X97002600Y-54915000I-51000J0D01*
G01*
X96126300Y-54915000D01*
G75*
G02*
X96075300Y-54864000I0J51000D01*
G01*
G37*
G36*
G01*
X96075300Y-53913999D02*
X96075300Y-53405999D01*
G75*
G02*
X96126300Y-53354999I51000J0D01*
G01*
X97002600Y-53354999D01*
G75*
G02*
X97053600Y-53405999I0J-51000D01*
G01*
X97053600Y-53913999D01*
G75*
G02*
X97002600Y-53964999I-51000J0D01*
G01*
X96126300Y-53964999D01*
G75*
G02*
X96075300Y-53913999I0J51000D01*
G01*
G37*
D15*
X90170000Y-115570000D03*
X90170000Y-113030000D03*
X92710000Y-115570000D03*
X92710000Y-113030000D03*
X95250000Y-115570000D03*
X95250000Y-113030000D03*
X97790000Y-115570000D03*
X97790000Y-113030000D03*
X100330000Y-115570000D03*
X100330000Y-113030000D03*
G36*
G01*
X115281000Y-78083615D02*
X115281000Y-79396385D01*
G75*
G02*
X115011385Y-79666000I-269615J0D01*
G01*
X114148615Y-79666000D01*
G75*
G02*
X113879000Y-79396385I0J269615D01*
G01*
X113879000Y-78083615D01*
G75*
G02*
X114148615Y-77814000I269615J0D01*
G01*
X115011385Y-77814000D01*
G75*
G02*
X115281000Y-78083615I0J-269615D01*
G01*
G37*
G36*
G01*
X112181000Y-78083615D02*
X112181000Y-79396385D01*
G75*
G02*
X111911385Y-79666000I-269615J0D01*
G01*
X111048615Y-79666000D01*
G75*
G02*
X110779000Y-79396385I0J269615D01*
G01*
X110779000Y-78083615D01*
G75*
G02*
X111048615Y-77814000I269615J0D01*
G01*
X111911385Y-77814000D01*
G75*
G02*
X112181000Y-78083615I0J-269615D01*
G01*
G37*
G36*
G01*
X112181000Y-73003615D02*
X112181000Y-74316385D01*
G75*
G02*
X111911385Y-74586000I-269615J0D01*
G01*
X111048615Y-74586000D01*
G75*
G02*
X110779000Y-74316385I0J269615D01*
G01*
X110779000Y-73003615D01*
G75*
G02*
X111048615Y-72734000I269615J0D01*
G01*
X111911385Y-72734000D01*
G75*
G02*
X112181000Y-73003615I0J-269615D01*
G01*
G37*
G36*
G01*
X115281000Y-73003615D02*
X115281000Y-74316385D01*
G75*
G02*
X115011385Y-74586000I-269615J0D01*
G01*
X114148615Y-74586000D01*
G75*
G02*
X113879000Y-74316385I0J269615D01*
G01*
X113879000Y-73003615D01*
G75*
G02*
X114148615Y-72734000I269615J0D01*
G01*
X115011385Y-72734000D01*
G75*
G02*
X115281000Y-73003615I0J-269615D01*
G01*
G37*
G36*
G01*
X115281000Y-67923615D02*
X115281000Y-69236385D01*
G75*
G02*
X115011385Y-69506000I-269615J0D01*
G01*
X114148615Y-69506000D01*
G75*
G02*
X113879000Y-69236385I0J269615D01*
G01*
X113879000Y-67923615D01*
G75*
G02*
X114148615Y-67654000I269615J0D01*
G01*
X115011385Y-67654000D01*
G75*
G02*
X115281000Y-67923615I0J-269615D01*
G01*
G37*
G36*
G01*
X112181000Y-67923615D02*
X112181000Y-69236385D01*
G75*
G02*
X111911385Y-69506000I-269615J0D01*
G01*
X111048615Y-69506000D01*
G75*
G02*
X110779000Y-69236385I0J269615D01*
G01*
X110779000Y-67923615D01*
G75*
G02*
X111048615Y-67654000I269615J0D01*
G01*
X111911385Y-67654000D01*
G75*
G02*
X112181000Y-67923615I0J-269615D01*
G01*
G37*
G36*
G01*
X54189000Y-104796385D02*
X54189000Y-103483615D01*
G75*
G02*
X54458615Y-103214000I269615J0D01*
G01*
X55321385Y-103214000D01*
G75*
G02*
X55591000Y-103483615I0J-269615D01*
G01*
X55591000Y-104796385D01*
G75*
G02*
X55321385Y-105066000I-269615J0D01*
G01*
X54458615Y-105066000D01*
G75*
G02*
X54189000Y-104796385I0J269615D01*
G01*
G37*
G36*
G01*
X51089000Y-104796385D02*
X51089000Y-103483615D01*
G75*
G02*
X51358615Y-103214000I269615J0D01*
G01*
X52221385Y-103214000D01*
G75*
G02*
X52491000Y-103483615I0J-269615D01*
G01*
X52491000Y-104796385D01*
G75*
G02*
X52221385Y-105066000I-269615J0D01*
G01*
X51358615Y-105066000D01*
G75*
G02*
X51089000Y-104796385I0J269615D01*
G01*
G37*
G36*
G01*
X48549000Y-92096385D02*
X48549000Y-90783615D01*
G75*
G02*
X48818615Y-90514000I269615J0D01*
G01*
X49681385Y-90514000D01*
G75*
G02*
X49951000Y-90783615I0J-269615D01*
G01*
X49951000Y-92096385D01*
G75*
G02*
X49681385Y-92366000I-269615J0D01*
G01*
X48818615Y-92366000D01*
G75*
G02*
X48549000Y-92096385I0J269615D01*
G01*
G37*
G36*
G01*
X51649000Y-92096385D02*
X51649000Y-90783615D01*
G75*
G02*
X51918615Y-90514000I269615J0D01*
G01*
X52781385Y-90514000D01*
G75*
G02*
X53051000Y-90783615I0J-269615D01*
G01*
X53051000Y-92096385D01*
G75*
G02*
X52781385Y-92366000I-269615J0D01*
G01*
X51918615Y-92366000D01*
G75*
G02*
X51649000Y-92096385I0J269615D01*
G01*
G37*
D17*
G36*
X61184932Y-53052801D02*
G01*
X61185200Y-53053801D01*
X61185200Y-53246199D01*
X61184200Y-53247931D01*
X61183200Y-53248199D01*
X59658800Y-53248199D01*
X59657068Y-53247199D01*
X59656800Y-53246199D01*
X59656800Y-53053801D01*
X59657800Y-53052069D01*
X59658800Y-53051801D01*
X61183200Y-53051801D01*
X61184932Y-53052801D01*
G37*
G36*
X55342932Y-53052801D02*
G01*
X55343200Y-53053801D01*
X55343200Y-53246199D01*
X55342200Y-53247931D01*
X55341200Y-53248199D01*
X53816800Y-53248199D01*
X53815068Y-53247199D01*
X53814800Y-53246199D01*
X53814800Y-53053801D01*
X53815800Y-53052069D01*
X53816800Y-53051801D01*
X55341200Y-53051801D01*
X55342932Y-53052801D01*
G37*
G36*
X55342932Y-52402799D02*
G01*
X55343200Y-52403799D01*
X55343200Y-52596201D01*
X55342200Y-52597933D01*
X55341200Y-52598201D01*
X53816800Y-52598201D01*
X53815068Y-52597201D01*
X53814800Y-52596201D01*
X53814800Y-52403799D01*
X53815800Y-52402067D01*
X53816800Y-52401799D01*
X55341200Y-52401799D01*
X55342932Y-52402799D01*
G37*
G36*
X61184932Y-52402799D02*
G01*
X61185200Y-52403799D01*
X61185200Y-52596201D01*
X61184200Y-52597933D01*
X61183200Y-52598201D01*
X59658800Y-52598201D01*
X59657068Y-52597201D01*
X59656800Y-52596201D01*
X59656800Y-52403799D01*
X59657800Y-52402067D01*
X59658800Y-52401799D01*
X61183200Y-52401799D01*
X61184932Y-52402799D01*
G37*
G36*
X55342932Y-51752801D02*
G01*
X55343200Y-51753801D01*
X55343200Y-51946199D01*
X55342200Y-51947931D01*
X55341200Y-51948199D01*
X53816800Y-51948199D01*
X53815068Y-51947199D01*
X53814800Y-51946199D01*
X53814800Y-51753801D01*
X53815800Y-51752069D01*
X53816800Y-51751801D01*
X55341200Y-51751801D01*
X55342932Y-51752801D01*
G37*
G36*
X61184932Y-51752801D02*
G01*
X61185200Y-51753801D01*
X61185200Y-51946199D01*
X61184200Y-51947931D01*
X61183200Y-51948199D01*
X59658800Y-51948199D01*
X59657068Y-51947199D01*
X59656800Y-51946199D01*
X59656800Y-51753801D01*
X59657800Y-51752069D01*
X59658800Y-51751801D01*
X61183200Y-51751801D01*
X61184932Y-51752801D01*
G37*
M02*
