G04 #@! TF.GenerationSoftware,KiCad,Pcbnew,(5.1.10-1-10_14)*
G04 #@! TF.CreationDate,2021-12-21T22:20:50-08:00*
G04 #@! TF.ProjectId,power,706f7765-722e-46b6-9963-61645f706362,rev?*
G04 #@! TF.SameCoordinates,Original*
G04 #@! TF.FileFunction,Soldermask,Bot*
G04 #@! TF.FilePolarity,Negative*
%FSLAX46Y46*%
G04 Gerber Fmt 4.6, Leading zero omitted, Abs format (unit mm)*
G04 Created by KiCad (PCBNEW (5.1.10-1-10_14)) date 2021-12-21 22:20:50*
%MOMM*%
%LPD*%
G01*
G04 APERTURE LIST*
%ADD10C,3.302000*%
%ADD11O,1.802000X1.802000*%
%ADD12C,6.502000*%
%ADD13C,2.502000*%
%ADD14C,1.626000*%
%ADD15C,2.102000*%
G04 APERTURE END LIST*
D10*
X39500000Y-119250000D03*
X151000000Y-32000000D03*
X151000000Y-119250000D03*
X39500000Y-32000000D03*
D11*
X157480000Y-100330000D03*
X154940000Y-100330000D03*
X157480000Y-97790000D03*
X154940000Y-97790000D03*
X157480000Y-95250000D03*
X154940000Y-95250000D03*
X157480000Y-92710000D03*
X154940000Y-92710000D03*
X157480000Y-90170000D03*
X154940000Y-90170000D03*
X157480000Y-87630000D03*
X154940000Y-87630000D03*
X157480000Y-85090000D03*
X154940000Y-85090000D03*
X157480000Y-82550000D03*
X154940000Y-82550000D03*
X157480000Y-80010000D03*
X154940000Y-80010000D03*
X157480000Y-77470000D03*
X154940000Y-77470000D03*
X157480000Y-74930000D03*
X154940000Y-74930000D03*
X157480000Y-72390000D03*
X154940000Y-72390000D03*
X157480000Y-69850000D03*
X154940000Y-69850000D03*
X157480000Y-67310000D03*
X154940000Y-67310000D03*
X157480000Y-64770000D03*
X154940000Y-64770000D03*
X157480000Y-62230000D03*
X154940000Y-62230000D03*
X157480000Y-59690000D03*
X154940000Y-59690000D03*
X157480000Y-57150000D03*
X154940000Y-57150000D03*
X157480000Y-54610000D03*
X154940000Y-54610000D03*
X157480000Y-52070000D03*
G36*
G01*
X154039000Y-52920000D02*
X154039000Y-51220000D01*
G75*
G02*
X154090000Y-51169000I51000J0D01*
G01*
X155790000Y-51169000D01*
G75*
G02*
X155841000Y-51220000I0J-51000D01*
G01*
X155841000Y-52920000D01*
G75*
G02*
X155790000Y-52971000I-51000J0D01*
G01*
X154090000Y-52971000D01*
G75*
G02*
X154039000Y-52920000I0J51000D01*
G01*
G37*
D12*
X160020000Y-120650000D03*
X30480000Y-120650000D03*
X160020000Y-30480000D03*
X30480000Y-30480000D03*
G36*
G01*
X36550000Y-72749000D02*
X38950000Y-72749000D01*
G75*
G02*
X39001000Y-72800000I0J-51000D01*
G01*
X39001000Y-75200000D01*
G75*
G02*
X38950000Y-75251000I-51000J0D01*
G01*
X36550000Y-75251000D01*
G75*
G02*
X36499000Y-75200000I0J51000D01*
G01*
X36499000Y-72800000D01*
G75*
G02*
X36550000Y-72749000I51000J0D01*
G01*
G37*
D13*
X37750000Y-77500000D03*
X37750000Y-63250000D03*
G36*
G01*
X36550000Y-58499000D02*
X38950000Y-58499000D01*
G75*
G02*
X39001000Y-58550000I0J-51000D01*
G01*
X39001000Y-60950000D01*
G75*
G02*
X38950000Y-61001000I-51000J0D01*
G01*
X36550000Y-61001000D01*
G75*
G02*
X36499000Y-60950000I0J51000D01*
G01*
X36499000Y-58550000D01*
G75*
G02*
X36550000Y-58499000I51000J0D01*
G01*
G37*
D14*
X152400000Y-44450000D03*
X154940000Y-44450000D03*
X157480000Y-44450000D03*
X151460000Y-108000000D03*
X154000000Y-108000000D03*
X156540000Y-108000000D03*
D15*
X107950000Y-44450000D03*
X107950000Y-49530000D03*
D14*
X90170000Y-115570000D03*
X90170000Y-113030000D03*
X92710000Y-115570000D03*
X92710000Y-113030000D03*
X95250000Y-115570000D03*
X95250000Y-113030000D03*
X97790000Y-115570000D03*
X97790000Y-113030000D03*
X100330000Y-115570000D03*
X100330000Y-113030000D03*
M02*
