G04 #@! TF.GenerationSoftware,KiCad,Pcbnew,(5.1.10-1-10_14)*
G04 #@! TF.CreationDate,2021-12-21T22:20:50-08:00*
G04 #@! TF.ProjectId,power,706f7765-722e-46b6-9963-61645f706362,rev?*
G04 #@! TF.SameCoordinates,Original*
G04 #@! TF.FileFunction,Paste,Top*
G04 #@! TF.FilePolarity,Positive*
%FSLAX46Y46*%
G04 Gerber Fmt 4.6, Leading zero omitted, Abs format (unit mm)*
G04 Created by KiCad (PCBNEW (5.1.10-1-10_14)) date 2021-12-21 22:20:50*
%MOMM*%
%LPD*%
G01*
G04 APERTURE LIST*
%ADD10C,0.010000*%
%ADD11R,2.286000X3.048000*%
%ADD12R,1.422400X0.355600*%
%ADD13R,1.016000X0.508000*%
%ADD14R,0.876300X0.508000*%
G04 APERTURE END LIST*
D10*
G36*
X96000000Y-48130000D02*
G01*
X96000000Y-50930000D01*
X97200000Y-50930000D01*
X97500000Y-50580000D01*
X97500000Y-50280000D01*
X99000000Y-50280000D01*
X99000000Y-48780000D01*
X97500000Y-48780000D01*
X97500000Y-48480000D01*
X97200000Y-48130000D01*
X96000000Y-48130000D01*
G37*
X96000000Y-48130000D02*
X96000000Y-50930000D01*
X97200000Y-50930000D01*
X97500000Y-50580000D01*
X97500000Y-50280000D01*
X99000000Y-50280000D01*
X99000000Y-48780000D01*
X97500000Y-48780000D01*
X97500000Y-48480000D01*
X97200000Y-48130000D01*
X96000000Y-48130000D01*
G36*
X94500000Y-48130000D02*
G01*
X94500000Y-50930000D01*
X93300000Y-50930000D01*
X93000000Y-50580000D01*
X93000000Y-50280000D01*
X91500000Y-50280000D01*
X91500000Y-48780000D01*
X93000000Y-48780000D01*
X93000000Y-48480000D01*
X93300000Y-48130000D01*
X94500000Y-48130000D01*
G37*
X94500000Y-48130000D02*
X94500000Y-50930000D01*
X93300000Y-50930000D01*
X93000000Y-50580000D01*
X93000000Y-50280000D01*
X91500000Y-50280000D01*
X91500000Y-48780000D01*
X93000000Y-48780000D01*
X93000000Y-48480000D01*
X93300000Y-48130000D01*
X94500000Y-48130000D01*
D11*
X42790000Y-52250000D03*
X37710000Y-52250000D03*
D12*
X54579000Y-51525001D03*
X54579000Y-52174999D03*
X54579000Y-52825001D03*
X54579000Y-53474999D03*
X60421000Y-53474999D03*
X60421000Y-52825001D03*
X60421000Y-52174999D03*
X60421000Y-51525001D03*
G36*
G01*
X56850000Y-43099999D02*
X56850000Y-44400001D01*
G75*
G02*
X56600001Y-44650000I-249999J0D01*
G01*
X55774999Y-44650000D01*
G75*
G02*
X55525000Y-44400001I0J249999D01*
G01*
X55525000Y-43099999D01*
G75*
G02*
X55774999Y-42850000I249999J0D01*
G01*
X56600001Y-42850000D01*
G75*
G02*
X56850000Y-43099999I0J-249999D01*
G01*
G37*
G36*
G01*
X59975000Y-43099999D02*
X59975000Y-44400001D01*
G75*
G02*
X59725001Y-44650000I-249999J0D01*
G01*
X58899999Y-44650000D01*
G75*
G02*
X58650000Y-44400001I0J249999D01*
G01*
X58650000Y-43099999D01*
G75*
G02*
X58899999Y-42850000I249999J0D01*
G01*
X59725001Y-42850000D01*
G75*
G02*
X59975000Y-43099999I0J-249999D01*
G01*
G37*
G36*
G01*
X51475000Y-55349999D02*
X51475000Y-56650001D01*
G75*
G02*
X51225001Y-56900000I-249999J0D01*
G01*
X50399999Y-56900000D01*
G75*
G02*
X50150000Y-56650001I0J249999D01*
G01*
X50150000Y-55349999D01*
G75*
G02*
X50399999Y-55100000I249999J0D01*
G01*
X51225001Y-55100000D01*
G75*
G02*
X51475000Y-55349999I0J-249999D01*
G01*
G37*
G36*
G01*
X48350000Y-55349999D02*
X48350000Y-56650001D01*
G75*
G02*
X48100001Y-56900000I-249999J0D01*
G01*
X47274999Y-56900000D01*
G75*
G02*
X47025000Y-56650001I0J249999D01*
G01*
X47025000Y-55349999D01*
G75*
G02*
X47274999Y-55100000I249999J0D01*
G01*
X48100001Y-55100000D01*
G75*
G02*
X48350000Y-55349999I0J-249999D01*
G01*
G37*
G36*
G01*
X144160001Y-94935000D02*
X142859999Y-94935000D01*
G75*
G02*
X142610000Y-94685001I0J249999D01*
G01*
X142610000Y-93859999D01*
G75*
G02*
X142859999Y-93610000I249999J0D01*
G01*
X144160001Y-93610000D01*
G75*
G02*
X144410000Y-93859999I0J-249999D01*
G01*
X144410000Y-94685001D01*
G75*
G02*
X144160001Y-94935000I-249999J0D01*
G01*
G37*
G36*
G01*
X144160001Y-91810000D02*
X142859999Y-91810000D01*
G75*
G02*
X142610000Y-91560001I0J249999D01*
G01*
X142610000Y-90734999D01*
G75*
G02*
X142859999Y-90485000I249999J0D01*
G01*
X144160001Y-90485000D01*
G75*
G02*
X144410000Y-90734999I0J-249999D01*
G01*
X144410000Y-91560001D01*
G75*
G02*
X144160001Y-91810000I-249999J0D01*
G01*
G37*
G36*
G01*
X141589999Y-58050000D02*
X142890001Y-58050000D01*
G75*
G02*
X143140000Y-58299999I0J-249999D01*
G01*
X143140000Y-59125001D01*
G75*
G02*
X142890001Y-59375000I-249999J0D01*
G01*
X141589999Y-59375000D01*
G75*
G02*
X141340000Y-59125001I0J249999D01*
G01*
X141340000Y-58299999D01*
G75*
G02*
X141589999Y-58050000I249999J0D01*
G01*
G37*
G36*
G01*
X141589999Y-54925000D02*
X142890001Y-54925000D01*
G75*
G02*
X143140000Y-55174999I0J-249999D01*
G01*
X143140000Y-56000001D01*
G75*
G02*
X142890001Y-56250000I-249999J0D01*
G01*
X141589999Y-56250000D01*
G75*
G02*
X141340000Y-56000001I0J249999D01*
G01*
X141340000Y-55174999D01*
G75*
G02*
X141589999Y-54925000I249999J0D01*
G01*
G37*
G36*
G01*
X53417500Y-84439999D02*
X53417500Y-85740001D01*
G75*
G02*
X53167501Y-85990000I-249999J0D01*
G01*
X52342499Y-85990000D01*
G75*
G02*
X52092500Y-85740001I0J249999D01*
G01*
X52092500Y-84439999D01*
G75*
G02*
X52342499Y-84190000I249999J0D01*
G01*
X53167501Y-84190000D01*
G75*
G02*
X53417500Y-84439999I0J-249999D01*
G01*
G37*
G36*
G01*
X56542500Y-84439999D02*
X56542500Y-85740001D01*
G75*
G02*
X56292501Y-85990000I-249999J0D01*
G01*
X55467499Y-85990000D01*
G75*
G02*
X55217500Y-85740001I0J249999D01*
G01*
X55217500Y-84439999D01*
G75*
G02*
X55467499Y-84190000I249999J0D01*
G01*
X56292501Y-84190000D01*
G75*
G02*
X56542500Y-84439999I0J-249999D01*
G01*
G37*
G36*
G01*
X56775000Y-69650001D02*
X56775000Y-68349999D01*
G75*
G02*
X57024999Y-68100000I249999J0D01*
G01*
X57850001Y-68100000D01*
G75*
G02*
X58100000Y-68349999I0J-249999D01*
G01*
X58100000Y-69650001D01*
G75*
G02*
X57850001Y-69900000I-249999J0D01*
G01*
X57024999Y-69900000D01*
G75*
G02*
X56775000Y-69650001I0J249999D01*
G01*
G37*
G36*
G01*
X59900000Y-69650001D02*
X59900000Y-68349999D01*
G75*
G02*
X60149999Y-68100000I249999J0D01*
G01*
X60975001Y-68100000D01*
G75*
G02*
X61225000Y-68349999I0J-249999D01*
G01*
X61225000Y-69650001D01*
G75*
G02*
X60975001Y-69900000I-249999J0D01*
G01*
X60149999Y-69900000D01*
G75*
G02*
X59900000Y-69650001I0J249999D01*
G01*
G37*
D13*
X55943500Y-78420001D03*
X55943500Y-77470000D03*
X55943500Y-76519999D03*
X53276500Y-76519999D03*
X53276500Y-77470000D03*
X53276500Y-78420001D03*
G36*
G01*
X60125000Y-61150000D02*
X61375000Y-61150000D01*
G75*
G02*
X61625000Y-61400000I0J-250000D01*
G01*
X61625000Y-62200000D01*
G75*
G02*
X61375000Y-62450000I-250000J0D01*
G01*
X60125000Y-62450000D01*
G75*
G02*
X59875000Y-62200000I0J250000D01*
G01*
X59875000Y-61400000D01*
G75*
G02*
X60125000Y-61150000I250000J0D01*
G01*
G37*
G36*
G01*
X60125000Y-58050000D02*
X61375000Y-58050000D01*
G75*
G02*
X61625000Y-58300000I0J-250000D01*
G01*
X61625000Y-59100000D01*
G75*
G02*
X61375000Y-59350000I-250000J0D01*
G01*
X60125000Y-59350000D01*
G75*
G02*
X59875000Y-59100000I0J250000D01*
G01*
X59875000Y-58300000D01*
G75*
G02*
X60125000Y-58050000I250000J0D01*
G01*
G37*
G36*
G01*
X53875000Y-58050000D02*
X55125000Y-58050000D01*
G75*
G02*
X55375000Y-58300000I0J-250000D01*
G01*
X55375000Y-59100000D01*
G75*
G02*
X55125000Y-59350000I-250000J0D01*
G01*
X53875000Y-59350000D01*
G75*
G02*
X53625000Y-59100000I0J250000D01*
G01*
X53625000Y-58300000D01*
G75*
G02*
X53875000Y-58050000I250000J0D01*
G01*
G37*
G36*
G01*
X53875000Y-61150000D02*
X55125000Y-61150000D01*
G75*
G02*
X55375000Y-61400000I0J-250000D01*
G01*
X55375000Y-62200000D01*
G75*
G02*
X55125000Y-62450000I-250000J0D01*
G01*
X53875000Y-62450000D01*
G75*
G02*
X53625000Y-62200000I0J250000D01*
G01*
X53625000Y-61400000D01*
G75*
G02*
X53875000Y-61150000I250000J0D01*
G01*
G37*
G36*
G01*
X48174999Y-42150000D02*
X50325001Y-42150000D01*
G75*
G02*
X50575000Y-42399999I0J-249999D01*
G01*
X50575000Y-43300001D01*
G75*
G02*
X50325001Y-43550000I-249999J0D01*
G01*
X48174999Y-43550000D01*
G75*
G02*
X47925000Y-43300001I0J249999D01*
G01*
X47925000Y-42399999D01*
G75*
G02*
X48174999Y-42150000I249999J0D01*
G01*
G37*
G36*
G01*
X48174999Y-46950000D02*
X50325001Y-46950000D01*
G75*
G02*
X50575000Y-47199999I0J-249999D01*
G01*
X50575000Y-48100001D01*
G75*
G02*
X50325001Y-48350000I-249999J0D01*
G01*
X48174999Y-48350000D01*
G75*
G02*
X47925000Y-48100001I0J249999D01*
G01*
X47925000Y-47199999D01*
G75*
G02*
X48174999Y-46950000I249999J0D01*
G01*
G37*
G36*
G01*
X74875000Y-57200000D02*
X73625000Y-57200000D01*
G75*
G02*
X73375000Y-56950000I0J250000D01*
G01*
X73375000Y-56150000D01*
G75*
G02*
X73625000Y-55900000I250000J0D01*
G01*
X74875000Y-55900000D01*
G75*
G02*
X75125000Y-56150000I0J-250000D01*
G01*
X75125000Y-56950000D01*
G75*
G02*
X74875000Y-57200000I-250000J0D01*
G01*
G37*
G36*
G01*
X74875000Y-54100000D02*
X73625000Y-54100000D01*
G75*
G02*
X73375000Y-53850000I0J250000D01*
G01*
X73375000Y-53050000D01*
G75*
G02*
X73625000Y-52800000I250000J0D01*
G01*
X74875000Y-52800000D01*
G75*
G02*
X75125000Y-53050000I0J-250000D01*
G01*
X75125000Y-53850000D01*
G75*
G02*
X74875000Y-54100000I-250000J0D01*
G01*
G37*
G36*
G01*
X62875000Y-84720000D02*
X64125000Y-84720000D01*
G75*
G02*
X64375000Y-84970000I0J-250000D01*
G01*
X64375000Y-85770000D01*
G75*
G02*
X64125000Y-86020000I-250000J0D01*
G01*
X62875000Y-86020000D01*
G75*
G02*
X62625000Y-85770000I0J250000D01*
G01*
X62625000Y-84970000D01*
G75*
G02*
X62875000Y-84720000I250000J0D01*
G01*
G37*
G36*
G01*
X62875000Y-81620000D02*
X64125000Y-81620000D01*
G75*
G02*
X64375000Y-81870000I0J-250000D01*
G01*
X64375000Y-82670000D01*
G75*
G02*
X64125000Y-82920000I-250000J0D01*
G01*
X62875000Y-82920000D01*
G75*
G02*
X62625000Y-82670000I0J250000D01*
G01*
X62625000Y-81870000D01*
G75*
G02*
X62875000Y-81620000I250000J0D01*
G01*
G37*
G36*
G01*
X43520000Y-75555000D02*
X43520000Y-74305000D01*
G75*
G02*
X43770000Y-74055000I250000J0D01*
G01*
X44570000Y-74055000D01*
G75*
G02*
X44820000Y-74305000I0J-250000D01*
G01*
X44820000Y-75555000D01*
G75*
G02*
X44570000Y-75805000I-250000J0D01*
G01*
X43770000Y-75805000D01*
G75*
G02*
X43520000Y-75555000I0J250000D01*
G01*
G37*
G36*
G01*
X46620000Y-75555000D02*
X46620000Y-74305000D01*
G75*
G02*
X46870000Y-74055000I250000J0D01*
G01*
X47670000Y-74055000D01*
G75*
G02*
X47920000Y-74305000I0J-250000D01*
G01*
X47920000Y-75555000D01*
G75*
G02*
X47670000Y-75805000I-250000J0D01*
G01*
X46870000Y-75805000D01*
G75*
G02*
X46620000Y-75555000I0J250000D01*
G01*
G37*
G36*
G01*
X97475000Y-67929999D02*
X97475000Y-69230001D01*
G75*
G02*
X97225001Y-69480000I-249999J0D01*
G01*
X96399999Y-69480000D01*
G75*
G02*
X96150000Y-69230001I0J249999D01*
G01*
X96150000Y-67929999D01*
G75*
G02*
X96399999Y-67680000I249999J0D01*
G01*
X97225001Y-67680000D01*
G75*
G02*
X97475000Y-67929999I0J-249999D01*
G01*
G37*
G36*
G01*
X94350000Y-67929999D02*
X94350000Y-69230001D01*
G75*
G02*
X94100001Y-69480000I-249999J0D01*
G01*
X93274999Y-69480000D01*
G75*
G02*
X93025000Y-69230001I0J249999D01*
G01*
X93025000Y-67929999D01*
G75*
G02*
X93274999Y-67680000I249999J0D01*
G01*
X94100001Y-67680000D01*
G75*
G02*
X94350000Y-67929999I0J-249999D01*
G01*
G37*
G36*
G01*
X119010000Y-60340001D02*
X119010000Y-59039999D01*
G75*
G02*
X119259999Y-58790000I249999J0D01*
G01*
X120085001Y-58790000D01*
G75*
G02*
X120335000Y-59039999I0J-249999D01*
G01*
X120335000Y-60340001D01*
G75*
G02*
X120085001Y-60590000I-249999J0D01*
G01*
X119259999Y-60590000D01*
G75*
G02*
X119010000Y-60340001I0J249999D01*
G01*
G37*
G36*
G01*
X115885000Y-60340001D02*
X115885000Y-59039999D01*
G75*
G02*
X116134999Y-58790000I249999J0D01*
G01*
X116960001Y-58790000D01*
G75*
G02*
X117210000Y-59039999I0J-249999D01*
G01*
X117210000Y-60340001D01*
G75*
G02*
X116960001Y-60590000I-249999J0D01*
G01*
X116134999Y-60590000D01*
G75*
G02*
X115885000Y-60340001I0J249999D01*
G01*
G37*
G36*
G01*
X106365000Y-59039999D02*
X106365000Y-60340001D01*
G75*
G02*
X106115001Y-60590000I-249999J0D01*
G01*
X105289999Y-60590000D01*
G75*
G02*
X105040000Y-60340001I0J249999D01*
G01*
X105040000Y-59039999D01*
G75*
G02*
X105289999Y-58790000I249999J0D01*
G01*
X106115001Y-58790000D01*
G75*
G02*
X106365000Y-59039999I0J-249999D01*
G01*
G37*
G36*
G01*
X103240000Y-59039999D02*
X103240000Y-60340001D01*
G75*
G02*
X102990001Y-60590000I-249999J0D01*
G01*
X102164999Y-60590000D01*
G75*
G02*
X101915000Y-60340001I0J249999D01*
G01*
X101915000Y-59039999D01*
G75*
G02*
X102164999Y-58790000I249999J0D01*
G01*
X102990001Y-58790000D01*
G75*
G02*
X103240000Y-59039999I0J-249999D01*
G01*
G37*
G36*
G01*
X90540000Y-41259999D02*
X90540000Y-42560001D01*
G75*
G02*
X90290001Y-42810000I-249999J0D01*
G01*
X89464999Y-42810000D01*
G75*
G02*
X89215000Y-42560001I0J249999D01*
G01*
X89215000Y-41259999D01*
G75*
G02*
X89464999Y-41010000I249999J0D01*
G01*
X90290001Y-41010000D01*
G75*
G02*
X90540000Y-41259999I0J-249999D01*
G01*
G37*
G36*
G01*
X93665000Y-41259999D02*
X93665000Y-42560001D01*
G75*
G02*
X93415001Y-42810000I-249999J0D01*
G01*
X92589999Y-42810000D01*
G75*
G02*
X92340000Y-42560001I0J249999D01*
G01*
X92340000Y-41259999D01*
G75*
G02*
X92589999Y-41010000I249999J0D01*
G01*
X93415001Y-41010000D01*
G75*
G02*
X93665000Y-41259999I0J-249999D01*
G01*
G37*
G36*
G01*
X87010000Y-52715000D02*
X87010000Y-53965000D01*
G75*
G02*
X86760000Y-54215000I-250000J0D01*
G01*
X85960000Y-54215000D01*
G75*
G02*
X85710000Y-53965000I0J250000D01*
G01*
X85710000Y-52715000D01*
G75*
G02*
X85960000Y-52465000I250000J0D01*
G01*
X86760000Y-52465000D01*
G75*
G02*
X87010000Y-52715000I0J-250000D01*
G01*
G37*
G36*
G01*
X83910000Y-52715000D02*
X83910000Y-53965000D01*
G75*
G02*
X83660000Y-54215000I-250000J0D01*
G01*
X82860000Y-54215000D01*
G75*
G02*
X82610000Y-53965000I0J250000D01*
G01*
X82610000Y-52715000D01*
G75*
G02*
X82860000Y-52465000I250000J0D01*
G01*
X83660000Y-52465000D01*
G75*
G02*
X83910000Y-52715000I0J-250000D01*
G01*
G37*
G36*
G01*
X94350000Y-62875000D02*
X94350000Y-64125000D01*
G75*
G02*
X94100000Y-64375000I-250000J0D01*
G01*
X93300000Y-64375000D01*
G75*
G02*
X93050000Y-64125000I0J250000D01*
G01*
X93050000Y-62875000D01*
G75*
G02*
X93300000Y-62625000I250000J0D01*
G01*
X94100000Y-62625000D01*
G75*
G02*
X94350000Y-62875000I0J-250000D01*
G01*
G37*
G36*
G01*
X97450000Y-62875000D02*
X97450000Y-64125000D01*
G75*
G02*
X97200000Y-64375000I-250000J0D01*
G01*
X96400000Y-64375000D01*
G75*
G02*
X96150000Y-64125000I0J250000D01*
G01*
X96150000Y-62875000D01*
G75*
G02*
X96400000Y-62625000I250000J0D01*
G01*
X97200000Y-62625000D01*
G75*
G02*
X97450000Y-62875000I0J-250000D01*
G01*
G37*
D14*
X93935550Y-53659999D03*
X93935550Y-54610000D03*
X93935550Y-55560001D03*
X96564450Y-55560001D03*
X96564450Y-54610000D03*
X96564450Y-53659999D03*
G36*
G01*
X115230000Y-78115000D02*
X115230000Y-79365000D01*
G75*
G02*
X114980000Y-79615000I-250000J0D01*
G01*
X114180000Y-79615000D01*
G75*
G02*
X113930000Y-79365000I0J250000D01*
G01*
X113930000Y-78115000D01*
G75*
G02*
X114180000Y-77865000I250000J0D01*
G01*
X114980000Y-77865000D01*
G75*
G02*
X115230000Y-78115000I0J-250000D01*
G01*
G37*
G36*
G01*
X112130000Y-78115000D02*
X112130000Y-79365000D01*
G75*
G02*
X111880000Y-79615000I-250000J0D01*
G01*
X111080000Y-79615000D01*
G75*
G02*
X110830000Y-79365000I0J250000D01*
G01*
X110830000Y-78115000D01*
G75*
G02*
X111080000Y-77865000I250000J0D01*
G01*
X111880000Y-77865000D01*
G75*
G02*
X112130000Y-78115000I0J-250000D01*
G01*
G37*
G36*
G01*
X112130000Y-73035000D02*
X112130000Y-74285000D01*
G75*
G02*
X111880000Y-74535000I-250000J0D01*
G01*
X111080000Y-74535000D01*
G75*
G02*
X110830000Y-74285000I0J250000D01*
G01*
X110830000Y-73035000D01*
G75*
G02*
X111080000Y-72785000I250000J0D01*
G01*
X111880000Y-72785000D01*
G75*
G02*
X112130000Y-73035000I0J-250000D01*
G01*
G37*
G36*
G01*
X115230000Y-73035000D02*
X115230000Y-74285000D01*
G75*
G02*
X114980000Y-74535000I-250000J0D01*
G01*
X114180000Y-74535000D01*
G75*
G02*
X113930000Y-74285000I0J250000D01*
G01*
X113930000Y-73035000D01*
G75*
G02*
X114180000Y-72785000I250000J0D01*
G01*
X114980000Y-72785000D01*
G75*
G02*
X115230000Y-73035000I0J-250000D01*
G01*
G37*
G36*
G01*
X115230000Y-67955000D02*
X115230000Y-69205000D01*
G75*
G02*
X114980000Y-69455000I-250000J0D01*
G01*
X114180000Y-69455000D01*
G75*
G02*
X113930000Y-69205000I0J250000D01*
G01*
X113930000Y-67955000D01*
G75*
G02*
X114180000Y-67705000I250000J0D01*
G01*
X114980000Y-67705000D01*
G75*
G02*
X115230000Y-67955000I0J-250000D01*
G01*
G37*
G36*
G01*
X112130000Y-67955000D02*
X112130000Y-69205000D01*
G75*
G02*
X111880000Y-69455000I-250000J0D01*
G01*
X111080000Y-69455000D01*
G75*
G02*
X110830000Y-69205000I0J250000D01*
G01*
X110830000Y-67955000D01*
G75*
G02*
X111080000Y-67705000I250000J0D01*
G01*
X111880000Y-67705000D01*
G75*
G02*
X112130000Y-67955000I0J-250000D01*
G01*
G37*
G36*
G01*
X54240000Y-104765000D02*
X54240000Y-103515000D01*
G75*
G02*
X54490000Y-103265000I250000J0D01*
G01*
X55290000Y-103265000D01*
G75*
G02*
X55540000Y-103515000I0J-250000D01*
G01*
X55540000Y-104765000D01*
G75*
G02*
X55290000Y-105015000I-250000J0D01*
G01*
X54490000Y-105015000D01*
G75*
G02*
X54240000Y-104765000I0J250000D01*
G01*
G37*
G36*
G01*
X51140000Y-104765000D02*
X51140000Y-103515000D01*
G75*
G02*
X51390000Y-103265000I250000J0D01*
G01*
X52190000Y-103265000D01*
G75*
G02*
X52440000Y-103515000I0J-250000D01*
G01*
X52440000Y-104765000D01*
G75*
G02*
X52190000Y-105015000I-250000J0D01*
G01*
X51390000Y-105015000D01*
G75*
G02*
X51140000Y-104765000I0J250000D01*
G01*
G37*
G36*
G01*
X48600000Y-92065000D02*
X48600000Y-90815000D01*
G75*
G02*
X48850000Y-90565000I250000J0D01*
G01*
X49650000Y-90565000D01*
G75*
G02*
X49900000Y-90815000I0J-250000D01*
G01*
X49900000Y-92065000D01*
G75*
G02*
X49650000Y-92315000I-250000J0D01*
G01*
X48850000Y-92315000D01*
G75*
G02*
X48600000Y-92065000I0J250000D01*
G01*
G37*
G36*
G01*
X51700000Y-92065000D02*
X51700000Y-90815000D01*
G75*
G02*
X51950000Y-90565000I250000J0D01*
G01*
X52750000Y-90565000D01*
G75*
G02*
X53000000Y-90815000I0J-250000D01*
G01*
X53000000Y-92065000D01*
G75*
G02*
X52750000Y-92315000I-250000J0D01*
G01*
X51950000Y-92315000D01*
G75*
G02*
X51700000Y-92065000I0J250000D01*
G01*
G37*
M02*
