M48
; DRILL file {KiCad (5.1.10-1-10_14)} date Tuesday, December 21, 2021 at 10:22:58 PM
; FORMAT={-:-/ absolute / inch / decimal}
; #@! TF.CreationDate,2021-12-21T22:22:58-08:00
; #@! TF.GenerationSoftware,Kicad,Pcbnew,(5.1.10-1-10_14)
; #@! TF.FileFunction,Plated,1,2,PTH
FMAT,2
INCH
T1C0.0157
T2C0.0315
T3C0.0394
T4C0.0400
T5C0.0472
T6C0.1260
%
G90
G05
T1
X1.9Y-3.1
X1.9Y-3.5
X1.998Y-1.5965
X2.0Y-3.15
X2.05Y-3.15
X2.1654Y-3.5827
X2.2Y-3.2
X2.3Y-3.05
X2.4803Y-2.7165
X2.4902Y-2.0276
X2.5098Y-2.0866
X2.5591Y-3.5039
X2.9232Y-2.8642
X2.9232Y-3.5236
X3.4Y-2.2
X3.4252Y-4.2717
X3.6Y-2.2
X3.7Y-2.3
X3.7Y-2.4
X3.8386Y-2.874
X3.85Y-2.15
X3.85Y-2.45
X3.8976Y-2.9232
X4.0157Y-3.1004
X4.0256Y-4.2323
X4.0453Y-2.6378
X4.05Y-2.0
X4.05Y-2.45
X4.15Y-2.05
X4.15Y-2.25
X4.35Y-2.3
X4.35Y-2.4
X4.45Y-2.55
X4.7Y-2.45
X4.85Y-2.35
X5.45Y-3.55
X5.4626Y-2.5394
X5.8Y-3.55
X5.8Y-4.1
T2
X4.25Y-1.75
X4.25Y-1.95
T3
X5.963Y-4.252
X6.0Y-1.75
X6.063Y-4.252
X6.1Y-1.75
X6.1Y-2.05
X6.1Y-2.15
X6.1Y-2.25
X6.1Y-2.35
X6.1Y-2.45
X6.1Y-2.55
X6.1Y-2.65
X6.1Y-2.75
X6.1Y-2.85
X6.1Y-2.95
X6.1Y-3.05
X6.1Y-3.15
X6.1Y-3.25
X6.1Y-3.35
X6.1Y-3.45
X6.1Y-3.55
X6.1Y-3.65
X6.1Y-3.75
X6.1Y-3.85
X6.1Y-3.95
X6.163Y-4.252
X6.2Y-1.75
X6.2Y-2.05
X6.2Y-2.15
X6.2Y-2.25
X6.2Y-2.35
X6.2Y-2.45
X6.2Y-2.55
X6.2Y-2.65
X6.2Y-2.75
X6.2Y-2.85
X6.2Y-2.95
X6.2Y-3.05
X6.2Y-3.15
X6.2Y-3.25
X6.2Y-3.35
X6.2Y-3.45
X6.2Y-3.55
X6.2Y-3.65
X6.2Y-3.75
X6.2Y-3.85
X6.2Y-3.95
T4
X3.55Y-4.45
X3.55Y-4.55
X3.65Y-4.45
X3.65Y-4.55
X3.75Y-4.45
X3.75Y-4.55
X3.85Y-4.45
X3.85Y-4.55
X3.95Y-4.45
X3.95Y-4.55
T5
X1.4862Y-2.3524
X1.4862Y-2.4902
X1.4862Y-2.9134
X1.4862Y-3.0512
T6
X1.2Y-1.2
X1.2Y-4.75
X6.3Y-1.2
X6.3Y-4.75
T0
M30
