G04 #@! TF.GenerationSoftware,KiCad,Pcbnew,(5.1.10-1-10_14)*
G04 #@! TF.CreationDate,2021-12-21T22:20:50-08:00*
G04 #@! TF.ProjectId,power,706f7765-722e-46b6-9963-61645f706362,rev?*
G04 #@! TF.SameCoordinates,Original*
G04 #@! TF.FileFunction,Legend,Top*
G04 #@! TF.FilePolarity,Positive*
%FSLAX46Y46*%
G04 Gerber Fmt 4.6, Leading zero omitted, Abs format (unit mm)*
G04 Created by KiCad (PCBNEW (5.1.10-1-10_14)) date 2021-12-21 22:20:50*
%MOMM*%
%LPD*%
G01*
G04 APERTURE LIST*
%ADD10C,0.300000*%
%ADD11C,0.152400*%
%ADD12C,0.120000*%
%ADD13C,0.010000*%
%ADD14C,0.150000*%
%ADD15C,0.127000*%
G04 APERTURE END LIST*
D10*
X34428571Y-81107142D02*
X35571428Y-81107142D01*
X35000000Y-81678571D02*
X35000000Y-80535714D01*
X34428571Y-67107142D02*
X35571428Y-67107142D01*
X35000000Y-67678571D02*
X35000000Y-66535714D01*
X33121428Y-101964285D02*
X32050000Y-101964285D01*
X31835714Y-101892857D01*
X31692857Y-101750000D01*
X31621428Y-101535714D01*
X31621428Y-101392857D01*
X31621428Y-102892857D02*
X31692857Y-102750000D01*
X31764285Y-102678571D01*
X31907142Y-102607142D01*
X32335714Y-102607142D01*
X32478571Y-102678571D01*
X32550000Y-102750000D01*
X32621428Y-102892857D01*
X32621428Y-103107142D01*
X32550000Y-103250000D01*
X32478571Y-103321428D01*
X32335714Y-103392857D01*
X31907142Y-103392857D01*
X31764285Y-103321428D01*
X31692857Y-103250000D01*
X31621428Y-103107142D01*
X31621428Y-102892857D01*
X31621428Y-104035714D02*
X33121428Y-104035714D01*
X31621428Y-104678571D02*
X32407142Y-104678571D01*
X32550000Y-104607142D01*
X32621428Y-104464285D01*
X32621428Y-104250000D01*
X32550000Y-104107142D01*
X32478571Y-104035714D01*
X32621428Y-105392857D02*
X31621428Y-105392857D01*
X32478571Y-105392857D02*
X32550000Y-105464285D01*
X32621428Y-105607142D01*
X32621428Y-105821428D01*
X32550000Y-105964285D01*
X32407142Y-106035714D01*
X31621428Y-106035714D01*
X31621428Y-108607142D02*
X31621428Y-107892857D01*
X33121428Y-107892857D01*
X31621428Y-109750000D02*
X32407142Y-109750000D01*
X32550000Y-109678571D01*
X32621428Y-109535714D01*
X32621428Y-109250000D01*
X32550000Y-109107142D01*
X31692857Y-109750000D02*
X31621428Y-109607142D01*
X31621428Y-109250000D01*
X31692857Y-109107142D01*
X31835714Y-109035714D01*
X31978571Y-109035714D01*
X32121428Y-109107142D01*
X32192857Y-109250000D01*
X32192857Y-109607142D01*
X32264285Y-109750000D01*
X31621428Y-110464285D02*
X32621428Y-110464285D01*
X32335714Y-110464285D02*
X32478571Y-110535714D01*
X32550000Y-110607142D01*
X32621428Y-110750000D01*
X32621428Y-110892857D01*
X31621428Y-111392857D02*
X33121428Y-111392857D01*
X32192857Y-111535714D02*
X31621428Y-111964285D01*
X32621428Y-111964285D02*
X32050000Y-111392857D01*
X31621428Y-112607142D02*
X32621428Y-112607142D01*
X33121428Y-112607142D02*
X33050000Y-112535714D01*
X32978571Y-112607142D01*
X33050000Y-112678571D01*
X33121428Y-112607142D01*
X32978571Y-112607142D01*
X32621428Y-113321428D02*
X31621428Y-113321428D01*
X32478571Y-113321428D02*
X32550000Y-113392857D01*
X32621428Y-113535714D01*
X32621428Y-113750000D01*
X32550000Y-113892857D01*
X32407142Y-113964285D01*
X31621428Y-113964285D01*
X29071428Y-100714285D02*
X30571428Y-100714285D01*
X29500000Y-101214285D01*
X30571428Y-101714285D01*
X29071428Y-101714285D01*
X29142857Y-103000000D02*
X29071428Y-102857142D01*
X29071428Y-102571428D01*
X29142857Y-102428571D01*
X29285714Y-102357142D01*
X29857142Y-102357142D01*
X30000000Y-102428571D01*
X30071428Y-102571428D01*
X30071428Y-102857142D01*
X30000000Y-103000000D01*
X29857142Y-103071428D01*
X29714285Y-103071428D01*
X29571428Y-102357142D01*
X30071428Y-104357142D02*
X28857142Y-104357142D01*
X28714285Y-104285714D01*
X28642857Y-104214285D01*
X28571428Y-104071428D01*
X28571428Y-103857142D01*
X28642857Y-103714285D01*
X29142857Y-104357142D02*
X29071428Y-104214285D01*
X29071428Y-103928571D01*
X29142857Y-103785714D01*
X29214285Y-103714285D01*
X29357142Y-103642857D01*
X29785714Y-103642857D01*
X29928571Y-103714285D01*
X30000000Y-103785714D01*
X30071428Y-103928571D01*
X30071428Y-104214285D01*
X30000000Y-104357142D01*
X29857142Y-106714285D02*
X29857142Y-106214285D01*
X29071428Y-106214285D02*
X30571428Y-106214285D01*
X30571428Y-106928571D01*
X29071428Y-108142857D02*
X29857142Y-108142857D01*
X30000000Y-108071428D01*
X30071428Y-107928571D01*
X30071428Y-107642857D01*
X30000000Y-107500000D01*
X29142857Y-108142857D02*
X29071428Y-108000000D01*
X29071428Y-107642857D01*
X29142857Y-107500000D01*
X29285714Y-107428571D01*
X29428571Y-107428571D01*
X29571428Y-107500000D01*
X29642857Y-107642857D01*
X29642857Y-108000000D01*
X29714285Y-108142857D01*
X29071428Y-108857142D02*
X30071428Y-108857142D01*
X30571428Y-108857142D02*
X30500000Y-108785714D01*
X30428571Y-108857142D01*
X30500000Y-108928571D01*
X30571428Y-108857142D01*
X30428571Y-108857142D01*
X29071428Y-109571428D02*
X30071428Y-109571428D01*
X29785714Y-109571428D02*
X29928571Y-109642857D01*
X30000000Y-109714285D01*
X30071428Y-109857142D01*
X30071428Y-110000000D01*
X29071428Y-110500000D02*
X30571428Y-110500000D01*
X30000000Y-110500000D02*
X30071428Y-110642857D01*
X30071428Y-110928571D01*
X30000000Y-111071428D01*
X29928571Y-111142857D01*
X29785714Y-111214285D01*
X29357142Y-111214285D01*
X29214285Y-111142857D01*
X29142857Y-111071428D01*
X29071428Y-110928571D01*
X29071428Y-110642857D01*
X29142857Y-110500000D01*
X29071428Y-112071428D02*
X29142857Y-111928571D01*
X29214285Y-111857142D01*
X29357142Y-111785714D01*
X29785714Y-111785714D01*
X29928571Y-111857142D01*
X30000000Y-111928571D01*
X30071428Y-112071428D01*
X30071428Y-112285714D01*
X30000000Y-112428571D01*
X29928571Y-112500000D01*
X29785714Y-112571428D01*
X29357142Y-112571428D01*
X29214285Y-112500000D01*
X29142857Y-112428571D01*
X29071428Y-112285714D01*
X29071428Y-112071428D01*
X29071428Y-113214285D02*
X30071428Y-113214285D01*
X29785714Y-113214285D02*
X29928571Y-113285714D01*
X30000000Y-113357142D01*
X30071428Y-113500000D01*
X30071428Y-113642857D01*
X30071428Y-114142857D02*
X29071428Y-114142857D01*
X29928571Y-114142857D02*
X30000000Y-114214285D01*
X30071428Y-114357142D01*
X30071428Y-114571428D01*
X30000000Y-114714285D01*
X29857142Y-114785714D01*
X29071428Y-114785714D01*
X27878571Y-105178571D02*
X27950000Y-105250000D01*
X28021428Y-105392857D01*
X28021428Y-105750000D01*
X27950000Y-105892857D01*
X27878571Y-105964285D01*
X27735714Y-106035714D01*
X27592857Y-106035714D01*
X27378571Y-105964285D01*
X26521428Y-105107142D01*
X26521428Y-106035714D01*
X28021428Y-106964285D02*
X28021428Y-107107142D01*
X27950000Y-107250000D01*
X27878571Y-107321428D01*
X27735714Y-107392857D01*
X27450000Y-107464285D01*
X27092857Y-107464285D01*
X26807142Y-107392857D01*
X26664285Y-107321428D01*
X26592857Y-107250000D01*
X26521428Y-107107142D01*
X26521428Y-106964285D01*
X26592857Y-106821428D01*
X26664285Y-106750000D01*
X26807142Y-106678571D01*
X27092857Y-106607142D01*
X27450000Y-106607142D01*
X27735714Y-106678571D01*
X27878571Y-106750000D01*
X27950000Y-106821428D01*
X28021428Y-106964285D01*
X27878571Y-108035714D02*
X27950000Y-108107142D01*
X28021428Y-108250000D01*
X28021428Y-108607142D01*
X27950000Y-108750000D01*
X27878571Y-108821428D01*
X27735714Y-108892857D01*
X27592857Y-108892857D01*
X27378571Y-108821428D01*
X26521428Y-107964285D01*
X26521428Y-108892857D01*
X27878571Y-109464285D02*
X27950000Y-109535714D01*
X28021428Y-109678571D01*
X28021428Y-110035714D01*
X27950000Y-110178571D01*
X27878571Y-110250000D01*
X27735714Y-110321428D01*
X27592857Y-110321428D01*
X27378571Y-110250000D01*
X26521428Y-109392857D01*
X26521428Y-110321428D01*
X127892857Y-28403571D02*
X128250000Y-29903571D01*
X128535714Y-28832142D01*
X128821428Y-29903571D01*
X129178571Y-28403571D01*
X129750000Y-29903571D02*
X129750000Y-28403571D01*
X130392857Y-29903571D02*
X130392857Y-29117857D01*
X130321428Y-28975000D01*
X130178571Y-28903571D01*
X129964285Y-28903571D01*
X129821428Y-28975000D01*
X129750000Y-29046428D01*
X131107142Y-29903571D02*
X131107142Y-28903571D01*
X131107142Y-28403571D02*
X131035714Y-28475000D01*
X131107142Y-28546428D01*
X131178571Y-28475000D01*
X131107142Y-28403571D01*
X131107142Y-28546428D01*
X131607142Y-28903571D02*
X132178571Y-28903571D01*
X131821428Y-28403571D02*
X131821428Y-29689285D01*
X131892857Y-29832142D01*
X132035714Y-29903571D01*
X132178571Y-29903571D01*
X132607142Y-29832142D02*
X132821428Y-29903571D01*
X133178571Y-29903571D01*
X133321428Y-29832142D01*
X133392857Y-29760714D01*
X133464285Y-29617857D01*
X133464285Y-29475000D01*
X133392857Y-29332142D01*
X133321428Y-29260714D01*
X133178571Y-29189285D01*
X132892857Y-29117857D01*
X132750000Y-29046428D01*
X132678571Y-28975000D01*
X132607142Y-28832142D01*
X132607142Y-28689285D01*
X132678571Y-28546428D01*
X132750000Y-28475000D01*
X132892857Y-28403571D01*
X133250000Y-28403571D01*
X133464285Y-28475000D01*
X134750000Y-29903571D02*
X134750000Y-29117857D01*
X134678571Y-28975000D01*
X134535714Y-28903571D01*
X134250000Y-28903571D01*
X134107142Y-28975000D01*
X134750000Y-29832142D02*
X134607142Y-29903571D01*
X134250000Y-29903571D01*
X134107142Y-29832142D01*
X134035714Y-29689285D01*
X134035714Y-29546428D01*
X134107142Y-29403571D01*
X134250000Y-29332142D01*
X134607142Y-29332142D01*
X134750000Y-29260714D01*
X135250000Y-28903571D02*
X135821428Y-28903571D01*
X135464285Y-28403571D02*
X135464285Y-29689285D01*
X135535714Y-29832142D01*
X135678571Y-29903571D01*
X135821428Y-29903571D01*
X137392857Y-28546428D02*
X137464285Y-28475000D01*
X137607142Y-28403571D01*
X137964285Y-28403571D01*
X138107142Y-28475000D01*
X138178571Y-28546428D01*
X138250000Y-28689285D01*
X138250000Y-28832142D01*
X138178571Y-29046428D01*
X137321428Y-29903571D01*
X138250000Y-29903571D01*
X139178571Y-28403571D02*
X139321428Y-28403571D01*
X139464285Y-28475000D01*
X139535714Y-28546428D01*
X139607142Y-28689285D01*
X139678571Y-28975000D01*
X139678571Y-29332142D01*
X139607142Y-29617857D01*
X139535714Y-29760714D01*
X139464285Y-29832142D01*
X139321428Y-29903571D01*
X139178571Y-29903571D01*
X139035714Y-29832142D01*
X138964285Y-29760714D01*
X138892857Y-29617857D01*
X138821428Y-29332142D01*
X138821428Y-28975000D01*
X138892857Y-28689285D01*
X138964285Y-28546428D01*
X139035714Y-28475000D01*
X139178571Y-28403571D01*
X140250000Y-28546428D02*
X140321428Y-28475000D01*
X140464285Y-28403571D01*
X140821428Y-28403571D01*
X140964285Y-28475000D01*
X141035714Y-28546428D01*
X141107142Y-28689285D01*
X141107142Y-28832142D01*
X141035714Y-29046428D01*
X140178571Y-29903571D01*
X141107142Y-29903571D01*
X141678571Y-28546428D02*
X141750000Y-28475000D01*
X141892857Y-28403571D01*
X142250000Y-28403571D01*
X142392857Y-28475000D01*
X142464285Y-28546428D01*
X142535714Y-28689285D01*
X142535714Y-28832142D01*
X142464285Y-29046428D01*
X141607142Y-29903571D01*
X142535714Y-29903571D01*
X127749999Y-32453571D02*
X127749999Y-30953571D01*
X128321428Y-30953571D01*
X128464285Y-31025000D01*
X128535714Y-31096428D01*
X128607142Y-31239285D01*
X128607142Y-31453571D01*
X128535714Y-31596428D01*
X128464285Y-31667857D01*
X128321428Y-31739285D01*
X127749999Y-31739285D01*
X129464285Y-32453571D02*
X129321428Y-32382142D01*
X129249999Y-32310714D01*
X129178571Y-32167857D01*
X129178571Y-31739285D01*
X129249999Y-31596428D01*
X129321428Y-31525000D01*
X129464285Y-31453571D01*
X129678571Y-31453571D01*
X129821428Y-31525000D01*
X129892857Y-31596428D01*
X129964285Y-31739285D01*
X129964285Y-32167857D01*
X129892857Y-32310714D01*
X129821428Y-32382142D01*
X129678571Y-32453571D01*
X129464285Y-32453571D01*
X130464285Y-31453571D02*
X130749999Y-32453571D01*
X131035714Y-31739285D01*
X131321428Y-32453571D01*
X131607142Y-31453571D01*
X132749999Y-32382142D02*
X132607142Y-32453571D01*
X132321428Y-32453571D01*
X132178571Y-32382142D01*
X132107142Y-32239285D01*
X132107142Y-31667857D01*
X132178571Y-31525000D01*
X132321428Y-31453571D01*
X132607142Y-31453571D01*
X132749999Y-31525000D01*
X132821428Y-31667857D01*
X132821428Y-31810714D01*
X132107142Y-31953571D01*
X133464285Y-32453571D02*
X133464285Y-31453571D01*
X133464285Y-31739285D02*
X133535714Y-31596428D01*
X133607142Y-31525000D01*
X133749999Y-31453571D01*
X133892857Y-31453571D01*
X135464285Y-32382142D02*
X135678571Y-32453571D01*
X136035714Y-32453571D01*
X136178571Y-32382142D01*
X136250000Y-32310714D01*
X136321428Y-32167857D01*
X136321428Y-32025000D01*
X136250000Y-31882142D01*
X136178571Y-31810714D01*
X136035714Y-31739285D01*
X135750000Y-31667857D01*
X135607142Y-31596428D01*
X135535714Y-31525000D01*
X135464285Y-31382142D01*
X135464285Y-31239285D01*
X135535714Y-31096428D01*
X135607142Y-31025000D01*
X135750000Y-30953571D01*
X136107142Y-30953571D01*
X136321428Y-31025000D01*
X136821428Y-31453571D02*
X137178571Y-32453571D01*
X137535714Y-31453571D02*
X137178571Y-32453571D01*
X137035714Y-32810714D01*
X136964285Y-32882142D01*
X136821428Y-32953571D01*
X138035714Y-32382142D02*
X138178571Y-32453571D01*
X138464285Y-32453571D01*
X138607142Y-32382142D01*
X138678571Y-32239285D01*
X138678571Y-32167857D01*
X138607142Y-32025000D01*
X138464285Y-31953571D01*
X138250000Y-31953571D01*
X138107142Y-31882142D01*
X138035714Y-31739285D01*
X138035714Y-31667857D01*
X138107142Y-31525000D01*
X138250000Y-31453571D01*
X138464285Y-31453571D01*
X138607142Y-31525000D01*
X139107142Y-31453571D02*
X139678571Y-31453571D01*
X139321428Y-30953571D02*
X139321428Y-32239285D01*
X139392857Y-32382142D01*
X139535714Y-32453571D01*
X139678571Y-32453571D01*
X140750000Y-32382142D02*
X140607142Y-32453571D01*
X140321428Y-32453571D01*
X140178571Y-32382142D01*
X140107142Y-32239285D01*
X140107142Y-31667857D01*
X140178571Y-31525000D01*
X140321428Y-31453571D01*
X140607142Y-31453571D01*
X140750000Y-31525000D01*
X140821428Y-31667857D01*
X140821428Y-31810714D01*
X140107142Y-31953571D01*
X141464285Y-32453571D02*
X141464285Y-31453571D01*
X141464285Y-31596428D02*
X141535714Y-31525000D01*
X141678571Y-31453571D01*
X141892857Y-31453571D01*
X142035714Y-31525000D01*
X142107142Y-31667857D01*
X142107142Y-32453571D01*
X142107142Y-31667857D02*
X142178571Y-31525000D01*
X142321428Y-31453571D01*
X142535714Y-31453571D01*
X142678571Y-31525000D01*
X142750000Y-31667857D01*
X142750000Y-32453571D01*
D11*
X43628200Y-50268800D02*
X36871800Y-50268800D01*
X36871800Y-54231200D02*
X43628200Y-54231200D01*
D12*
X153610000Y-50740000D02*
X154940000Y-50740000D01*
X153610000Y-52070000D02*
X153610000Y-50740000D01*
X156210000Y-50740000D02*
X158810000Y-50740000D01*
X156210000Y-53340000D02*
X156210000Y-50740000D01*
X153610000Y-53340000D02*
X156210000Y-53340000D01*
X158810000Y-50740000D02*
X158810000Y-101660000D01*
X153610000Y-53340000D02*
X153610000Y-101660000D01*
X153610000Y-101660000D02*
X158810000Y-101660000D01*
D13*
G36*
X79256000Y-29681930D02*
G01*
X79880416Y-29670215D01*
X80504833Y-29658500D01*
X80528149Y-28325000D01*
X81034000Y-28325000D01*
X81034000Y-31500000D01*
X80528149Y-31500000D01*
X80504833Y-30166500D01*
X79277166Y-30166500D01*
X79253850Y-31500000D01*
X78748000Y-31500000D01*
X78748000Y-28325000D01*
X79256000Y-28325000D01*
X79256000Y-29681930D01*
G37*
X79256000Y-29681930D02*
X79880416Y-29670215D01*
X80504833Y-29658500D01*
X80528149Y-28325000D01*
X81034000Y-28325000D01*
X81034000Y-31500000D01*
X80528149Y-31500000D01*
X80504833Y-30166500D01*
X79277166Y-30166500D01*
X79253850Y-31500000D01*
X78748000Y-31500000D01*
X78748000Y-28325000D01*
X79256000Y-28325000D01*
X79256000Y-29681930D01*
G36*
X78324666Y-28833000D02*
G01*
X77478000Y-28833000D01*
X77478000Y-31500000D01*
X76970000Y-31500000D01*
X76970000Y-28833000D01*
X76123333Y-28833000D01*
X76123333Y-28325000D01*
X78324666Y-28325000D01*
X78324666Y-28833000D01*
G37*
X78324666Y-28833000D02*
X77478000Y-28833000D01*
X77478000Y-31500000D01*
X76970000Y-31500000D01*
X76970000Y-28833000D01*
X76123333Y-28833000D01*
X76123333Y-28325000D01*
X78324666Y-28325000D01*
X78324666Y-28833000D01*
G36*
X74564106Y-28328859D02*
G01*
X74825260Y-28342213D01*
X75030443Y-28367724D01*
X75193867Y-28408053D01*
X75329740Y-28465865D01*
X75452273Y-28543820D01*
X75469466Y-28556717D01*
X75644032Y-28739280D01*
X75756952Y-28962205D01*
X75809758Y-29209491D01*
X75803982Y-29465133D01*
X75741154Y-29713129D01*
X75622805Y-29937474D01*
X75450467Y-30122167D01*
X75310990Y-30212975D01*
X75228404Y-30263606D01*
X75192079Y-30301563D01*
X75192000Y-30302632D01*
X75212882Y-30346736D01*
X75270477Y-30449876D01*
X75357199Y-30598929D01*
X75465469Y-30780774D01*
X75530666Y-30888714D01*
X75647444Y-31082750D01*
X75746806Y-31250983D01*
X75821174Y-31380332D01*
X75862972Y-31457715D01*
X75869333Y-31473336D01*
X75830591Y-31486523D01*
X75728697Y-31496056D01*
X75585147Y-31499985D01*
X75575258Y-31500000D01*
X75281183Y-31500000D01*
X74951104Y-30949667D01*
X74621025Y-30399333D01*
X74091333Y-30399333D01*
X74091333Y-31500000D01*
X73541000Y-31500000D01*
X73541000Y-28833000D01*
X74091333Y-28833000D01*
X74091333Y-29891333D01*
X74497551Y-29891333D01*
X74717384Y-29886718D01*
X74871738Y-29871164D01*
X74979385Y-29842103D01*
X75026034Y-29819110D01*
X75163140Y-29692430D01*
X75247374Y-29519259D01*
X75272610Y-29323698D01*
X75232724Y-29129847D01*
X75212450Y-29085614D01*
X75136617Y-28977257D01*
X75030883Y-28903053D01*
X74880642Y-28857855D01*
X74671287Y-28836515D01*
X74495602Y-28833000D01*
X74091333Y-28833000D01*
X73541000Y-28833000D01*
X73541000Y-28325000D01*
X74232771Y-28325000D01*
X74564106Y-28328859D01*
G37*
X74564106Y-28328859D02*
X74825260Y-28342213D01*
X75030443Y-28367724D01*
X75193867Y-28408053D01*
X75329740Y-28465865D01*
X75452273Y-28543820D01*
X75469466Y-28556717D01*
X75644032Y-28739280D01*
X75756952Y-28962205D01*
X75809758Y-29209491D01*
X75803982Y-29465133D01*
X75741154Y-29713129D01*
X75622805Y-29937474D01*
X75450467Y-30122167D01*
X75310990Y-30212975D01*
X75228404Y-30263606D01*
X75192079Y-30301563D01*
X75192000Y-30302632D01*
X75212882Y-30346736D01*
X75270477Y-30449876D01*
X75357199Y-30598929D01*
X75465469Y-30780774D01*
X75530666Y-30888714D01*
X75647444Y-31082750D01*
X75746806Y-31250983D01*
X75821174Y-31380332D01*
X75862972Y-31457715D01*
X75869333Y-31473336D01*
X75830591Y-31486523D01*
X75728697Y-31496056D01*
X75585147Y-31499985D01*
X75575258Y-31500000D01*
X75281183Y-31500000D01*
X74951104Y-30949667D01*
X74621025Y-30399333D01*
X74091333Y-30399333D01*
X74091333Y-31500000D01*
X73541000Y-31500000D01*
X73541000Y-28833000D01*
X74091333Y-28833000D01*
X74091333Y-29891333D01*
X74497551Y-29891333D01*
X74717384Y-29886718D01*
X74871738Y-29871164D01*
X74979385Y-29842103D01*
X75026034Y-29819110D01*
X75163140Y-29692430D01*
X75247374Y-29519259D01*
X75272610Y-29323698D01*
X75232724Y-29129847D01*
X75212450Y-29085614D01*
X75136617Y-28977257D01*
X75030883Y-28903053D01*
X74880642Y-28857855D01*
X74671287Y-28836515D01*
X74495602Y-28833000D01*
X74091333Y-28833000D01*
X73541000Y-28833000D01*
X73541000Y-28325000D01*
X74232771Y-28325000D01*
X74564106Y-28328859D01*
G36*
X65616195Y-28568416D02*
G01*
X65603500Y-28811833D01*
X65190750Y-28823949D01*
X64778000Y-28836066D01*
X64778000Y-31500000D01*
X64227666Y-31500000D01*
X64227666Y-28836066D01*
X63814916Y-28823949D01*
X63402166Y-28811833D01*
X63389470Y-28568416D01*
X63376774Y-28325000D01*
X65628891Y-28325000D01*
X65616195Y-28568416D01*
G37*
X65616195Y-28568416D02*
X65603500Y-28811833D01*
X65190750Y-28823949D01*
X64778000Y-28836066D01*
X64778000Y-31500000D01*
X64227666Y-31500000D01*
X64227666Y-28836066D01*
X63814916Y-28823949D01*
X63402166Y-28811833D01*
X63389470Y-28568416D01*
X63376774Y-28325000D01*
X65628891Y-28325000D01*
X65616195Y-28568416D01*
G36*
X62957666Y-31500000D02*
G01*
X62407333Y-31500000D01*
X62407333Y-28325000D01*
X62957666Y-28325000D01*
X62957666Y-31500000D01*
G37*
X62957666Y-31500000D02*
X62407333Y-31500000D01*
X62407333Y-28325000D01*
X62957666Y-28325000D01*
X62957666Y-31500000D01*
G36*
X59952000Y-29679667D02*
G01*
X61179666Y-29679667D01*
X61179666Y-28325000D01*
X61730000Y-28325000D01*
X61730000Y-31500000D01*
X61179666Y-31500000D01*
X61179666Y-30145333D01*
X59952000Y-30145333D01*
X59952000Y-31500000D01*
X59401666Y-31500000D01*
X59401666Y-28325000D01*
X59952000Y-28325000D01*
X59952000Y-29679667D01*
G37*
X59952000Y-29679667D02*
X61179666Y-29679667D01*
X61179666Y-28325000D01*
X61730000Y-28325000D01*
X61730000Y-31500000D01*
X61179666Y-31500000D01*
X61179666Y-30145333D01*
X59952000Y-30145333D01*
X59952000Y-31500000D01*
X59401666Y-31500000D01*
X59401666Y-28325000D01*
X59952000Y-28325000D01*
X59952000Y-29679667D01*
G36*
X68113461Y-28331060D02*
G01*
X68190046Y-28353242D01*
X68223151Y-28397545D01*
X68223626Y-28399083D01*
X68240913Y-28459305D01*
X68277543Y-28588901D01*
X68330096Y-28775694D01*
X68395148Y-29007508D01*
X68469278Y-29272170D01*
X68524051Y-29468000D01*
X68602459Y-29747549D01*
X68674319Y-30001975D01*
X68736197Y-30219261D01*
X68784659Y-30387389D01*
X68816271Y-30494344D01*
X68826517Y-30526333D01*
X68843364Y-30504130D01*
X68878755Y-30409743D01*
X68929678Y-30252868D01*
X68993121Y-30043199D01*
X69066071Y-29790428D01*
X69145517Y-29504251D01*
X69155378Y-29468000D01*
X69459867Y-28346167D01*
X69743009Y-28333662D01*
X69898529Y-28330615D01*
X69982944Y-28340107D01*
X70009168Y-28364210D01*
X70007158Y-28375996D01*
X69992013Y-28426191D01*
X69956580Y-28546707D01*
X69904055Y-28726519D01*
X69837634Y-28954603D01*
X69760514Y-29219936D01*
X69675892Y-29511493D01*
X69586964Y-29818250D01*
X69496927Y-30129183D01*
X69408977Y-30433268D01*
X69326311Y-30719482D01*
X69252126Y-30976800D01*
X69189618Y-31194198D01*
X69159611Y-31298917D01*
X69089992Y-31542333D01*
X68608237Y-31542333D01*
X68292080Y-30443104D01*
X68208109Y-30156531D01*
X68130414Y-29901569D01*
X68062244Y-29688082D01*
X68006851Y-29525932D01*
X67967486Y-29424981D01*
X67947401Y-29395092D01*
X67946847Y-29395831D01*
X67926594Y-29451724D01*
X67885394Y-29582319D01*
X67825252Y-29780821D01*
X67748178Y-30040437D01*
X67656177Y-30354372D01*
X67551257Y-30715833D01*
X67435426Y-31118025D01*
X67353327Y-31404750D01*
X67326738Y-31482473D01*
X67288162Y-31523450D01*
X67213689Y-31539359D01*
X67079407Y-31541881D01*
X67072593Y-31541869D01*
X66831166Y-31541404D01*
X66390816Y-30007285D01*
X66290944Y-29659196D01*
X66197944Y-29334775D01*
X66114525Y-29043490D01*
X66043394Y-28794811D01*
X65987259Y-28598203D01*
X65948828Y-28463135D01*
X65930809Y-28399074D01*
X65930257Y-28397024D01*
X65927673Y-28357064D01*
X65957963Y-28335718D01*
X66037910Y-28329002D01*
X66184293Y-28332936D01*
X66197848Y-28333524D01*
X66485649Y-28346167D01*
X66782965Y-29458774D01*
X66861732Y-29747766D01*
X66934800Y-30004925D01*
X66999123Y-30220392D01*
X67051656Y-30384311D01*
X67089354Y-30486824D01*
X67109171Y-30518074D01*
X67109945Y-30517107D01*
X67130170Y-30460827D01*
X67168766Y-30336557D01*
X67221689Y-30157956D01*
X67284896Y-29938680D01*
X67354342Y-29692387D01*
X67357890Y-29679667D01*
X67432813Y-29411760D01*
X67506335Y-29150503D01*
X67572985Y-28915208D01*
X67627297Y-28725190D01*
X67660545Y-28610750D01*
X67744918Y-28325000D01*
X67973106Y-28325000D01*
X68113461Y-28331060D01*
G37*
X68113461Y-28331060D02*
X68190046Y-28353242D01*
X68223151Y-28397545D01*
X68223626Y-28399083D01*
X68240913Y-28459305D01*
X68277543Y-28588901D01*
X68330096Y-28775694D01*
X68395148Y-29007508D01*
X68469278Y-29272170D01*
X68524051Y-29468000D01*
X68602459Y-29747549D01*
X68674319Y-30001975D01*
X68736197Y-30219261D01*
X68784659Y-30387389D01*
X68816271Y-30494344D01*
X68826517Y-30526333D01*
X68843364Y-30504130D01*
X68878755Y-30409743D01*
X68929678Y-30252868D01*
X68993121Y-30043199D01*
X69066071Y-29790428D01*
X69145517Y-29504251D01*
X69155378Y-29468000D01*
X69459867Y-28346167D01*
X69743009Y-28333662D01*
X69898529Y-28330615D01*
X69982944Y-28340107D01*
X70009168Y-28364210D01*
X70007158Y-28375996D01*
X69992013Y-28426191D01*
X69956580Y-28546707D01*
X69904055Y-28726519D01*
X69837634Y-28954603D01*
X69760514Y-29219936D01*
X69675892Y-29511493D01*
X69586964Y-29818250D01*
X69496927Y-30129183D01*
X69408977Y-30433268D01*
X69326311Y-30719482D01*
X69252126Y-30976800D01*
X69189618Y-31194198D01*
X69159611Y-31298917D01*
X69089992Y-31542333D01*
X68608237Y-31542333D01*
X68292080Y-30443104D01*
X68208109Y-30156531D01*
X68130414Y-29901569D01*
X68062244Y-29688082D01*
X68006851Y-29525932D01*
X67967486Y-29424981D01*
X67947401Y-29395092D01*
X67946847Y-29395831D01*
X67926594Y-29451724D01*
X67885394Y-29582319D01*
X67825252Y-29780821D01*
X67748178Y-30040437D01*
X67656177Y-30354372D01*
X67551257Y-30715833D01*
X67435426Y-31118025D01*
X67353327Y-31404750D01*
X67326738Y-31482473D01*
X67288162Y-31523450D01*
X67213689Y-31539359D01*
X67079407Y-31541881D01*
X67072593Y-31541869D01*
X66831166Y-31541404D01*
X66390816Y-30007285D01*
X66290944Y-29659196D01*
X66197944Y-29334775D01*
X66114525Y-29043490D01*
X66043394Y-28794811D01*
X65987259Y-28598203D01*
X65948828Y-28463135D01*
X65930809Y-28399074D01*
X65930257Y-28397024D01*
X65927673Y-28357064D01*
X65957963Y-28335718D01*
X66037910Y-28329002D01*
X66184293Y-28332936D01*
X66197848Y-28333524D01*
X66485649Y-28346167D01*
X66782965Y-29458774D01*
X66861732Y-29747766D01*
X66934800Y-30004925D01*
X66999123Y-30220392D01*
X67051656Y-30384311D01*
X67089354Y-30486824D01*
X67109171Y-30518074D01*
X67109945Y-30517107D01*
X67130170Y-30460827D01*
X67168766Y-30336557D01*
X67221689Y-30157956D01*
X67284896Y-29938680D01*
X67354342Y-29692387D01*
X67357890Y-29679667D01*
X67432813Y-29411760D01*
X67506335Y-29150503D01*
X67572985Y-28915208D01*
X67627297Y-28725190D01*
X67660545Y-28610750D01*
X67744918Y-28325000D01*
X67973106Y-28325000D01*
X68113461Y-28331060D01*
G36*
X56881415Y-28323679D02*
G01*
X56926657Y-28325000D01*
X57154414Y-28325000D01*
X57237800Y-28610750D01*
X57275906Y-28743694D01*
X57331104Y-28939414D01*
X57398114Y-29179028D01*
X57471653Y-29443653D01*
X57542702Y-29700833D01*
X57612095Y-29949664D01*
X57675285Y-30170373D01*
X57728426Y-30349989D01*
X57767668Y-30475539D01*
X57789165Y-30534053D01*
X57790479Y-30536086D01*
X57807830Y-30505311D01*
X57843418Y-30402832D01*
X57894177Y-30238890D01*
X57957037Y-30023723D01*
X58028931Y-29767572D01*
X58106791Y-29480674D01*
X58107571Y-29477753D01*
X58186074Y-29186534D01*
X58258771Y-28922145D01*
X58322502Y-28695657D01*
X58374108Y-28518144D01*
X58410429Y-28400680D01*
X58428085Y-28354567D01*
X58483190Y-28338499D01*
X58596036Y-28331293D01*
X58713294Y-28333400D01*
X58968822Y-28346167D01*
X58508385Y-29933667D01*
X58406706Y-30284458D01*
X58312785Y-30608910D01*
X58229157Y-30898235D01*
X58158357Y-31143645D01*
X58102918Y-31336353D01*
X58065375Y-31467571D01*
X58048263Y-31528512D01*
X58047474Y-31531750D01*
X58008811Y-31537387D01*
X57909182Y-31541097D01*
X57803583Y-31542010D01*
X57560166Y-31541686D01*
X57244522Y-30441033D01*
X57160771Y-30154314D01*
X57083326Y-29899276D01*
X57015417Y-29685763D01*
X56960277Y-29523618D01*
X56921137Y-29422685D01*
X56901229Y-29392809D01*
X56900653Y-29393607D01*
X56880788Y-29449045D01*
X56841782Y-29572760D01*
X56787613Y-29751577D01*
X56722262Y-29972324D01*
X56649709Y-30221829D01*
X56635169Y-30272333D01*
X56558131Y-30539992D01*
X56484566Y-30794879D01*
X56419351Y-31020153D01*
X56367361Y-31198972D01*
X56333474Y-31314497D01*
X56331815Y-31320083D01*
X56265719Y-31542333D01*
X56023943Y-31541484D01*
X55782166Y-31540634D01*
X55340728Y-29985734D01*
X55241399Y-29636161D01*
X55148892Y-29311178D01*
X55065853Y-29020028D01*
X54994924Y-28771959D01*
X54938751Y-28576217D01*
X54899977Y-28442046D01*
X54881248Y-28378694D01*
X54880327Y-28375861D01*
X54889649Y-28346527D01*
X54952152Y-28332249D01*
X55080795Y-28330994D01*
X55150137Y-28333528D01*
X55438911Y-28346167D01*
X55735881Y-29456957D01*
X55814686Y-29747068D01*
X55887593Y-30006650D01*
X55951558Y-30225560D01*
X56003538Y-30393658D01*
X56040487Y-30500801D01*
X56059362Y-30536849D01*
X56059920Y-30536457D01*
X56078427Y-30488339D01*
X56115643Y-30370345D01*
X56168084Y-30194302D01*
X56232262Y-29972039D01*
X56304691Y-29715384D01*
X56349870Y-29552667D01*
X56445921Y-29202775D01*
X56521931Y-28925695D01*
X56581840Y-28713037D01*
X56629589Y-28556415D01*
X56669119Y-28447439D01*
X56704371Y-28377721D01*
X56739286Y-28338875D01*
X56777804Y-28322511D01*
X56823867Y-28320242D01*
X56881415Y-28323679D01*
G37*
X56881415Y-28323679D02*
X56926657Y-28325000D01*
X57154414Y-28325000D01*
X57237800Y-28610750D01*
X57275906Y-28743694D01*
X57331104Y-28939414D01*
X57398114Y-29179028D01*
X57471653Y-29443653D01*
X57542702Y-29700833D01*
X57612095Y-29949664D01*
X57675285Y-30170373D01*
X57728426Y-30349989D01*
X57767668Y-30475539D01*
X57789165Y-30534053D01*
X57790479Y-30536086D01*
X57807830Y-30505311D01*
X57843418Y-30402832D01*
X57894177Y-30238890D01*
X57957037Y-30023723D01*
X58028931Y-29767572D01*
X58106791Y-29480674D01*
X58107571Y-29477753D01*
X58186074Y-29186534D01*
X58258771Y-28922145D01*
X58322502Y-28695657D01*
X58374108Y-28518144D01*
X58410429Y-28400680D01*
X58428085Y-28354567D01*
X58483190Y-28338499D01*
X58596036Y-28331293D01*
X58713294Y-28333400D01*
X58968822Y-28346167D01*
X58508385Y-29933667D01*
X58406706Y-30284458D01*
X58312785Y-30608910D01*
X58229157Y-30898235D01*
X58158357Y-31143645D01*
X58102918Y-31336353D01*
X58065375Y-31467571D01*
X58048263Y-31528512D01*
X58047474Y-31531750D01*
X58008811Y-31537387D01*
X57909182Y-31541097D01*
X57803583Y-31542010D01*
X57560166Y-31541686D01*
X57244522Y-30441033D01*
X57160771Y-30154314D01*
X57083326Y-29899276D01*
X57015417Y-29685763D01*
X56960277Y-29523618D01*
X56921137Y-29422685D01*
X56901229Y-29392809D01*
X56900653Y-29393607D01*
X56880788Y-29449045D01*
X56841782Y-29572760D01*
X56787613Y-29751577D01*
X56722262Y-29972324D01*
X56649709Y-30221829D01*
X56635169Y-30272333D01*
X56558131Y-30539992D01*
X56484566Y-30794879D01*
X56419351Y-31020153D01*
X56367361Y-31198972D01*
X56333474Y-31314497D01*
X56331815Y-31320083D01*
X56265719Y-31542333D01*
X56023943Y-31541484D01*
X55782166Y-31540634D01*
X55340728Y-29985734D01*
X55241399Y-29636161D01*
X55148892Y-29311178D01*
X55065853Y-29020028D01*
X54994924Y-28771959D01*
X54938751Y-28576217D01*
X54899977Y-28442046D01*
X54881248Y-28378694D01*
X54880327Y-28375861D01*
X54889649Y-28346527D01*
X54952152Y-28332249D01*
X55080795Y-28330994D01*
X55150137Y-28333528D01*
X55438911Y-28346167D01*
X55735881Y-29456957D01*
X55814686Y-29747068D01*
X55887593Y-30006650D01*
X55951558Y-30225560D01*
X56003538Y-30393658D01*
X56040487Y-30500801D01*
X56059362Y-30536849D01*
X56059920Y-30536457D01*
X56078427Y-30488339D01*
X56115643Y-30370345D01*
X56168084Y-30194302D01*
X56232262Y-29972039D01*
X56304691Y-29715384D01*
X56349870Y-29552667D01*
X56445921Y-29202775D01*
X56521931Y-28925695D01*
X56581840Y-28713037D01*
X56629589Y-28556415D01*
X56669119Y-28447439D01*
X56704371Y-28377721D01*
X56739286Y-28338875D01*
X56777804Y-28322511D01*
X56823867Y-28320242D01*
X56881415Y-28323679D01*
G36*
X71832412Y-28298325D02*
G01*
X72110922Y-28370062D01*
X72364490Y-28513397D01*
X72498852Y-28624146D01*
X72730658Y-28892021D01*
X72896244Y-29207469D01*
X72993054Y-29562251D01*
X73018529Y-29948122D01*
X72994273Y-30220909D01*
X72907215Y-30598619D01*
X72767067Y-30911732D01*
X72572013Y-31163026D01*
X72320235Y-31355281D01*
X72216976Y-31409805D01*
X71937974Y-31514924D01*
X71662059Y-31555255D01*
X71356344Y-31535439D01*
X71341939Y-31533296D01*
X71056665Y-31448879D01*
X70793223Y-31292046D01*
X70565496Y-31074672D01*
X70387364Y-30808634D01*
X70320660Y-30659560D01*
X70254676Y-30418733D01*
X70214658Y-30132972D01*
X70209504Y-29998998D01*
X70757044Y-29998998D01*
X70784197Y-30261506D01*
X70844884Y-30481924D01*
X70848032Y-30489473D01*
X70982234Y-30719542D01*
X71162818Y-30902973D01*
X71316748Y-30997094D01*
X71532184Y-31064675D01*
X71735261Y-31057671D01*
X71911166Y-30996655D01*
X72132146Y-30853135D01*
X72294299Y-30652606D01*
X72398718Y-30392922D01*
X72446495Y-30071936D01*
X72450035Y-29937010D01*
X72422717Y-29584068D01*
X72343134Y-29293408D01*
X72212738Y-29066955D01*
X72032980Y-28906631D01*
X71805312Y-28814359D01*
X71584769Y-28790825D01*
X71338551Y-28828271D01*
X71132462Y-28940245D01*
X70966483Y-29126766D01*
X70840593Y-29387851D01*
X70808797Y-29487063D01*
X70764789Y-29729238D01*
X70757044Y-29998998D01*
X70209504Y-29998998D01*
X70203339Y-29838755D01*
X70223450Y-29572566D01*
X70234602Y-29510333D01*
X70345149Y-29146961D01*
X70511313Y-28842820D01*
X70729442Y-28601391D01*
X70995884Y-28426158D01*
X71306987Y-28320604D01*
X71511491Y-28292314D01*
X71832412Y-28298325D01*
G37*
X71832412Y-28298325D02*
X72110922Y-28370062D01*
X72364490Y-28513397D01*
X72498852Y-28624146D01*
X72730658Y-28892021D01*
X72896244Y-29207469D01*
X72993054Y-29562251D01*
X73018529Y-29948122D01*
X72994273Y-30220909D01*
X72907215Y-30598619D01*
X72767067Y-30911732D01*
X72572013Y-31163026D01*
X72320235Y-31355281D01*
X72216976Y-31409805D01*
X71937974Y-31514924D01*
X71662059Y-31555255D01*
X71356344Y-31535439D01*
X71341939Y-31533296D01*
X71056665Y-31448879D01*
X70793223Y-31292046D01*
X70565496Y-31074672D01*
X70387364Y-30808634D01*
X70320660Y-30659560D01*
X70254676Y-30418733D01*
X70214658Y-30132972D01*
X70209504Y-29998998D01*
X70757044Y-29998998D01*
X70784197Y-30261506D01*
X70844884Y-30481924D01*
X70848032Y-30489473D01*
X70982234Y-30719542D01*
X71162818Y-30902973D01*
X71316748Y-30997094D01*
X71532184Y-31064675D01*
X71735261Y-31057671D01*
X71911166Y-30996655D01*
X72132146Y-30853135D01*
X72294299Y-30652606D01*
X72398718Y-30392922D01*
X72446495Y-30071936D01*
X72450035Y-29937010D01*
X72422717Y-29584068D01*
X72343134Y-29293408D01*
X72212738Y-29066955D01*
X72032980Y-28906631D01*
X71805312Y-28814359D01*
X71584769Y-28790825D01*
X71338551Y-28828271D01*
X71132462Y-28940245D01*
X70966483Y-29126766D01*
X70840593Y-29387851D01*
X70808797Y-29487063D01*
X70764789Y-29729238D01*
X70757044Y-29998998D01*
X70209504Y-29998998D01*
X70203339Y-29838755D01*
X70223450Y-29572566D01*
X70234602Y-29510333D01*
X70345149Y-29146961D01*
X70511313Y-28842820D01*
X70729442Y-28601391D01*
X70995884Y-28426158D01*
X71306987Y-28320604D01*
X71511491Y-28292314D01*
X71832412Y-28298325D01*
G36*
X70001187Y-33119250D02*
G01*
X69949295Y-33216764D01*
X69869135Y-33363385D01*
X69774183Y-33534561D01*
X69724934Y-33622466D01*
X69630285Y-33794205D01*
X69570292Y-33919938D01*
X69537066Y-34026863D01*
X69522723Y-34142177D01*
X69519377Y-34293078D01*
X69519333Y-34331550D01*
X69519333Y-34675000D01*
X69223000Y-34675000D01*
X69223000Y-33997101D01*
X68947833Y-33512413D01*
X68845690Y-33330840D01*
X68760715Y-33176636D01*
X68700714Y-33064200D01*
X68673491Y-33007933D01*
X68672666Y-33004696D01*
X68710100Y-32990002D01*
X68802907Y-32982453D01*
X68831416Y-32982168D01*
X68906338Y-32985374D01*
X68962217Y-33003816D01*
X69012575Y-33051575D01*
X69070929Y-33142734D01*
X69150799Y-33291372D01*
X69177550Y-33342694D01*
X69364933Y-33702717D01*
X69482794Y-33500942D01*
X69566310Y-33350935D01*
X69643909Y-33200264D01*
X69672256Y-33140417D01*
X69727350Y-33037688D01*
X69789822Y-32992425D01*
X69893668Y-32981718D01*
X69907849Y-32981667D01*
X70071840Y-32981667D01*
X70001187Y-33119250D01*
G37*
X70001187Y-33119250D02*
X69949295Y-33216764D01*
X69869135Y-33363385D01*
X69774183Y-33534561D01*
X69724934Y-33622466D01*
X69630285Y-33794205D01*
X69570292Y-33919938D01*
X69537066Y-34026863D01*
X69522723Y-34142177D01*
X69519377Y-34293078D01*
X69519333Y-34331550D01*
X69519333Y-34675000D01*
X69223000Y-34675000D01*
X69223000Y-33997101D01*
X68947833Y-33512413D01*
X68845690Y-33330840D01*
X68760715Y-33176636D01*
X68700714Y-33064200D01*
X68673491Y-33007933D01*
X68672666Y-33004696D01*
X68710100Y-32990002D01*
X68802907Y-32982453D01*
X68831416Y-32982168D01*
X68906338Y-32985374D01*
X68962217Y-33003816D01*
X69012575Y-33051575D01*
X69070929Y-33142734D01*
X69150799Y-33291372D01*
X69177550Y-33342694D01*
X69364933Y-33702717D01*
X69482794Y-33500942D01*
X69566310Y-33350935D01*
X69643909Y-33200264D01*
X69672256Y-33140417D01*
X69727350Y-33037688D01*
X69789822Y-32992425D01*
X69893668Y-32981718D01*
X69907849Y-32981667D01*
X70071840Y-32981667D01*
X70001187Y-33119250D01*
G36*
X68418666Y-33106454D02*
G01*
X68413634Y-33179334D01*
X68384356Y-33218049D01*
X68309561Y-33235769D01*
X68196416Y-33244038D01*
X67974166Y-33256833D01*
X67962559Y-33965917D01*
X67950952Y-34675000D01*
X67701047Y-34675000D01*
X67689440Y-33965917D01*
X67677833Y-33256833D01*
X67455583Y-33244038D01*
X67326298Y-33233769D01*
X67260348Y-33213533D01*
X67236458Y-33170162D01*
X67233333Y-33106454D01*
X67233333Y-32981667D01*
X68418666Y-32981667D01*
X68418666Y-33106454D01*
G37*
X68418666Y-33106454D02*
X68413634Y-33179334D01*
X68384356Y-33218049D01*
X68309561Y-33235769D01*
X68196416Y-33244038D01*
X67974166Y-33256833D01*
X67962559Y-33965917D01*
X67950952Y-34675000D01*
X67701047Y-34675000D01*
X67689440Y-33965917D01*
X67677833Y-33256833D01*
X67455583Y-33244038D01*
X67326298Y-33233769D01*
X67260348Y-33213533D01*
X67236458Y-33170162D01*
X67233333Y-33106454D01*
X67233333Y-32981667D01*
X68418666Y-32981667D01*
X68418666Y-33106454D01*
G36*
X66810000Y-34675000D02*
G01*
X66513666Y-34675000D01*
X66513666Y-32981667D01*
X66810000Y-32981667D01*
X66810000Y-34675000D01*
G37*
X66810000Y-34675000D02*
X66513666Y-34675000D01*
X66513666Y-32981667D01*
X66810000Y-32981667D01*
X66810000Y-34675000D01*
G36*
X63695535Y-32988396D02*
G01*
X63950372Y-33004374D01*
X64135711Y-33037754D01*
X64266086Y-33095586D01*
X64356031Y-33184923D01*
X64420080Y-33312815D01*
X64431706Y-33345543D01*
X64460799Y-33553480D01*
X64409630Y-33748915D01*
X64282561Y-33916523D01*
X64264936Y-33931931D01*
X64134401Y-34041769D01*
X64308034Y-34334035D01*
X64389089Y-34473604D01*
X64449937Y-34584342D01*
X64480127Y-34647039D01*
X64481666Y-34653206D01*
X64444503Y-34667443D01*
X64352447Y-34668852D01*
X64325135Y-34666972D01*
X64242045Y-34654043D01*
X64177780Y-34621068D01*
X64114734Y-34551989D01*
X64035304Y-34430754D01*
X63997411Y-34368083D01*
X63907383Y-34223258D01*
X63841375Y-34137591D01*
X63782935Y-34095875D01*
X63715609Y-34082900D01*
X63688276Y-34082333D01*
X63550333Y-34082333D01*
X63550333Y-34675000D01*
X63254000Y-34675000D01*
X63254000Y-33828333D01*
X63550333Y-33828333D01*
X63763924Y-33828333D01*
X63912903Y-33818168D01*
X64014094Y-33779980D01*
X64081424Y-33724424D01*
X64170123Y-33594673D01*
X64180219Y-33472034D01*
X64117730Y-33366415D01*
X63988674Y-33287719D01*
X63799068Y-33245851D01*
X63790199Y-33245074D01*
X63550333Y-33225182D01*
X63550333Y-33828333D01*
X63254000Y-33828333D01*
X63254000Y-32973960D01*
X63695535Y-32988396D01*
G37*
X63695535Y-32988396D02*
X63950372Y-33004374D01*
X64135711Y-33037754D01*
X64266086Y-33095586D01*
X64356031Y-33184923D01*
X64420080Y-33312815D01*
X64431706Y-33345543D01*
X64460799Y-33553480D01*
X64409630Y-33748915D01*
X64282561Y-33916523D01*
X64264936Y-33931931D01*
X64134401Y-34041769D01*
X64308034Y-34334035D01*
X64389089Y-34473604D01*
X64449937Y-34584342D01*
X64480127Y-34647039D01*
X64481666Y-34653206D01*
X64444503Y-34667443D01*
X64352447Y-34668852D01*
X64325135Y-34666972D01*
X64242045Y-34654043D01*
X64177780Y-34621068D01*
X64114734Y-34551989D01*
X64035304Y-34430754D01*
X63997411Y-34368083D01*
X63907383Y-34223258D01*
X63841375Y-34137591D01*
X63782935Y-34095875D01*
X63715609Y-34082900D01*
X63688276Y-34082333D01*
X63550333Y-34082333D01*
X63550333Y-34675000D01*
X63254000Y-34675000D01*
X63254000Y-33828333D01*
X63550333Y-33828333D01*
X63763924Y-33828333D01*
X63912903Y-33818168D01*
X64014094Y-33779980D01*
X64081424Y-33724424D01*
X64170123Y-33594673D01*
X64180219Y-33472034D01*
X64117730Y-33366415D01*
X63988674Y-33287719D01*
X63799068Y-33245851D01*
X63790199Y-33245074D01*
X63550333Y-33225182D01*
X63550333Y-33828333D01*
X63254000Y-33828333D01*
X63254000Y-32973960D01*
X63695535Y-32988396D01*
G36*
X62746000Y-33235667D02*
G01*
X61984000Y-33235667D01*
X61984000Y-33701333D01*
X62661333Y-33701333D01*
X62661333Y-33955333D01*
X61984000Y-33955333D01*
X61984000Y-34421000D01*
X62746000Y-34421000D01*
X62746000Y-34675000D01*
X61687666Y-34675000D01*
X61687666Y-32981667D01*
X62746000Y-32981667D01*
X62746000Y-33235667D01*
G37*
X62746000Y-33235667D02*
X61984000Y-33235667D01*
X61984000Y-33701333D01*
X62661333Y-33701333D01*
X62661333Y-33955333D01*
X61984000Y-33955333D01*
X61984000Y-34421000D01*
X62746000Y-34421000D01*
X62746000Y-34675000D01*
X61687666Y-34675000D01*
X61687666Y-32981667D01*
X62746000Y-32981667D01*
X62746000Y-33235667D01*
G36*
X61176480Y-32991178D02*
G01*
X61221429Y-33014404D01*
X61222000Y-33017650D01*
X61209112Y-33064918D01*
X61173823Y-33177156D01*
X61121193Y-33339246D01*
X61056286Y-33536067D01*
X60984161Y-33752502D01*
X60909881Y-33973431D01*
X60838507Y-34183736D01*
X60775100Y-34368298D01*
X60724722Y-34511997D01*
X60692434Y-34599716D01*
X60691960Y-34600917D01*
X60623958Y-34661133D01*
X60527714Y-34675000D01*
X60392820Y-34675000D01*
X60122879Y-33881250D01*
X60038879Y-33634339D01*
X59963524Y-33413014D01*
X59901320Y-33230488D01*
X59856771Y-33099978D01*
X59834379Y-33034698D01*
X59833330Y-33031692D01*
X59843400Y-32995624D01*
X59917456Y-32986069D01*
X59974223Y-32989358D01*
X60134723Y-33002833D01*
X60333495Y-33616667D01*
X60407673Y-33848137D01*
X60463502Y-34012906D01*
X60507580Y-34109094D01*
X60546504Y-34134822D01*
X60586873Y-34088208D01*
X60635283Y-33967373D01*
X60698332Y-33770438D01*
X60782618Y-33495521D01*
X60784933Y-33488027D01*
X60941381Y-32981667D01*
X61081690Y-32981667D01*
X61176480Y-32991178D01*
G37*
X61176480Y-32991178D02*
X61221429Y-33014404D01*
X61222000Y-33017650D01*
X61209112Y-33064918D01*
X61173823Y-33177156D01*
X61121193Y-33339246D01*
X61056286Y-33536067D01*
X60984161Y-33752502D01*
X60909881Y-33973431D01*
X60838507Y-34183736D01*
X60775100Y-34368298D01*
X60724722Y-34511997D01*
X60692434Y-34599716D01*
X60691960Y-34600917D01*
X60623958Y-34661133D01*
X60527714Y-34675000D01*
X60392820Y-34675000D01*
X60122879Y-33881250D01*
X60038879Y-33634339D01*
X59963524Y-33413014D01*
X59901320Y-33230488D01*
X59856771Y-33099978D01*
X59834379Y-33034698D01*
X59833330Y-33031692D01*
X59843400Y-32995624D01*
X59917456Y-32986069D01*
X59974223Y-32989358D01*
X60134723Y-33002833D01*
X60333495Y-33616667D01*
X60407673Y-33848137D01*
X60463502Y-34012906D01*
X60507580Y-34109094D01*
X60546504Y-34134822D01*
X60586873Y-34088208D01*
X60635283Y-33967373D01*
X60698332Y-33770438D01*
X60782618Y-33495521D01*
X60784933Y-33488027D01*
X60941381Y-32981667D01*
X61081690Y-32981667D01*
X61176480Y-32991178D01*
G36*
X59359333Y-34675000D02*
G01*
X59105333Y-34675000D01*
X59105333Y-32981667D01*
X59359333Y-32981667D01*
X59359333Y-34675000D01*
G37*
X59359333Y-34675000D02*
X59105333Y-34675000D01*
X59105333Y-32981667D01*
X59359333Y-32981667D01*
X59359333Y-34675000D01*
G36*
X57414975Y-32988258D02*
G01*
X57465727Y-33014971D01*
X57525231Y-33072209D01*
X57602725Y-33170376D01*
X57707448Y-33319878D01*
X57839986Y-33518050D01*
X58195166Y-34054434D01*
X58207014Y-33518050D01*
X58218862Y-32981667D01*
X58512666Y-32981667D01*
X58512666Y-34675000D01*
X58385845Y-34675000D01*
X58334059Y-34669482D01*
X58284280Y-34646098D01*
X58227354Y-34594606D01*
X58154125Y-34504761D01*
X58055437Y-34366322D01*
X57922134Y-34169043D01*
X57888429Y-34118494D01*
X57517833Y-33561988D01*
X57494209Y-34675000D01*
X57242666Y-34675000D01*
X57242666Y-32981667D01*
X57363736Y-32981667D01*
X57414975Y-32988258D01*
G37*
X57414975Y-32988258D02*
X57465727Y-33014971D01*
X57525231Y-33072209D01*
X57602725Y-33170376D01*
X57707448Y-33319878D01*
X57839986Y-33518050D01*
X58195166Y-34054434D01*
X58207014Y-33518050D01*
X58218862Y-32981667D01*
X58512666Y-32981667D01*
X58512666Y-34675000D01*
X58385845Y-34675000D01*
X58334059Y-34669482D01*
X58284280Y-34646098D01*
X58227354Y-34594606D01*
X58154125Y-34504761D01*
X58055437Y-34366322D01*
X57922134Y-34169043D01*
X57888429Y-34118494D01*
X57517833Y-33561988D01*
X57494209Y-34675000D01*
X57242666Y-34675000D01*
X57242666Y-32981667D01*
X57363736Y-32981667D01*
X57414975Y-32988258D01*
G36*
X65596332Y-32995690D02*
G01*
X65750388Y-33032412D01*
X65876093Y-33083814D01*
X65951392Y-33141876D01*
X65963333Y-33173446D01*
X65934602Y-33236686D01*
X65881258Y-33296821D01*
X65814362Y-33345707D01*
X65755984Y-33337615D01*
X65702505Y-33303382D01*
X65586518Y-33254308D01*
X65447817Y-33237822D01*
X65320832Y-33254281D01*
X65244122Y-33298617D01*
X65204939Y-33400920D01*
X65242621Y-33508071D01*
X65350983Y-33608446D01*
X65433293Y-33654144D01*
X65550086Y-33706076D01*
X65634889Y-33738381D01*
X65657554Y-33743667D01*
X65708250Y-33768670D01*
X65794920Y-33831372D01*
X65830210Y-33860083D01*
X65941756Y-34001121D01*
X65994873Y-34172519D01*
X65983113Y-34345372D01*
X65954408Y-34416919D01*
X65830428Y-34563919D01*
X65654646Y-34660711D01*
X65448810Y-34699029D01*
X65264833Y-34679039D01*
X65137144Y-34636779D01*
X65011327Y-34579742D01*
X64912049Y-34520938D01*
X64863978Y-34473377D01*
X64862666Y-34466936D01*
X64886964Y-34410570D01*
X64941333Y-34333231D01*
X65019999Y-34236082D01*
X65137542Y-34328541D01*
X65258042Y-34389959D01*
X65403908Y-34419621D01*
X65544144Y-34415690D01*
X65647757Y-34376327D01*
X65665066Y-34359830D01*
X65713424Y-34266549D01*
X65694231Y-34176789D01*
X65602896Y-34084318D01*
X65434826Y-33982903D01*
X65359728Y-33945442D01*
X65141380Y-33824060D01*
X64999300Y-33702197D01*
X64925701Y-33569233D01*
X64912791Y-33414551D01*
X64922011Y-33348761D01*
X64993079Y-33175129D01*
X65127218Y-33053979D01*
X65317376Y-32990350D01*
X65435978Y-32981667D01*
X65596332Y-32995690D01*
G37*
X65596332Y-32995690D02*
X65750388Y-33032412D01*
X65876093Y-33083814D01*
X65951392Y-33141876D01*
X65963333Y-33173446D01*
X65934602Y-33236686D01*
X65881258Y-33296821D01*
X65814362Y-33345707D01*
X65755984Y-33337615D01*
X65702505Y-33303382D01*
X65586518Y-33254308D01*
X65447817Y-33237822D01*
X65320832Y-33254281D01*
X65244122Y-33298617D01*
X65204939Y-33400920D01*
X65242621Y-33508071D01*
X65350983Y-33608446D01*
X65433293Y-33654144D01*
X65550086Y-33706076D01*
X65634889Y-33738381D01*
X65657554Y-33743667D01*
X65708250Y-33768670D01*
X65794920Y-33831372D01*
X65830210Y-33860083D01*
X65941756Y-34001121D01*
X65994873Y-34172519D01*
X65983113Y-34345372D01*
X65954408Y-34416919D01*
X65830428Y-34563919D01*
X65654646Y-34660711D01*
X65448810Y-34699029D01*
X65264833Y-34679039D01*
X65137144Y-34636779D01*
X65011327Y-34579742D01*
X64912049Y-34520938D01*
X64863978Y-34473377D01*
X64862666Y-34466936D01*
X64886964Y-34410570D01*
X64941333Y-34333231D01*
X65019999Y-34236082D01*
X65137542Y-34328541D01*
X65258042Y-34389959D01*
X65403908Y-34419621D01*
X65544144Y-34415690D01*
X65647757Y-34376327D01*
X65665066Y-34359830D01*
X65713424Y-34266549D01*
X65694231Y-34176789D01*
X65602896Y-34084318D01*
X65434826Y-33982903D01*
X65359728Y-33945442D01*
X65141380Y-33824060D01*
X64999300Y-33702197D01*
X64925701Y-33569233D01*
X64912791Y-33414551D01*
X64922011Y-33348761D01*
X64993079Y-33175129D01*
X65127218Y-33053979D01*
X65317376Y-32990350D01*
X65435978Y-32981667D01*
X65596332Y-32995690D01*
G36*
X55683866Y-33612356D02*
G01*
X55690474Y-33862199D01*
X55699027Y-34041760D01*
X55711409Y-34165420D01*
X55729503Y-34247565D01*
X55755195Y-34302577D01*
X55778144Y-34332022D01*
X55892947Y-34402446D01*
X56040455Y-34422356D01*
X56185199Y-34391441D01*
X56269000Y-34336333D01*
X56301876Y-34296700D01*
X56324991Y-34244856D01*
X56340036Y-34166424D01*
X56348702Y-34047029D01*
X56352681Y-33872292D01*
X56353665Y-33627836D01*
X56353666Y-33616667D01*
X56353666Y-32981667D01*
X56650000Y-32981667D01*
X56649934Y-33606083D01*
X56646098Y-33900501D01*
X56632305Y-34124309D01*
X56605016Y-34291321D01*
X56560694Y-34415349D01*
X56495801Y-34510207D01*
X56406800Y-34589708D01*
X56396000Y-34597664D01*
X56221782Y-34677005D01*
X56014179Y-34700372D01*
X55804951Y-34665863D01*
X55732057Y-34637382D01*
X55620722Y-34576679D01*
X55537266Y-34504416D01*
X55477316Y-34407769D01*
X55436503Y-34273916D01*
X55410453Y-34090035D01*
X55394798Y-33843303D01*
X55387706Y-33627250D01*
X55370953Y-32981667D01*
X55670233Y-32981667D01*
X55683866Y-33612356D01*
G37*
X55683866Y-33612356D02*
X55690474Y-33862199D01*
X55699027Y-34041760D01*
X55711409Y-34165420D01*
X55729503Y-34247565D01*
X55755195Y-34302577D01*
X55778144Y-34332022D01*
X55892947Y-34402446D01*
X56040455Y-34422356D01*
X56185199Y-34391441D01*
X56269000Y-34336333D01*
X56301876Y-34296700D01*
X56324991Y-34244856D01*
X56340036Y-34166424D01*
X56348702Y-34047029D01*
X56352681Y-33872292D01*
X56353665Y-33627836D01*
X56353666Y-33616667D01*
X56353666Y-32981667D01*
X56650000Y-32981667D01*
X56649934Y-33606083D01*
X56646098Y-33900501D01*
X56632305Y-34124309D01*
X56605016Y-34291321D01*
X56560694Y-34415349D01*
X56495801Y-34510207D01*
X56406800Y-34589708D01*
X56396000Y-34597664D01*
X56221782Y-34677005D01*
X56014179Y-34700372D01*
X55804951Y-34665863D01*
X55732057Y-34637382D01*
X55620722Y-34576679D01*
X55537266Y-34504416D01*
X55477316Y-34407769D01*
X55436503Y-34273916D01*
X55410453Y-34090035D01*
X55394798Y-33843303D01*
X55387706Y-33627250D01*
X55370953Y-32981667D01*
X55670233Y-32981667D01*
X55683866Y-33612356D01*
G36*
X48924437Y-28283219D02*
G01*
X49707874Y-29066656D01*
X49697020Y-32252263D01*
X49686166Y-35437869D01*
X48141000Y-33890997D01*
X48141000Y-27499783D01*
X48924437Y-28283219D01*
G37*
X48924437Y-28283219D02*
X49707874Y-29066656D01*
X49697020Y-32252263D01*
X49686166Y-35437869D01*
X48141000Y-33890997D01*
X48141000Y-27499783D01*
X48924437Y-28283219D01*
G36*
X45750593Y-28292760D02*
G01*
X46532333Y-29086020D01*
X46532333Y-32261510D01*
X46532190Y-32771683D01*
X46531776Y-33256498D01*
X46531114Y-33709410D01*
X46530226Y-34123875D01*
X46529135Y-34493350D01*
X46527865Y-34811290D01*
X46526436Y-35071153D01*
X46524874Y-35266393D01*
X46523199Y-35390467D01*
X46521434Y-35436832D01*
X46521320Y-35437000D01*
X46489705Y-35408320D01*
X46406366Y-35327557D01*
X46279317Y-35202620D01*
X46116575Y-35041422D01*
X45926156Y-34851875D01*
X45738154Y-34663999D01*
X44966000Y-33890997D01*
X44967426Y-30695249D01*
X44968853Y-27499501D01*
X45750593Y-28292760D01*
G37*
X45750593Y-28292760D02*
X46532333Y-29086020D01*
X46532333Y-32261510D01*
X46532190Y-32771683D01*
X46531776Y-33256498D01*
X46531114Y-33709410D01*
X46530226Y-34123875D01*
X46529135Y-34493350D01*
X46527865Y-34811290D01*
X46526436Y-35071153D01*
X46524874Y-35266393D01*
X46523199Y-35390467D01*
X46521434Y-35436832D01*
X46521320Y-35437000D01*
X46489705Y-35408320D01*
X46406366Y-35327557D01*
X46279317Y-35202620D01*
X46116575Y-35041422D01*
X45926156Y-34851875D01*
X45738154Y-34663999D01*
X44966000Y-33890997D01*
X44967426Y-30695249D01*
X44968853Y-27499501D01*
X45750593Y-28292760D01*
G36*
X52898378Y-27604240D02*
G01*
X52903171Y-27723589D01*
X52907647Y-27914490D01*
X52911742Y-28170383D01*
X52915391Y-28484713D01*
X52918528Y-28850921D01*
X52921090Y-29262450D01*
X52923009Y-29712741D01*
X52924223Y-30195238D01*
X52924665Y-30703383D01*
X52924666Y-30725180D01*
X52924666Y-33887360D01*
X52120633Y-34693930D01*
X51316599Y-35500500D01*
X51316299Y-32303904D01*
X51316000Y-29107308D01*
X52089001Y-28335154D01*
X52298722Y-28126827D01*
X52489242Y-27939795D01*
X52652292Y-27781996D01*
X52779604Y-27661366D01*
X52862909Y-27585845D01*
X52893334Y-27563000D01*
X52898378Y-27604240D01*
G37*
X52898378Y-27604240D02*
X52903171Y-27723589D01*
X52907647Y-27914490D01*
X52911742Y-28170383D01*
X52915391Y-28484713D01*
X52918528Y-28850921D01*
X52921090Y-29262450D01*
X52923009Y-29712741D01*
X52924223Y-30195238D01*
X52924665Y-30703383D01*
X52924666Y-30725180D01*
X52924666Y-33887360D01*
X52120633Y-34693930D01*
X51316599Y-35500500D01*
X51316299Y-32303904D01*
X51316000Y-29107308D01*
X52089001Y-28335154D01*
X52298722Y-28126827D01*
X52489242Y-27939795D01*
X52652292Y-27781996D01*
X52779604Y-27661366D01*
X52862909Y-27585845D01*
X52893334Y-27563000D01*
X52898378Y-27604240D01*
D12*
X39305000Y-77500000D02*
G75*
G03*
X39305000Y-77500000I-1555000J0D01*
G01*
X35650000Y-71840000D02*
X35650000Y-79660000D01*
X41210000Y-71840000D02*
X41210000Y-79660000D01*
X34090000Y-71840000D02*
X34090000Y-79660000D01*
X41210000Y-71840000D02*
X34090000Y-71840000D01*
X41210000Y-79660000D02*
X34090000Y-79660000D01*
X35590000Y-71600000D02*
X33850000Y-71600000D01*
X33850000Y-71600000D02*
X33850000Y-73100000D01*
X36318615Y-74607587D02*
G75*
G02*
X36195000Y-74000000I1431385J607587D01*
G01*
X38357742Y-75432109D02*
G75*
G02*
X37142000Y-75432000I-607742J1432109D01*
G01*
X39182109Y-73392258D02*
G75*
G02*
X39182000Y-74608000I-1432109J-607742D01*
G01*
X37142258Y-72567891D02*
G75*
G02*
X38358000Y-72568000I607742J-1432109D01*
G01*
X36194508Y-74027011D02*
G75*
G02*
X36318000Y-73392000I1555492J27011D01*
G01*
X33850000Y-57350000D02*
X33850000Y-58850000D01*
X35590000Y-57350000D02*
X33850000Y-57350000D01*
X41210000Y-65410000D02*
X34090000Y-65410000D01*
X41210000Y-57590000D02*
X34090000Y-57590000D01*
X34090000Y-57590000D02*
X34090000Y-65410000D01*
X41210000Y-57590000D02*
X41210000Y-65410000D01*
X35650000Y-57590000D02*
X35650000Y-65410000D01*
X39305000Y-63250000D02*
G75*
G03*
X39305000Y-63250000I-1555000J0D01*
G01*
X36194508Y-59777011D02*
G75*
G02*
X36318000Y-59142000I1555492J27011D01*
G01*
X37142258Y-58317891D02*
G75*
G02*
X38358000Y-58318000I607742J-1432109D01*
G01*
X39182109Y-59142258D02*
G75*
G02*
X39182000Y-60358000I-1432109J-607742D01*
G01*
X38357742Y-61182109D02*
G75*
G02*
X37142000Y-61182000I-607742J1432109D01*
G01*
X36318615Y-60357587D02*
G75*
G02*
X36195000Y-59750000I1431385J607587D01*
G01*
D11*
X55163200Y-54176400D02*
X59836800Y-54176400D01*
X59836800Y-50823600D02*
X55163200Y-50823600D01*
D12*
X58461252Y-44660000D02*
X57038748Y-44660000D01*
X58461252Y-42840000D02*
X57038748Y-42840000D01*
X49961252Y-55090000D02*
X48538748Y-55090000D01*
X49961252Y-56910000D02*
X48538748Y-56910000D01*
X144420000Y-93421252D02*
X144420000Y-91998748D01*
X142600000Y-93421252D02*
X142600000Y-91998748D01*
X143150000Y-56438748D02*
X143150000Y-57861252D01*
X141330000Y-56438748D02*
X141330000Y-57861252D01*
X55028752Y-86000000D02*
X53606248Y-86000000D01*
X55028752Y-84180000D02*
X53606248Y-84180000D01*
X58288748Y-69910000D02*
X59711252Y-69910000D01*
X58288748Y-68090000D02*
X59711252Y-68090000D01*
X53657500Y-79121000D02*
X55562500Y-79121000D01*
X55562500Y-75819000D02*
X53657500Y-75819000D01*
D14*
X149098000Y-46482000D02*
X154940000Y-46482000D01*
X149098000Y-38862000D02*
X149098000Y-46482000D01*
X160782000Y-38862000D02*
X149098000Y-38862000D01*
X160782000Y-46482000D02*
X160782000Y-38862000D01*
X154940000Y-46482000D02*
X160782000Y-46482000D01*
X154000000Y-105968000D02*
X148158000Y-105968000D01*
X148158000Y-105968000D02*
X148158000Y-113588000D01*
X148158000Y-113588000D02*
X159842000Y-113588000D01*
X159842000Y-113588000D02*
X159842000Y-105968000D01*
X159842000Y-105968000D02*
X154000000Y-105968000D01*
D12*
X61660000Y-59522936D02*
X61660000Y-60977064D01*
X59840000Y-59522936D02*
X59840000Y-60977064D01*
X53590000Y-59522936D02*
X53590000Y-60977064D01*
X55410000Y-59522936D02*
X55410000Y-60977064D01*
X47890000Y-43722936D02*
X47890000Y-46777064D01*
X50610000Y-43722936D02*
X50610000Y-46777064D01*
X75160000Y-55727064D02*
X75160000Y-54272936D01*
X73340000Y-55727064D02*
X73340000Y-54272936D01*
X64410000Y-83092936D02*
X64410000Y-84547064D01*
X62590000Y-83092936D02*
X62590000Y-84547064D01*
X44992936Y-75840000D02*
X46447064Y-75840000D01*
X44992936Y-74020000D02*
X46447064Y-74020000D01*
X95961252Y-67670000D02*
X94538748Y-67670000D01*
X95961252Y-69490000D02*
X94538748Y-69490000D01*
X117398748Y-58780000D02*
X118821252Y-58780000D01*
X117398748Y-60600000D02*
X118821252Y-60600000D01*
X104851252Y-58780000D02*
X103428748Y-58780000D01*
X104851252Y-60600000D02*
X103428748Y-60600000D01*
X92151252Y-42820000D02*
X90728748Y-42820000D01*
X92151252Y-41000000D02*
X90728748Y-41000000D01*
X109969572Y-44465535D02*
G75*
G02*
X110236000Y-49276000I-2019572J-2524465D01*
G01*
X105649932Y-49290068D02*
G75*
G02*
X105918000Y-44450000I2300068J2300068D01*
G01*
X106680000Y-43942000D02*
G75*
G02*
X109220000Y-43942000I1270000J-508000D01*
G01*
X109220000Y-50038000D02*
G75*
G02*
X106680000Y-50038000I-1270000J508000D01*
G01*
X85537064Y-52430000D02*
X84082936Y-52430000D01*
X85537064Y-54250000D02*
X84082936Y-54250000D01*
X95977064Y-64410000D02*
X94522936Y-64410000D01*
X95977064Y-62590000D02*
X94522936Y-62590000D01*
X96253300Y-53035200D02*
X94246700Y-53035200D01*
X94246700Y-56184800D02*
X96253300Y-56184800D01*
X84823300Y-118948200D02*
X105676700Y-118948200D01*
X105676700Y-118948200D02*
X105676700Y-109651800D01*
X105676700Y-109651800D02*
X84823300Y-109651800D01*
X84823300Y-109651800D02*
X84823300Y-118948200D01*
X84569300Y-115570000D02*
G75*
G03*
X84569300Y-115570000I-381000J0D01*
G01*
D15*
X93000000Y-47810000D02*
X97500000Y-47810000D01*
X93000000Y-51250000D02*
X97500000Y-51250000D01*
D12*
X113757064Y-79650000D02*
X112302936Y-79650000D01*
X113757064Y-77830000D02*
X112302936Y-77830000D01*
X113757064Y-72750000D02*
X112302936Y-72750000D01*
X113757064Y-74570000D02*
X112302936Y-74570000D01*
X113757064Y-69490000D02*
X112302936Y-69490000D01*
X113757064Y-67670000D02*
X112302936Y-67670000D01*
X52612936Y-105050000D02*
X54067064Y-105050000D01*
X52612936Y-103230000D02*
X54067064Y-103230000D01*
X50072936Y-90530000D02*
X51527064Y-90530000D01*
X50072936Y-92350000D02*
X51527064Y-92350000D01*
D14*
X39916666Y-49178571D02*
X39583333Y-49178571D01*
X39583333Y-49702380D02*
X39583333Y-48702380D01*
X40059523Y-48702380D01*
X40964285Y-49702380D02*
X40392857Y-49702380D01*
X40678571Y-49702380D02*
X40678571Y-48702380D01*
X40583333Y-48845238D01*
X40488095Y-48940476D01*
X40392857Y-48988095D01*
X155876666Y-49192380D02*
X155876666Y-49906666D01*
X155829047Y-50049523D01*
X155733809Y-50144761D01*
X155590952Y-50192380D01*
X155495714Y-50192380D01*
X156876666Y-50192380D02*
X156305238Y-50192380D01*
X156590952Y-50192380D02*
X156590952Y-49192380D01*
X156495714Y-49335238D01*
X156400476Y-49430476D01*
X156305238Y-49478095D01*
X41952380Y-76083333D02*
X42666666Y-76083333D01*
X42809523Y-76130952D01*
X42904761Y-76226190D01*
X42952380Y-76369047D01*
X42952380Y-76464285D01*
X42047619Y-75654761D02*
X42000000Y-75607142D01*
X41952380Y-75511904D01*
X41952380Y-75273809D01*
X42000000Y-75178571D01*
X42047619Y-75130952D01*
X42142857Y-75083333D01*
X42238095Y-75083333D01*
X42380952Y-75130952D01*
X42952380Y-75702380D01*
X42952380Y-75083333D01*
X33107142Y-80011904D02*
X33154761Y-80059523D01*
X33202380Y-80202380D01*
X33202380Y-80297619D01*
X33154761Y-80440476D01*
X33059523Y-80535714D01*
X32964285Y-80583333D01*
X32773809Y-80630952D01*
X32630952Y-80630952D01*
X32440476Y-80583333D01*
X32345238Y-80535714D01*
X32250000Y-80440476D01*
X32202380Y-80297619D01*
X32202380Y-80202380D01*
X32250000Y-80059523D01*
X32297619Y-80011904D01*
X33202380Y-79583333D02*
X32202380Y-79583333D01*
X33202380Y-79154761D02*
X32678571Y-79154761D01*
X32583333Y-79202380D01*
X32535714Y-79297619D01*
X32535714Y-79440476D01*
X32583333Y-79535714D01*
X32630952Y-79583333D01*
X33202380Y-78250000D02*
X32678571Y-78250000D01*
X32583333Y-78297619D01*
X32535714Y-78392857D01*
X32535714Y-78583333D01*
X32583333Y-78678571D01*
X33154761Y-78250000D02*
X33202380Y-78345238D01*
X33202380Y-78583333D01*
X33154761Y-78678571D01*
X33059523Y-78726190D01*
X32964285Y-78726190D01*
X32869047Y-78678571D01*
X32821428Y-78583333D01*
X32821428Y-78345238D01*
X32773809Y-78250000D01*
X33202380Y-77773809D02*
X32535714Y-77773809D01*
X32726190Y-77773809D02*
X32630952Y-77726190D01*
X32583333Y-77678571D01*
X32535714Y-77583333D01*
X32535714Y-77488095D01*
X32535714Y-76726190D02*
X33345238Y-76726190D01*
X33440476Y-76773809D01*
X33488095Y-76821428D01*
X33535714Y-76916666D01*
X33535714Y-77059523D01*
X33488095Y-77154761D01*
X33154761Y-76726190D02*
X33202380Y-76821428D01*
X33202380Y-77011904D01*
X33154761Y-77107142D01*
X33107142Y-77154761D01*
X33011904Y-77202380D01*
X32726190Y-77202380D01*
X32630952Y-77154761D01*
X32583333Y-77107142D01*
X32535714Y-77011904D01*
X32535714Y-76821428D01*
X32583333Y-76726190D01*
X33154761Y-75869047D02*
X33202380Y-75964285D01*
X33202380Y-76154761D01*
X33154761Y-76250000D01*
X33059523Y-76297619D01*
X32678571Y-76297619D01*
X32583333Y-76250000D01*
X32535714Y-76154761D01*
X32535714Y-75964285D01*
X32583333Y-75869047D01*
X32678571Y-75821428D01*
X32773809Y-75821428D01*
X32869047Y-76297619D01*
X33107142Y-74059523D02*
X33154761Y-74107142D01*
X33202380Y-74250000D01*
X33202380Y-74345238D01*
X33154761Y-74488095D01*
X33059523Y-74583333D01*
X32964285Y-74630952D01*
X32773809Y-74678571D01*
X32630952Y-74678571D01*
X32440476Y-74630952D01*
X32345238Y-74583333D01*
X32250000Y-74488095D01*
X32202380Y-74345238D01*
X32202380Y-74250000D01*
X32250000Y-74107142D01*
X32297619Y-74059523D01*
X33202380Y-73202380D02*
X32678571Y-73202380D01*
X32583333Y-73250000D01*
X32535714Y-73345238D01*
X32535714Y-73535714D01*
X32583333Y-73630952D01*
X33154761Y-73202380D02*
X33202380Y-73297619D01*
X33202380Y-73535714D01*
X33154761Y-73630952D01*
X33059523Y-73678571D01*
X32964285Y-73678571D01*
X32869047Y-73630952D01*
X32821428Y-73535714D01*
X32821428Y-73297619D01*
X32773809Y-73202380D01*
X33202380Y-72726190D02*
X32202380Y-72726190D01*
X32583333Y-72726190D02*
X32535714Y-72630952D01*
X32535714Y-72440476D01*
X32583333Y-72345238D01*
X32630952Y-72297619D01*
X32726190Y-72250000D01*
X33011904Y-72250000D01*
X33107142Y-72297619D01*
X33154761Y-72345238D01*
X33202380Y-72440476D01*
X33202380Y-72630952D01*
X33154761Y-72726190D01*
X33202380Y-71678571D02*
X33154761Y-71773809D01*
X33059523Y-71821428D01*
X32202380Y-71821428D01*
X33154761Y-70916666D02*
X33202380Y-71011904D01*
X33202380Y-71202380D01*
X33154761Y-71297619D01*
X33059523Y-71345238D01*
X32678571Y-71345238D01*
X32583333Y-71297619D01*
X32535714Y-71202380D01*
X32535714Y-71011904D01*
X32583333Y-70916666D01*
X32678571Y-70869047D01*
X32773809Y-70869047D01*
X32869047Y-71345238D01*
X41952380Y-61833333D02*
X42666666Y-61833333D01*
X42809523Y-61880952D01*
X42904761Y-61976190D01*
X42952380Y-62119047D01*
X42952380Y-62214285D01*
X41952380Y-61452380D02*
X41952380Y-60833333D01*
X42333333Y-61166666D01*
X42333333Y-61023809D01*
X42380952Y-60928571D01*
X42428571Y-60880952D01*
X42523809Y-60833333D01*
X42761904Y-60833333D01*
X42857142Y-60880952D01*
X42904761Y-60928571D01*
X42952380Y-61023809D01*
X42952380Y-61309523D01*
X42904761Y-61404761D01*
X42857142Y-61452380D01*
X32678571Y-65738095D02*
X32726190Y-65595238D01*
X32773809Y-65547619D01*
X32869047Y-65500000D01*
X33011904Y-65500000D01*
X33107142Y-65547619D01*
X33154761Y-65595238D01*
X33202380Y-65690476D01*
X33202380Y-66071428D01*
X32202380Y-66071428D01*
X32202380Y-65738095D01*
X32250000Y-65642857D01*
X32297619Y-65595238D01*
X32392857Y-65547619D01*
X32488095Y-65547619D01*
X32583333Y-65595238D01*
X32630952Y-65642857D01*
X32678571Y-65738095D01*
X32678571Y-66071428D01*
X33202380Y-64642857D02*
X32678571Y-64642857D01*
X32583333Y-64690476D01*
X32535714Y-64785714D01*
X32535714Y-64976190D01*
X32583333Y-65071428D01*
X33154761Y-64642857D02*
X33202380Y-64738095D01*
X33202380Y-64976190D01*
X33154761Y-65071428D01*
X33059523Y-65119047D01*
X32964285Y-65119047D01*
X32869047Y-65071428D01*
X32821428Y-64976190D01*
X32821428Y-64738095D01*
X32773809Y-64642857D01*
X32535714Y-64309523D02*
X32535714Y-63928571D01*
X32202380Y-64166666D02*
X33059523Y-64166666D01*
X33154761Y-64119047D01*
X33202380Y-64023809D01*
X33202380Y-63928571D01*
X32535714Y-63738095D02*
X32535714Y-63357142D01*
X32202380Y-63595238D02*
X33059523Y-63595238D01*
X33154761Y-63547619D01*
X33202380Y-63452380D01*
X33202380Y-63357142D01*
X33154761Y-62642857D02*
X33202380Y-62738095D01*
X33202380Y-62928571D01*
X33154761Y-63023809D01*
X33059523Y-63071428D01*
X32678571Y-63071428D01*
X32583333Y-63023809D01*
X32535714Y-62928571D01*
X32535714Y-62738095D01*
X32583333Y-62642857D01*
X32678571Y-62595238D01*
X32773809Y-62595238D01*
X32869047Y-63071428D01*
X33202380Y-62166666D02*
X32535714Y-62166666D01*
X32726190Y-62166666D02*
X32630952Y-62119047D01*
X32583333Y-62071428D01*
X32535714Y-61976190D01*
X32535714Y-61880952D01*
X32535714Y-61642857D02*
X33202380Y-61404761D01*
X32535714Y-61166666D02*
X33202380Y-61404761D01*
X33440476Y-61500000D01*
X33488095Y-61547619D01*
X33535714Y-61642857D01*
X33202380Y-60023809D02*
X32202380Y-60023809D01*
X32202380Y-59642857D01*
X32250000Y-59547619D01*
X32297619Y-59500000D01*
X32392857Y-59452380D01*
X32535714Y-59452380D01*
X32630952Y-59500000D01*
X32678571Y-59547619D01*
X32726190Y-59642857D01*
X32726190Y-60023809D01*
X33202380Y-58595238D02*
X32678571Y-58595238D01*
X32583333Y-58642857D01*
X32535714Y-58738095D01*
X32535714Y-58928571D01*
X32583333Y-59023809D01*
X33154761Y-58595238D02*
X33202380Y-58690476D01*
X33202380Y-58928571D01*
X33154761Y-59023809D01*
X33059523Y-59071428D01*
X32964285Y-59071428D01*
X32869047Y-59023809D01*
X32821428Y-58928571D01*
X32821428Y-58690476D01*
X32773809Y-58595238D01*
X33154761Y-57690476D02*
X33202380Y-57785714D01*
X33202380Y-57976190D01*
X33154761Y-58071428D01*
X33107142Y-58119047D01*
X33011904Y-58166666D01*
X32726190Y-58166666D01*
X32630952Y-58119047D01*
X32583333Y-58071428D01*
X32535714Y-57976190D01*
X32535714Y-57785714D01*
X32583333Y-57690476D01*
X33202380Y-57261904D02*
X32202380Y-57261904D01*
X32821428Y-57166666D02*
X33202380Y-56880952D01*
X32535714Y-56880952D02*
X32916666Y-57261904D01*
X56988095Y-54952380D02*
X56988095Y-55761904D01*
X57035714Y-55857142D01*
X57083333Y-55904761D01*
X57178571Y-55952380D01*
X57369047Y-55952380D01*
X57464285Y-55904761D01*
X57511904Y-55857142D01*
X57559523Y-55761904D01*
X57559523Y-54952380D01*
X58559523Y-55952380D02*
X57988095Y-55952380D01*
X58273809Y-55952380D02*
X58273809Y-54952380D01*
X58178571Y-55095238D01*
X58083333Y-55190476D01*
X57988095Y-55238095D01*
X55644741Y-50162779D02*
X55644741Y-49162779D01*
X55644741Y-50115160D02*
X55549503Y-50162779D01*
X55359027Y-50162779D01*
X55263789Y-50115160D01*
X55216170Y-50067541D01*
X55168551Y-49972303D01*
X55168551Y-49686589D01*
X55216170Y-49591351D01*
X55263789Y-49543732D01*
X55359027Y-49496113D01*
X55549503Y-49496113D01*
X55644741Y-49543732D01*
X56073313Y-50115160D02*
X56168551Y-50162779D01*
X56359027Y-50162779D01*
X56454265Y-50115160D01*
X56501884Y-50019922D01*
X56501884Y-49972303D01*
X56454265Y-49877065D01*
X56359027Y-49829446D01*
X56216170Y-49829446D01*
X56120932Y-49781827D01*
X56073313Y-49686589D01*
X56073313Y-49638970D01*
X56120932Y-49543732D01*
X56216170Y-49496113D01*
X56359027Y-49496113D01*
X56454265Y-49543732D01*
X56882837Y-49258018D02*
X56930456Y-49210399D01*
X57025694Y-49162779D01*
X57263789Y-49162779D01*
X57359027Y-49210399D01*
X57406646Y-49258018D01*
X57454265Y-49353256D01*
X57454265Y-49448494D01*
X57406646Y-49591351D01*
X56835218Y-50162779D01*
X57454265Y-50162779D01*
X57787599Y-49162779D02*
X58454265Y-49162779D01*
X58025694Y-50162779D01*
X58978075Y-49591351D02*
X58882837Y-49543732D01*
X58835218Y-49496113D01*
X58787599Y-49400875D01*
X58787599Y-49353256D01*
X58835218Y-49258018D01*
X58882837Y-49210399D01*
X58978075Y-49162779D01*
X59168551Y-49162779D01*
X59263789Y-49210399D01*
X59311408Y-49258018D01*
X59359027Y-49353256D01*
X59359027Y-49400875D01*
X59311408Y-49496113D01*
X59263789Y-49543732D01*
X59168551Y-49591351D01*
X58978075Y-49591351D01*
X58882837Y-49638970D01*
X58835218Y-49686589D01*
X58787599Y-49781827D01*
X58787599Y-49972303D01*
X58835218Y-50067541D01*
X58882837Y-50115160D01*
X58978075Y-50162779D01*
X59168551Y-50162779D01*
X59263789Y-50115160D01*
X59311408Y-50067541D01*
X59359027Y-49972303D01*
X59359027Y-49781827D01*
X59311408Y-49686589D01*
X59263789Y-49638970D01*
X59168551Y-49591351D01*
X60311408Y-50162779D02*
X59739979Y-50162779D01*
X60025694Y-50162779D02*
X60025694Y-49162779D01*
X59930456Y-49305637D01*
X59835218Y-49400875D01*
X59739979Y-49448494D01*
X61120932Y-50115160D02*
X61025694Y-50162779D01*
X60835218Y-50162779D01*
X60739979Y-50115160D01*
X60692360Y-50019922D01*
X60692360Y-49638970D01*
X60739979Y-49543732D01*
X60835218Y-49496113D01*
X61025694Y-49496113D01*
X61120932Y-49543732D01*
X61168551Y-49638970D01*
X61168551Y-49734208D01*
X60692360Y-49829446D01*
X61597122Y-49781827D02*
X62359027Y-49781827D01*
X61978075Y-50162779D02*
X61978075Y-49400875D01*
X54325000Y-49478780D02*
X54325000Y-49716876D01*
X54086904Y-49621638D02*
X54325000Y-49716876D01*
X54563095Y-49621638D01*
X54182142Y-49907352D02*
X54325000Y-49716876D01*
X54467857Y-49907352D01*
X54325000Y-49478780D02*
X54325000Y-49716876D01*
X54086904Y-49621638D02*
X54325000Y-49716876D01*
X54563095Y-49621638D01*
X54182142Y-49907352D02*
X54325000Y-49716876D01*
X54467857Y-49907352D01*
X57583333Y-45957142D02*
X57535714Y-46004761D01*
X57392857Y-46052380D01*
X57297619Y-46052380D01*
X57154761Y-46004761D01*
X57059523Y-45909523D01*
X57011904Y-45814285D01*
X56964285Y-45623809D01*
X56964285Y-45480952D01*
X57011904Y-45290476D01*
X57059523Y-45195238D01*
X57154761Y-45100000D01*
X57297619Y-45052380D01*
X57392857Y-45052380D01*
X57535714Y-45100000D01*
X57583333Y-45147619D01*
X58535714Y-46052380D02*
X57964285Y-46052380D01*
X58250000Y-46052380D02*
X58250000Y-45052380D01*
X58154761Y-45195238D01*
X58059523Y-45290476D01*
X57964285Y-45338095D01*
X49083333Y-58207142D02*
X49035714Y-58254761D01*
X48892857Y-58302380D01*
X48797619Y-58302380D01*
X48654761Y-58254761D01*
X48559523Y-58159523D01*
X48511904Y-58064285D01*
X48464285Y-57873809D01*
X48464285Y-57730952D01*
X48511904Y-57540476D01*
X48559523Y-57445238D01*
X48654761Y-57350000D01*
X48797619Y-57302380D01*
X48892857Y-57302380D01*
X49035714Y-57350000D01*
X49083333Y-57397619D01*
X49464285Y-57397619D02*
X49511904Y-57350000D01*
X49607142Y-57302380D01*
X49845238Y-57302380D01*
X49940476Y-57350000D01*
X49988095Y-57397619D01*
X50035714Y-57492857D01*
X50035714Y-57588095D01*
X49988095Y-57730952D01*
X49416666Y-58302380D01*
X50035714Y-58302380D01*
X142017142Y-92876666D02*
X142064761Y-92924285D01*
X142112380Y-93067142D01*
X142112380Y-93162380D01*
X142064761Y-93305238D01*
X141969523Y-93400476D01*
X141874285Y-93448095D01*
X141683809Y-93495714D01*
X141540952Y-93495714D01*
X141350476Y-93448095D01*
X141255238Y-93400476D01*
X141160000Y-93305238D01*
X141112380Y-93162380D01*
X141112380Y-93067142D01*
X141160000Y-92924285D01*
X141207619Y-92876666D01*
X141112380Y-92543333D02*
X141112380Y-91924285D01*
X141493333Y-92257619D01*
X141493333Y-92114761D01*
X141540952Y-92019523D01*
X141588571Y-91971904D01*
X141683809Y-91924285D01*
X141921904Y-91924285D01*
X142017142Y-91971904D01*
X142064761Y-92019523D01*
X142112380Y-92114761D01*
X142112380Y-92400476D01*
X142064761Y-92495714D01*
X142017142Y-92543333D01*
X144447142Y-57316666D02*
X144494761Y-57364285D01*
X144542380Y-57507142D01*
X144542380Y-57602380D01*
X144494761Y-57745238D01*
X144399523Y-57840476D01*
X144304285Y-57888095D01*
X144113809Y-57935714D01*
X143970952Y-57935714D01*
X143780476Y-57888095D01*
X143685238Y-57840476D01*
X143590000Y-57745238D01*
X143542380Y-57602380D01*
X143542380Y-57507142D01*
X143590000Y-57364285D01*
X143637619Y-57316666D01*
X143875714Y-56459523D02*
X144542380Y-56459523D01*
X143494761Y-56697619D02*
X144209047Y-56935714D01*
X144209047Y-56316666D01*
X54150833Y-87297142D02*
X54103214Y-87344761D01*
X53960357Y-87392380D01*
X53865119Y-87392380D01*
X53722261Y-87344761D01*
X53627023Y-87249523D01*
X53579404Y-87154285D01*
X53531785Y-86963809D01*
X53531785Y-86820952D01*
X53579404Y-86630476D01*
X53627023Y-86535238D01*
X53722261Y-86440000D01*
X53865119Y-86392380D01*
X53960357Y-86392380D01*
X54103214Y-86440000D01*
X54150833Y-86487619D01*
X55055595Y-86392380D02*
X54579404Y-86392380D01*
X54531785Y-86868571D01*
X54579404Y-86820952D01*
X54674642Y-86773333D01*
X54912738Y-86773333D01*
X55007976Y-86820952D01*
X55055595Y-86868571D01*
X55103214Y-86963809D01*
X55103214Y-87201904D01*
X55055595Y-87297142D01*
X55007976Y-87344761D01*
X54912738Y-87392380D01*
X54674642Y-87392380D01*
X54579404Y-87344761D01*
X54531785Y-87297142D01*
X58833333Y-67507142D02*
X58785714Y-67554761D01*
X58642857Y-67602380D01*
X58547619Y-67602380D01*
X58404761Y-67554761D01*
X58309523Y-67459523D01*
X58261904Y-67364285D01*
X58214285Y-67173809D01*
X58214285Y-67030952D01*
X58261904Y-66840476D01*
X58309523Y-66745238D01*
X58404761Y-66650000D01*
X58547619Y-66602380D01*
X58642857Y-66602380D01*
X58785714Y-66650000D01*
X58833333Y-66697619D01*
X59690476Y-66602380D02*
X59500000Y-66602380D01*
X59404761Y-66650000D01*
X59357142Y-66697619D01*
X59261904Y-66840476D01*
X59214285Y-67030952D01*
X59214285Y-67411904D01*
X59261904Y-67507142D01*
X59309523Y-67554761D01*
X59404761Y-67602380D01*
X59595238Y-67602380D01*
X59690476Y-67554761D01*
X59738095Y-67507142D01*
X59785714Y-67411904D01*
X59785714Y-67173809D01*
X59738095Y-67078571D01*
X59690476Y-67030952D01*
X59595238Y-66983333D01*
X59404761Y-66983333D01*
X59309523Y-67030952D01*
X59261904Y-67078571D01*
X59214285Y-67173809D01*
X48499047Y-75334761D02*
X48641904Y-75382380D01*
X48880000Y-75382380D01*
X48975238Y-75334761D01*
X49022857Y-75287142D01*
X49070476Y-75191904D01*
X49070476Y-75096666D01*
X49022857Y-75001428D01*
X48975238Y-74953809D01*
X48880000Y-74906190D01*
X48689523Y-74858571D01*
X48594285Y-74810952D01*
X48546666Y-74763333D01*
X48499047Y-74668095D01*
X48499047Y-74572857D01*
X48546666Y-74477619D01*
X48594285Y-74430000D01*
X48689523Y-74382380D01*
X48927619Y-74382380D01*
X49070476Y-74430000D01*
X49499047Y-75382380D02*
X49499047Y-74382380D01*
X49880000Y-74382380D02*
X50499047Y-74382380D01*
X50165714Y-74763333D01*
X50308571Y-74763333D01*
X50403809Y-74810952D01*
X50451428Y-74858571D01*
X50499047Y-74953809D01*
X50499047Y-75191904D01*
X50451428Y-75287142D01*
X50403809Y-75334761D01*
X50308571Y-75382380D01*
X50022857Y-75382380D01*
X49927619Y-75334761D01*
X49880000Y-75287142D01*
X51070476Y-74810952D02*
X50975238Y-74763333D01*
X50927619Y-74715714D01*
X50880000Y-74620476D01*
X50880000Y-74572857D01*
X50927619Y-74477619D01*
X50975238Y-74430000D01*
X51070476Y-74382380D01*
X51260952Y-74382380D01*
X51356190Y-74430000D01*
X51403809Y-74477619D01*
X51451428Y-74572857D01*
X51451428Y-74620476D01*
X51403809Y-74715714D01*
X51356190Y-74763333D01*
X51260952Y-74810952D01*
X51070476Y-74810952D01*
X50975238Y-74858571D01*
X50927619Y-74906190D01*
X50880000Y-75001428D01*
X50880000Y-75191904D01*
X50927619Y-75287142D01*
X50975238Y-75334761D01*
X51070476Y-75382380D01*
X51260952Y-75382380D01*
X51356190Y-75334761D01*
X51403809Y-75287142D01*
X51451428Y-75191904D01*
X51451428Y-75001428D01*
X51403809Y-74906190D01*
X51356190Y-74858571D01*
X51260952Y-74810952D01*
X52308571Y-74382380D02*
X52118095Y-74382380D01*
X52022857Y-74430000D01*
X51975238Y-74477619D01*
X51880000Y-74620476D01*
X51832380Y-74810952D01*
X51832380Y-75191904D01*
X51880000Y-75287142D01*
X51927619Y-75334761D01*
X52022857Y-75382380D01*
X52213333Y-75382380D01*
X52308571Y-75334761D01*
X52356190Y-75287142D01*
X52403809Y-75191904D01*
X52403809Y-74953809D01*
X52356190Y-74858571D01*
X52308571Y-74810952D01*
X52213333Y-74763333D01*
X52022857Y-74763333D01*
X51927619Y-74810952D01*
X51880000Y-74858571D01*
X51832380Y-74953809D01*
X53308571Y-74382380D02*
X52832380Y-74382380D01*
X52784761Y-74858571D01*
X52832380Y-74810952D01*
X52927619Y-74763333D01*
X53165714Y-74763333D01*
X53260952Y-74810952D01*
X53308571Y-74858571D01*
X53356190Y-74953809D01*
X53356190Y-75191904D01*
X53308571Y-75287142D01*
X53260952Y-75334761D01*
X53165714Y-75382380D01*
X52927619Y-75382380D01*
X52832380Y-75334761D01*
X52784761Y-75287142D01*
X53784761Y-75382380D02*
X53784761Y-74382380D01*
X54022857Y-74382380D01*
X54165714Y-74430000D01*
X54260952Y-74525238D01*
X54308571Y-74620476D01*
X54356190Y-74810952D01*
X54356190Y-74953809D01*
X54308571Y-75144285D01*
X54260952Y-75239523D01*
X54165714Y-75334761D01*
X54022857Y-75382380D01*
X53784761Y-75382380D01*
X54784761Y-75382380D02*
X54784761Y-74382380D01*
X55022857Y-74382380D01*
X55165714Y-74430000D01*
X55260952Y-74525238D01*
X55308571Y-74620476D01*
X55356190Y-74810952D01*
X55356190Y-74953809D01*
X55308571Y-75144285D01*
X55260952Y-75239523D01*
X55165714Y-75334761D01*
X55022857Y-75382380D01*
X54784761Y-75382380D01*
X55641904Y-74382380D02*
X55975238Y-75382380D01*
X56308571Y-74382380D01*
X56641904Y-75001428D02*
X57403809Y-75001428D01*
X57737142Y-74382380D02*
X58308571Y-74382380D01*
X58022857Y-75382380D02*
X58022857Y-74382380D01*
X59165714Y-75382380D02*
X58594285Y-75382380D01*
X58880000Y-75382380D02*
X58880000Y-74382380D01*
X58784761Y-74525238D01*
X58689523Y-74620476D01*
X58594285Y-74668095D01*
X59594285Y-75001428D02*
X60356190Y-75001428D01*
X61356190Y-74430000D02*
X61260952Y-74382380D01*
X61118095Y-74382380D01*
X60975238Y-74430000D01*
X60880000Y-74525238D01*
X60832380Y-74620476D01*
X60784761Y-74810952D01*
X60784761Y-74953809D01*
X60832380Y-75144285D01*
X60880000Y-75239523D01*
X60975238Y-75334761D01*
X61118095Y-75382380D01*
X61213333Y-75382380D01*
X61356190Y-75334761D01*
X61403809Y-75287142D01*
X61403809Y-74953809D01*
X61213333Y-74953809D01*
X61832380Y-74858571D02*
X62165714Y-74858571D01*
X62308571Y-75382380D02*
X61832380Y-75382380D01*
X61832380Y-74382380D01*
X62308571Y-74382380D01*
X62641904Y-74382380D02*
X63260952Y-74382380D01*
X62927619Y-74763333D01*
X63070476Y-74763333D01*
X63165714Y-74810952D01*
X63213333Y-74858571D01*
X63260952Y-74953809D01*
X63260952Y-75191904D01*
X63213333Y-75287142D01*
X63165714Y-75334761D01*
X63070476Y-75382380D01*
X62784761Y-75382380D01*
X62689523Y-75334761D01*
X62641904Y-75287142D01*
X56197500Y-79523380D02*
X56197500Y-79761476D01*
X55959404Y-79666238D02*
X56197500Y-79761476D01*
X56435595Y-79666238D01*
X56054642Y-79951952D02*
X56197500Y-79761476D01*
X56340357Y-79951952D01*
X56197500Y-79523380D02*
X56197500Y-79761476D01*
X55959404Y-79666238D02*
X56197500Y-79761476D01*
X56435595Y-79666238D01*
X56054642Y-79951952D02*
X56197500Y-79761476D01*
X56340357Y-79951952D01*
X153725714Y-48712380D02*
X153725714Y-47712380D01*
X154106666Y-47712380D01*
X154201904Y-47760000D01*
X154249523Y-47807619D01*
X154297142Y-47902857D01*
X154297142Y-48045714D01*
X154249523Y-48140952D01*
X154201904Y-48188571D01*
X154106666Y-48236190D01*
X153725714Y-48236190D01*
X154678095Y-48664761D02*
X154820952Y-48712380D01*
X155059047Y-48712380D01*
X155154285Y-48664761D01*
X155201904Y-48617142D01*
X155249523Y-48521904D01*
X155249523Y-48426666D01*
X155201904Y-48331428D01*
X155154285Y-48283809D01*
X155059047Y-48236190D01*
X154868571Y-48188571D01*
X154773333Y-48140952D01*
X154725714Y-48093333D01*
X154678095Y-47998095D01*
X154678095Y-47902857D01*
X154725714Y-47807619D01*
X154773333Y-47760000D01*
X154868571Y-47712380D01*
X155106666Y-47712380D01*
X155249523Y-47760000D01*
X156201904Y-48712380D02*
X155630476Y-48712380D01*
X155916190Y-48712380D02*
X155916190Y-47712380D01*
X155820952Y-47855238D01*
X155725714Y-47950476D01*
X155630476Y-47998095D01*
X152785714Y-115452380D02*
X152785714Y-114452380D01*
X153166666Y-114452380D01*
X153261904Y-114500000D01*
X153309523Y-114547619D01*
X153357142Y-114642857D01*
X153357142Y-114785714D01*
X153309523Y-114880952D01*
X153261904Y-114928571D01*
X153166666Y-114976190D01*
X152785714Y-114976190D01*
X153738095Y-115404761D02*
X153880952Y-115452380D01*
X154119047Y-115452380D01*
X154214285Y-115404761D01*
X154261904Y-115357142D01*
X154309523Y-115261904D01*
X154309523Y-115166666D01*
X154261904Y-115071428D01*
X154214285Y-115023809D01*
X154119047Y-114976190D01*
X153928571Y-114928571D01*
X153833333Y-114880952D01*
X153785714Y-114833333D01*
X153738095Y-114738095D01*
X153738095Y-114642857D01*
X153785714Y-114547619D01*
X153833333Y-114500000D01*
X153928571Y-114452380D01*
X154166666Y-114452380D01*
X154309523Y-114500000D01*
X154690476Y-114547619D02*
X154738095Y-114500000D01*
X154833333Y-114452380D01*
X155071428Y-114452380D01*
X155166666Y-114500000D01*
X155214285Y-114547619D01*
X155261904Y-114642857D01*
X155261904Y-114738095D01*
X155214285Y-114880952D01*
X154642857Y-115452380D01*
X155261904Y-115452380D01*
X63022380Y-60416666D02*
X62546190Y-60750000D01*
X63022380Y-60988095D02*
X62022380Y-60988095D01*
X62022380Y-60607142D01*
X62070000Y-60511904D01*
X62117619Y-60464285D01*
X62212857Y-60416666D01*
X62355714Y-60416666D01*
X62450952Y-60464285D01*
X62498571Y-60511904D01*
X62546190Y-60607142D01*
X62546190Y-60988095D01*
X63022380Y-59464285D02*
X63022380Y-60035714D01*
X63022380Y-59750000D02*
X62022380Y-59750000D01*
X62165238Y-59845238D01*
X62260476Y-59940476D01*
X62308095Y-60035714D01*
X56772380Y-60416666D02*
X56296190Y-60750000D01*
X56772380Y-60988095D02*
X55772380Y-60988095D01*
X55772380Y-60607142D01*
X55820000Y-60511904D01*
X55867619Y-60464285D01*
X55962857Y-60416666D01*
X56105714Y-60416666D01*
X56200952Y-60464285D01*
X56248571Y-60511904D01*
X56296190Y-60607142D01*
X56296190Y-60988095D01*
X55867619Y-60035714D02*
X55820000Y-59988095D01*
X55772380Y-59892857D01*
X55772380Y-59654761D01*
X55820000Y-59559523D01*
X55867619Y-59511904D01*
X55962857Y-59464285D01*
X56058095Y-59464285D01*
X56200952Y-59511904D01*
X56772380Y-60083333D01*
X56772380Y-59464285D01*
X51982380Y-45416666D02*
X51506190Y-45750000D01*
X51982380Y-45988095D02*
X50982380Y-45988095D01*
X50982380Y-45607142D01*
X51030000Y-45511904D01*
X51077619Y-45464285D01*
X51172857Y-45416666D01*
X51315714Y-45416666D01*
X51410952Y-45464285D01*
X51458571Y-45511904D01*
X51506190Y-45607142D01*
X51506190Y-45988095D01*
X50982380Y-45083333D02*
X50982380Y-44464285D01*
X51363333Y-44797619D01*
X51363333Y-44654761D01*
X51410952Y-44559523D01*
X51458571Y-44511904D01*
X51553809Y-44464285D01*
X51791904Y-44464285D01*
X51887142Y-44511904D01*
X51934761Y-44559523D01*
X51982380Y-44654761D01*
X51982380Y-44940476D01*
X51934761Y-45035714D01*
X51887142Y-45083333D01*
X72882380Y-55166666D02*
X72406190Y-55500000D01*
X72882380Y-55738095D02*
X71882380Y-55738095D01*
X71882380Y-55357142D01*
X71930000Y-55261904D01*
X71977619Y-55214285D01*
X72072857Y-55166666D01*
X72215714Y-55166666D01*
X72310952Y-55214285D01*
X72358571Y-55261904D01*
X72406190Y-55357142D01*
X72406190Y-55738095D01*
X72215714Y-54309523D02*
X72882380Y-54309523D01*
X71834761Y-54547619D02*
X72549047Y-54785714D01*
X72549047Y-54166666D01*
X65772380Y-84462857D02*
X65296190Y-84796190D01*
X65772380Y-85034285D02*
X64772380Y-85034285D01*
X64772380Y-84653333D01*
X64820000Y-84558095D01*
X64867619Y-84510476D01*
X64962857Y-84462857D01*
X65105714Y-84462857D01*
X65200952Y-84510476D01*
X65248571Y-84558095D01*
X65296190Y-84653333D01*
X65296190Y-85034285D01*
X65772380Y-83510476D02*
X65772380Y-84081904D01*
X65772380Y-83796190D02*
X64772380Y-83796190D01*
X64915238Y-83891428D01*
X65010476Y-83986666D01*
X65058095Y-84081904D01*
X64772380Y-82891428D02*
X64772380Y-82796190D01*
X64820000Y-82700952D01*
X64867619Y-82653333D01*
X64962857Y-82605714D01*
X65153333Y-82558095D01*
X65391428Y-82558095D01*
X65581904Y-82605714D01*
X65677142Y-82653333D01*
X65724761Y-82700952D01*
X65772380Y-82796190D01*
X65772380Y-82891428D01*
X65724761Y-82986666D01*
X65677142Y-83034285D01*
X65581904Y-83081904D01*
X65391428Y-83129523D01*
X65153333Y-83129523D01*
X64962857Y-83081904D01*
X64867619Y-83034285D01*
X64820000Y-82986666D01*
X64772380Y-82891428D01*
X45077142Y-73562380D02*
X44743809Y-73086190D01*
X44505714Y-73562380D02*
X44505714Y-72562380D01*
X44886666Y-72562380D01*
X44981904Y-72610000D01*
X45029523Y-72657619D01*
X45077142Y-72752857D01*
X45077142Y-72895714D01*
X45029523Y-72990952D01*
X44981904Y-73038571D01*
X44886666Y-73086190D01*
X44505714Y-73086190D01*
X46029523Y-73562380D02*
X45458095Y-73562380D01*
X45743809Y-73562380D02*
X45743809Y-72562380D01*
X45648571Y-72705238D01*
X45553333Y-72800476D01*
X45458095Y-72848095D01*
X46981904Y-73562380D02*
X46410476Y-73562380D01*
X46696190Y-73562380D02*
X46696190Y-72562380D01*
X46600952Y-72705238D01*
X46505714Y-72800476D01*
X46410476Y-72848095D01*
X95083333Y-70787142D02*
X95035714Y-70834761D01*
X94892857Y-70882380D01*
X94797619Y-70882380D01*
X94654761Y-70834761D01*
X94559523Y-70739523D01*
X94511904Y-70644285D01*
X94464285Y-70453809D01*
X94464285Y-70310952D01*
X94511904Y-70120476D01*
X94559523Y-70025238D01*
X94654761Y-69930000D01*
X94797619Y-69882380D01*
X94892857Y-69882380D01*
X95035714Y-69930000D01*
X95083333Y-69977619D01*
X95416666Y-69882380D02*
X96083333Y-69882380D01*
X95654761Y-70882380D01*
X117943333Y-58197142D02*
X117895714Y-58244761D01*
X117752857Y-58292380D01*
X117657619Y-58292380D01*
X117514761Y-58244761D01*
X117419523Y-58149523D01*
X117371904Y-58054285D01*
X117324285Y-57863809D01*
X117324285Y-57720952D01*
X117371904Y-57530476D01*
X117419523Y-57435238D01*
X117514761Y-57340000D01*
X117657619Y-57292380D01*
X117752857Y-57292380D01*
X117895714Y-57340000D01*
X117943333Y-57387619D01*
X118514761Y-57720952D02*
X118419523Y-57673333D01*
X118371904Y-57625714D01*
X118324285Y-57530476D01*
X118324285Y-57482857D01*
X118371904Y-57387619D01*
X118419523Y-57340000D01*
X118514761Y-57292380D01*
X118705238Y-57292380D01*
X118800476Y-57340000D01*
X118848095Y-57387619D01*
X118895714Y-57482857D01*
X118895714Y-57530476D01*
X118848095Y-57625714D01*
X118800476Y-57673333D01*
X118705238Y-57720952D01*
X118514761Y-57720952D01*
X118419523Y-57768571D01*
X118371904Y-57816190D01*
X118324285Y-57911428D01*
X118324285Y-58101904D01*
X118371904Y-58197142D01*
X118419523Y-58244761D01*
X118514761Y-58292380D01*
X118705238Y-58292380D01*
X118800476Y-58244761D01*
X118848095Y-58197142D01*
X118895714Y-58101904D01*
X118895714Y-57911428D01*
X118848095Y-57816190D01*
X118800476Y-57768571D01*
X118705238Y-57720952D01*
X103973333Y-61897142D02*
X103925714Y-61944761D01*
X103782857Y-61992380D01*
X103687619Y-61992380D01*
X103544761Y-61944761D01*
X103449523Y-61849523D01*
X103401904Y-61754285D01*
X103354285Y-61563809D01*
X103354285Y-61420952D01*
X103401904Y-61230476D01*
X103449523Y-61135238D01*
X103544761Y-61040000D01*
X103687619Y-60992380D01*
X103782857Y-60992380D01*
X103925714Y-61040000D01*
X103973333Y-61087619D01*
X104449523Y-61992380D02*
X104640000Y-61992380D01*
X104735238Y-61944761D01*
X104782857Y-61897142D01*
X104878095Y-61754285D01*
X104925714Y-61563809D01*
X104925714Y-61182857D01*
X104878095Y-61087619D01*
X104830476Y-61040000D01*
X104735238Y-60992380D01*
X104544761Y-60992380D01*
X104449523Y-61040000D01*
X104401904Y-61087619D01*
X104354285Y-61182857D01*
X104354285Y-61420952D01*
X104401904Y-61516190D01*
X104449523Y-61563809D01*
X104544761Y-61611428D01*
X104735238Y-61611428D01*
X104830476Y-61563809D01*
X104878095Y-61516190D01*
X104925714Y-61420952D01*
X90797142Y-44117142D02*
X90749523Y-44164761D01*
X90606666Y-44212380D01*
X90511428Y-44212380D01*
X90368571Y-44164761D01*
X90273333Y-44069523D01*
X90225714Y-43974285D01*
X90178095Y-43783809D01*
X90178095Y-43640952D01*
X90225714Y-43450476D01*
X90273333Y-43355238D01*
X90368571Y-43260000D01*
X90511428Y-43212380D01*
X90606666Y-43212380D01*
X90749523Y-43260000D01*
X90797142Y-43307619D01*
X91749523Y-44212380D02*
X91178095Y-44212380D01*
X91463809Y-44212380D02*
X91463809Y-43212380D01*
X91368571Y-43355238D01*
X91273333Y-43450476D01*
X91178095Y-43498095D01*
X92368571Y-43212380D02*
X92463809Y-43212380D01*
X92559047Y-43260000D01*
X92606666Y-43307619D01*
X92654285Y-43402857D01*
X92701904Y-43593333D01*
X92701904Y-43831428D01*
X92654285Y-44021904D01*
X92606666Y-44117142D01*
X92559047Y-44164761D01*
X92463809Y-44212380D01*
X92368571Y-44212380D01*
X92273333Y-44164761D01*
X92225714Y-44117142D01*
X92178095Y-44021904D01*
X92130476Y-43831428D01*
X92130476Y-43593333D01*
X92178095Y-43402857D01*
X92225714Y-43307619D01*
X92273333Y-43260000D01*
X92368571Y-43212380D01*
X103814571Y-47823333D02*
X103814571Y-48156666D01*
X104338380Y-48156666D02*
X103338380Y-48156666D01*
X103338380Y-47680476D01*
X103814571Y-46966190D02*
X103862190Y-46823333D01*
X103909809Y-46775714D01*
X104005047Y-46728095D01*
X104147904Y-46728095D01*
X104243142Y-46775714D01*
X104290761Y-46823333D01*
X104338380Y-46918571D01*
X104338380Y-47299523D01*
X103338380Y-47299523D01*
X103338380Y-46966190D01*
X103386000Y-46870952D01*
X103433619Y-46823333D01*
X103528857Y-46775714D01*
X103624095Y-46775714D01*
X103719333Y-46823333D01*
X103766952Y-46870952D01*
X103814571Y-46966190D01*
X103814571Y-47299523D01*
X104338380Y-45775714D02*
X104338380Y-46347142D01*
X104338380Y-46061428D02*
X103338380Y-46061428D01*
X103481238Y-46156666D01*
X103576476Y-46251904D01*
X103624095Y-46347142D01*
X84167142Y-55612380D02*
X83833809Y-55136190D01*
X83595714Y-55612380D02*
X83595714Y-54612380D01*
X83976666Y-54612380D01*
X84071904Y-54660000D01*
X84119523Y-54707619D01*
X84167142Y-54802857D01*
X84167142Y-54945714D01*
X84119523Y-55040952D01*
X84071904Y-55088571D01*
X83976666Y-55136190D01*
X83595714Y-55136190D01*
X85119523Y-55612380D02*
X84548095Y-55612380D01*
X84833809Y-55612380D02*
X84833809Y-54612380D01*
X84738571Y-54755238D01*
X84643333Y-54850476D01*
X84548095Y-54898095D01*
X85500476Y-54707619D02*
X85548095Y-54660000D01*
X85643333Y-54612380D01*
X85881428Y-54612380D01*
X85976666Y-54660000D01*
X86024285Y-54707619D01*
X86071904Y-54802857D01*
X86071904Y-54898095D01*
X86024285Y-55040952D01*
X85452857Y-55612380D01*
X86071904Y-55612380D01*
X94607142Y-65772380D02*
X94273809Y-65296190D01*
X94035714Y-65772380D02*
X94035714Y-64772380D01*
X94416666Y-64772380D01*
X94511904Y-64820000D01*
X94559523Y-64867619D01*
X94607142Y-64962857D01*
X94607142Y-65105714D01*
X94559523Y-65200952D01*
X94511904Y-65248571D01*
X94416666Y-65296190D01*
X94035714Y-65296190D01*
X95559523Y-65772380D02*
X94988095Y-65772380D01*
X95273809Y-65772380D02*
X95273809Y-64772380D01*
X95178571Y-64915238D01*
X95083333Y-65010476D01*
X94988095Y-65058095D01*
X95892857Y-64772380D02*
X96511904Y-64772380D01*
X96178571Y-65153333D01*
X96321428Y-65153333D01*
X96416666Y-65200952D01*
X96464285Y-65248571D01*
X96511904Y-65343809D01*
X96511904Y-65581904D01*
X96464285Y-65677142D01*
X96416666Y-65724761D01*
X96321428Y-65772380D01*
X96035714Y-65772380D01*
X95940476Y-65724761D01*
X95892857Y-65677142D01*
X94488095Y-56602380D02*
X94488095Y-57411904D01*
X94535714Y-57507142D01*
X94583333Y-57554761D01*
X94678571Y-57602380D01*
X94869047Y-57602380D01*
X94964285Y-57554761D01*
X95011904Y-57507142D01*
X95059523Y-57411904D01*
X95059523Y-56602380D01*
X95488095Y-56697619D02*
X95535714Y-56650000D01*
X95630952Y-56602380D01*
X95869047Y-56602380D01*
X95964285Y-56650000D01*
X96011904Y-56697619D01*
X96059523Y-56792857D01*
X96059523Y-56888095D01*
X96011904Y-57030952D01*
X95440476Y-57602380D01*
X96059523Y-57602380D01*
X99799047Y-55062380D02*
X99322857Y-55062380D01*
X99322857Y-54062380D01*
X99989523Y-54062380D02*
X100560952Y-54062380D01*
X100275238Y-55062380D02*
X100275238Y-54062380D01*
X100799047Y-54062380D02*
X101418095Y-54062380D01*
X101084761Y-54443333D01*
X101227619Y-54443333D01*
X101322857Y-54490952D01*
X101370476Y-54538571D01*
X101418095Y-54633809D01*
X101418095Y-54871904D01*
X101370476Y-54967142D01*
X101322857Y-55014761D01*
X101227619Y-55062380D01*
X100941904Y-55062380D01*
X100846666Y-55014761D01*
X100799047Y-54967142D01*
X102275238Y-54395714D02*
X102275238Y-55062380D01*
X102037142Y-54014761D02*
X101799047Y-54729047D01*
X102418095Y-54729047D01*
X103227619Y-54062380D02*
X103037142Y-54062380D01*
X102941904Y-54110000D01*
X102894285Y-54157619D01*
X102799047Y-54300476D01*
X102751428Y-54490952D01*
X102751428Y-54871904D01*
X102799047Y-54967142D01*
X102846666Y-55014761D01*
X102941904Y-55062380D01*
X103132380Y-55062380D01*
X103227619Y-55014761D01*
X103275238Y-54967142D01*
X103322857Y-54871904D01*
X103322857Y-54633809D01*
X103275238Y-54538571D01*
X103227619Y-54490952D01*
X103132380Y-54443333D01*
X102941904Y-54443333D01*
X102846666Y-54490952D01*
X102799047Y-54538571D01*
X102751428Y-54633809D01*
X104275238Y-55062380D02*
X103703809Y-55062380D01*
X103989523Y-55062380D02*
X103989523Y-54062380D01*
X103894285Y-54205238D01*
X103799047Y-54300476D01*
X103703809Y-54348095D01*
X104703809Y-54538571D02*
X105037142Y-54538571D01*
X105180000Y-55062380D02*
X104703809Y-55062380D01*
X104703809Y-54062380D01*
X105180000Y-54062380D01*
X105560952Y-55014761D02*
X105703809Y-55062380D01*
X105941904Y-55062380D01*
X106037142Y-55014761D01*
X106084761Y-54967142D01*
X106132380Y-54871904D01*
X106132380Y-54776666D01*
X106084761Y-54681428D01*
X106037142Y-54633809D01*
X105941904Y-54586190D01*
X105751428Y-54538571D01*
X105656190Y-54490952D01*
X105608571Y-54443333D01*
X105560952Y-54348095D01*
X105560952Y-54252857D01*
X105608571Y-54157619D01*
X105656190Y-54110000D01*
X105751428Y-54062380D01*
X105989523Y-54062380D01*
X106132380Y-54110000D01*
X106989523Y-54062380D02*
X106799047Y-54062380D01*
X106703809Y-54110000D01*
X106656190Y-54157619D01*
X106560952Y-54300476D01*
X106513333Y-54490952D01*
X106513333Y-54871904D01*
X106560952Y-54967142D01*
X106608571Y-55014761D01*
X106703809Y-55062380D01*
X106894285Y-55062380D01*
X106989523Y-55014761D01*
X107037142Y-54967142D01*
X107084761Y-54871904D01*
X107084761Y-54633809D01*
X107037142Y-54538571D01*
X106989523Y-54490952D01*
X106894285Y-54443333D01*
X106703809Y-54443333D01*
X106608571Y-54490952D01*
X106560952Y-54538571D01*
X106513333Y-54633809D01*
X107513333Y-54681428D02*
X108275238Y-54681428D01*
X108608571Y-54062380D02*
X109180000Y-54062380D01*
X108894285Y-55062380D02*
X108894285Y-54062380D01*
X110084761Y-55062380D02*
X109751428Y-54586190D01*
X109513333Y-55062380D02*
X109513333Y-54062380D01*
X109894285Y-54062380D01*
X109989523Y-54110000D01*
X110037142Y-54157619D01*
X110084761Y-54252857D01*
X110084761Y-54395714D01*
X110037142Y-54490952D01*
X109989523Y-54538571D01*
X109894285Y-54586190D01*
X109513333Y-54586190D01*
X110513333Y-55062380D02*
X110513333Y-54062380D01*
X110846666Y-54776666D01*
X111180000Y-54062380D01*
X111180000Y-55062380D01*
X111656190Y-55062380D02*
X111656190Y-54062380D01*
X112037142Y-54062380D01*
X112132380Y-54110000D01*
X112180000Y-54157619D01*
X112227619Y-54252857D01*
X112227619Y-54395714D01*
X112180000Y-54490952D01*
X112132380Y-54538571D01*
X112037142Y-54586190D01*
X111656190Y-54586190D01*
X112989523Y-54538571D02*
X113132380Y-54586190D01*
X113180000Y-54633809D01*
X113227619Y-54729047D01*
X113227619Y-54871904D01*
X113180000Y-54967142D01*
X113132380Y-55014761D01*
X113037142Y-55062380D01*
X112656190Y-55062380D01*
X112656190Y-54062380D01*
X112989523Y-54062380D01*
X113084761Y-54110000D01*
X113132380Y-54157619D01*
X113180000Y-54252857D01*
X113180000Y-54348095D01*
X113132380Y-54443333D01*
X113084761Y-54490952D01*
X112989523Y-54538571D01*
X112656190Y-54538571D01*
X113989523Y-54538571D02*
X113656190Y-54538571D01*
X113656190Y-55062380D02*
X113656190Y-54062380D01*
X114132380Y-54062380D01*
X93681550Y-51461380D02*
X93681550Y-51699476D01*
X93443454Y-51604238D02*
X93681550Y-51699476D01*
X93919645Y-51604238D01*
X93538692Y-51889952D02*
X93681550Y-51699476D01*
X93824407Y-51889952D01*
X93681550Y-51461380D02*
X93681550Y-51699476D01*
X93443454Y-51604238D02*
X93681550Y-51699476D01*
X93919645Y-51604238D01*
X93538692Y-51889952D02*
X93681550Y-51699476D01*
X93824407Y-51889952D01*
X83486666Y-112482380D02*
X83486666Y-113196666D01*
X83439047Y-113339523D01*
X83343809Y-113434761D01*
X83200952Y-113482380D01*
X83105714Y-113482380D01*
X84391428Y-112815714D02*
X84391428Y-113482380D01*
X84153333Y-112434761D02*
X83915238Y-113149047D01*
X84534285Y-113149047D01*
X90170000Y-115022380D02*
X90170000Y-115260476D01*
X89931904Y-115165238D02*
X90170000Y-115260476D01*
X90408095Y-115165238D01*
X90027142Y-115450952D02*
X90170000Y-115260476D01*
X90312857Y-115450952D01*
X94478333Y-47047380D02*
X94002142Y-47047380D01*
X94002142Y-46047380D01*
X95335476Y-47047380D02*
X94764047Y-47047380D01*
X95049761Y-47047380D02*
X95049761Y-46047380D01*
X94954523Y-46190238D01*
X94859285Y-46285476D01*
X94764047Y-46333095D01*
X112863333Y-81012380D02*
X112530000Y-80536190D01*
X112291904Y-81012380D02*
X112291904Y-80012380D01*
X112672857Y-80012380D01*
X112768095Y-80060000D01*
X112815714Y-80107619D01*
X112863333Y-80202857D01*
X112863333Y-80345714D01*
X112815714Y-80440952D01*
X112768095Y-80488571D01*
X112672857Y-80536190D01*
X112291904Y-80536190D01*
X113768095Y-80012380D02*
X113291904Y-80012380D01*
X113244285Y-80488571D01*
X113291904Y-80440952D01*
X113387142Y-80393333D01*
X113625238Y-80393333D01*
X113720476Y-80440952D01*
X113768095Y-80488571D01*
X113815714Y-80583809D01*
X113815714Y-80821904D01*
X113768095Y-80917142D01*
X113720476Y-80964761D01*
X113625238Y-81012380D01*
X113387142Y-81012380D01*
X113291904Y-80964761D01*
X113244285Y-80917142D01*
X112863333Y-75932380D02*
X112530000Y-75456190D01*
X112291904Y-75932380D02*
X112291904Y-74932380D01*
X112672857Y-74932380D01*
X112768095Y-74980000D01*
X112815714Y-75027619D01*
X112863333Y-75122857D01*
X112863333Y-75265714D01*
X112815714Y-75360952D01*
X112768095Y-75408571D01*
X112672857Y-75456190D01*
X112291904Y-75456190D01*
X113720476Y-74932380D02*
X113530000Y-74932380D01*
X113434761Y-74980000D01*
X113387142Y-75027619D01*
X113291904Y-75170476D01*
X113244285Y-75360952D01*
X113244285Y-75741904D01*
X113291904Y-75837142D01*
X113339523Y-75884761D01*
X113434761Y-75932380D01*
X113625238Y-75932380D01*
X113720476Y-75884761D01*
X113768095Y-75837142D01*
X113815714Y-75741904D01*
X113815714Y-75503809D01*
X113768095Y-75408571D01*
X113720476Y-75360952D01*
X113625238Y-75313333D01*
X113434761Y-75313333D01*
X113339523Y-75360952D01*
X113291904Y-75408571D01*
X113244285Y-75503809D01*
X112863333Y-70852380D02*
X112530000Y-70376190D01*
X112291904Y-70852380D02*
X112291904Y-69852380D01*
X112672857Y-69852380D01*
X112768095Y-69900000D01*
X112815714Y-69947619D01*
X112863333Y-70042857D01*
X112863333Y-70185714D01*
X112815714Y-70280952D01*
X112768095Y-70328571D01*
X112672857Y-70376190D01*
X112291904Y-70376190D01*
X113196666Y-69852380D02*
X113863333Y-69852380D01*
X113434761Y-70852380D01*
X53173333Y-102772380D02*
X52840000Y-102296190D01*
X52601904Y-102772380D02*
X52601904Y-101772380D01*
X52982857Y-101772380D01*
X53078095Y-101820000D01*
X53125714Y-101867619D01*
X53173333Y-101962857D01*
X53173333Y-102105714D01*
X53125714Y-102200952D01*
X53078095Y-102248571D01*
X52982857Y-102296190D01*
X52601904Y-102296190D01*
X53744761Y-102200952D02*
X53649523Y-102153333D01*
X53601904Y-102105714D01*
X53554285Y-102010476D01*
X53554285Y-101962857D01*
X53601904Y-101867619D01*
X53649523Y-101820000D01*
X53744761Y-101772380D01*
X53935238Y-101772380D01*
X54030476Y-101820000D01*
X54078095Y-101867619D01*
X54125714Y-101962857D01*
X54125714Y-102010476D01*
X54078095Y-102105714D01*
X54030476Y-102153333D01*
X53935238Y-102200952D01*
X53744761Y-102200952D01*
X53649523Y-102248571D01*
X53601904Y-102296190D01*
X53554285Y-102391428D01*
X53554285Y-102581904D01*
X53601904Y-102677142D01*
X53649523Y-102724761D01*
X53744761Y-102772380D01*
X53935238Y-102772380D01*
X54030476Y-102724761D01*
X54078095Y-102677142D01*
X54125714Y-102581904D01*
X54125714Y-102391428D01*
X54078095Y-102296190D01*
X54030476Y-102248571D01*
X53935238Y-102200952D01*
X50633333Y-90072380D02*
X50300000Y-89596190D01*
X50061904Y-90072380D02*
X50061904Y-89072380D01*
X50442857Y-89072380D01*
X50538095Y-89120000D01*
X50585714Y-89167619D01*
X50633333Y-89262857D01*
X50633333Y-89405714D01*
X50585714Y-89500952D01*
X50538095Y-89548571D01*
X50442857Y-89596190D01*
X50061904Y-89596190D01*
X51109523Y-90072380D02*
X51300000Y-90072380D01*
X51395238Y-90024761D01*
X51442857Y-89977142D01*
X51538095Y-89834285D01*
X51585714Y-89643809D01*
X51585714Y-89262857D01*
X51538095Y-89167619D01*
X51490476Y-89120000D01*
X51395238Y-89072380D01*
X51204761Y-89072380D01*
X51109523Y-89120000D01*
X51061904Y-89167619D01*
X51014285Y-89262857D01*
X51014285Y-89500952D01*
X51061904Y-89596190D01*
X51109523Y-89643809D01*
X51204761Y-89691428D01*
X51395238Y-89691428D01*
X51490476Y-89643809D01*
X51538095Y-89596190D01*
X51585714Y-89500952D01*
M02*
