G04 #@! TF.GenerationSoftware,KiCad,Pcbnew,(5.1.10-1-10_14)*
G04 #@! TF.CreationDate,2021-12-21T22:20:50-08:00*
G04 #@! TF.ProjectId,power,706f7765-722e-46b6-9963-61645f706362,rev?*
G04 #@! TF.SameCoordinates,Original*
G04 #@! TF.FileFunction,Copper,L1,Top*
G04 #@! TF.FilePolarity,Positive*
%FSLAX46Y46*%
G04 Gerber Fmt 4.6, Leading zero omitted, Abs format (unit mm)*
G04 Created by KiCad (PCBNEW (5.1.10-1-10_14)) date 2021-12-21 22:20:50*
%MOMM*%
%LPD*%
G01*
G04 APERTURE LIST*
G04 #@! TA.AperFunction,SMDPad,CuDef*
%ADD10R,2.286000X3.048000*%
G04 #@! TD*
G04 #@! TA.AperFunction,ComponentPad*
%ADD11O,1.700000X1.700000*%
G04 #@! TD*
G04 #@! TA.AperFunction,ComponentPad*
%ADD12R,1.700000X1.700000*%
G04 #@! TD*
G04 #@! TA.AperFunction,ComponentPad*
%ADD13C,6.400000*%
G04 #@! TD*
G04 #@! TA.AperFunction,ComponentPad*
%ADD14R,2.400000X2.400000*%
G04 #@! TD*
G04 #@! TA.AperFunction,ComponentPad*
%ADD15C,2.400000*%
G04 #@! TD*
G04 #@! TA.AperFunction,SMDPad,CuDef*
%ADD16R,1.422400X0.355600*%
G04 #@! TD*
G04 #@! TA.AperFunction,SMDPad,CuDef*
%ADD17R,1.016000X0.508000*%
G04 #@! TD*
G04 #@! TA.AperFunction,ComponentPad*
%ADD18C,1.524000*%
G04 #@! TD*
G04 #@! TA.AperFunction,ComponentPad*
%ADD19C,2.000000*%
G04 #@! TD*
G04 #@! TA.AperFunction,SMDPad,CuDef*
%ADD20R,0.876300X0.508000*%
G04 #@! TD*
G04 #@! TA.AperFunction,SMDPad,CuDef*
%ADD21C,0.100000*%
G04 #@! TD*
G04 #@! TA.AperFunction,ViaPad*
%ADD22C,0.800000*%
G04 #@! TD*
G04 #@! TA.AperFunction,Conductor*
%ADD23C,0.500000*%
G04 #@! TD*
G04 #@! TA.AperFunction,Conductor*
%ADD24C,0.375000*%
G04 #@! TD*
G04 #@! TA.AperFunction,Conductor*
%ADD25C,0.250000*%
G04 #@! TD*
G04 #@! TA.AperFunction,Conductor*
%ADD26C,0.762000*%
G04 #@! TD*
G04 #@! TA.AperFunction,Conductor*
%ADD27C,0.254000*%
G04 #@! TD*
G04 #@! TA.AperFunction,Conductor*
%ADD28C,0.100000*%
G04 #@! TD*
G04 APERTURE END LIST*
D10*
X42790000Y-52250000D03*
X37710000Y-52250000D03*
D11*
X157480000Y-100330000D03*
X154940000Y-100330000D03*
X157480000Y-97790000D03*
X154940000Y-97790000D03*
X157480000Y-95250000D03*
X154940000Y-95250000D03*
X157480000Y-92710000D03*
X154940000Y-92710000D03*
X157480000Y-90170000D03*
X154940000Y-90170000D03*
X157480000Y-87630000D03*
X154940000Y-87630000D03*
X157480000Y-85090000D03*
X154940000Y-85090000D03*
X157480000Y-82550000D03*
X154940000Y-82550000D03*
X157480000Y-80010000D03*
X154940000Y-80010000D03*
X157480000Y-77470000D03*
X154940000Y-77470000D03*
X157480000Y-74930000D03*
X154940000Y-74930000D03*
X157480000Y-72390000D03*
X154940000Y-72390000D03*
X157480000Y-69850000D03*
X154940000Y-69850000D03*
X157480000Y-67310000D03*
X154940000Y-67310000D03*
X157480000Y-64770000D03*
X154940000Y-64770000D03*
X157480000Y-62230000D03*
X154940000Y-62230000D03*
X157480000Y-59690000D03*
X154940000Y-59690000D03*
X157480000Y-57150000D03*
X154940000Y-57150000D03*
X157480000Y-54610000D03*
X154940000Y-54610000D03*
X157480000Y-52070000D03*
D12*
X154940000Y-52070000D03*
D13*
X160020000Y-120650000D03*
X30480000Y-120650000D03*
X160020000Y-30480000D03*
X30480000Y-30480000D03*
D14*
X37750000Y-74000000D03*
D15*
X37750000Y-77500000D03*
X37750000Y-63250000D03*
D14*
X37750000Y-59750000D03*
D16*
X54579000Y-51525001D03*
X54579000Y-52174999D03*
X54579000Y-52825001D03*
X54579000Y-53474999D03*
X60421000Y-53474999D03*
X60421000Y-52825001D03*
X60421000Y-52174999D03*
X60421000Y-51525001D03*
G04 #@! TA.AperFunction,SMDPad,CuDef*
G36*
G01*
X56850000Y-43099999D02*
X56850000Y-44400001D01*
G75*
G02*
X56600001Y-44650000I-249999J0D01*
G01*
X55774999Y-44650000D01*
G75*
G02*
X55525000Y-44400001I0J249999D01*
G01*
X55525000Y-43099999D01*
G75*
G02*
X55774999Y-42850000I249999J0D01*
G01*
X56600001Y-42850000D01*
G75*
G02*
X56850000Y-43099999I0J-249999D01*
G01*
G37*
G04 #@! TD.AperFunction*
G04 #@! TA.AperFunction,SMDPad,CuDef*
G36*
G01*
X59975000Y-43099999D02*
X59975000Y-44400001D01*
G75*
G02*
X59725001Y-44650000I-249999J0D01*
G01*
X58899999Y-44650000D01*
G75*
G02*
X58650000Y-44400001I0J249999D01*
G01*
X58650000Y-43099999D01*
G75*
G02*
X58899999Y-42850000I249999J0D01*
G01*
X59725001Y-42850000D01*
G75*
G02*
X59975000Y-43099999I0J-249999D01*
G01*
G37*
G04 #@! TD.AperFunction*
G04 #@! TA.AperFunction,SMDPad,CuDef*
G36*
G01*
X51475000Y-55349999D02*
X51475000Y-56650001D01*
G75*
G02*
X51225001Y-56900000I-249999J0D01*
G01*
X50399999Y-56900000D01*
G75*
G02*
X50150000Y-56650001I0J249999D01*
G01*
X50150000Y-55349999D01*
G75*
G02*
X50399999Y-55100000I249999J0D01*
G01*
X51225001Y-55100000D01*
G75*
G02*
X51475000Y-55349999I0J-249999D01*
G01*
G37*
G04 #@! TD.AperFunction*
G04 #@! TA.AperFunction,SMDPad,CuDef*
G36*
G01*
X48350000Y-55349999D02*
X48350000Y-56650001D01*
G75*
G02*
X48100001Y-56900000I-249999J0D01*
G01*
X47274999Y-56900000D01*
G75*
G02*
X47025000Y-56650001I0J249999D01*
G01*
X47025000Y-55349999D01*
G75*
G02*
X47274999Y-55100000I249999J0D01*
G01*
X48100001Y-55100000D01*
G75*
G02*
X48350000Y-55349999I0J-249999D01*
G01*
G37*
G04 #@! TD.AperFunction*
G04 #@! TA.AperFunction,SMDPad,CuDef*
G36*
G01*
X144160001Y-94935000D02*
X142859999Y-94935000D01*
G75*
G02*
X142610000Y-94685001I0J249999D01*
G01*
X142610000Y-93859999D01*
G75*
G02*
X142859999Y-93610000I249999J0D01*
G01*
X144160001Y-93610000D01*
G75*
G02*
X144410000Y-93859999I0J-249999D01*
G01*
X144410000Y-94685001D01*
G75*
G02*
X144160001Y-94935000I-249999J0D01*
G01*
G37*
G04 #@! TD.AperFunction*
G04 #@! TA.AperFunction,SMDPad,CuDef*
G36*
G01*
X144160001Y-91810000D02*
X142859999Y-91810000D01*
G75*
G02*
X142610000Y-91560001I0J249999D01*
G01*
X142610000Y-90734999D01*
G75*
G02*
X142859999Y-90485000I249999J0D01*
G01*
X144160001Y-90485000D01*
G75*
G02*
X144410000Y-90734999I0J-249999D01*
G01*
X144410000Y-91560001D01*
G75*
G02*
X144160001Y-91810000I-249999J0D01*
G01*
G37*
G04 #@! TD.AperFunction*
G04 #@! TA.AperFunction,SMDPad,CuDef*
G36*
G01*
X141589999Y-58050000D02*
X142890001Y-58050000D01*
G75*
G02*
X143140000Y-58299999I0J-249999D01*
G01*
X143140000Y-59125001D01*
G75*
G02*
X142890001Y-59375000I-249999J0D01*
G01*
X141589999Y-59375000D01*
G75*
G02*
X141340000Y-59125001I0J249999D01*
G01*
X141340000Y-58299999D01*
G75*
G02*
X141589999Y-58050000I249999J0D01*
G01*
G37*
G04 #@! TD.AperFunction*
G04 #@! TA.AperFunction,SMDPad,CuDef*
G36*
G01*
X141589999Y-54925000D02*
X142890001Y-54925000D01*
G75*
G02*
X143140000Y-55174999I0J-249999D01*
G01*
X143140000Y-56000001D01*
G75*
G02*
X142890001Y-56250000I-249999J0D01*
G01*
X141589999Y-56250000D01*
G75*
G02*
X141340000Y-56000001I0J249999D01*
G01*
X141340000Y-55174999D01*
G75*
G02*
X141589999Y-54925000I249999J0D01*
G01*
G37*
G04 #@! TD.AperFunction*
G04 #@! TA.AperFunction,SMDPad,CuDef*
G36*
G01*
X53417500Y-84439999D02*
X53417500Y-85740001D01*
G75*
G02*
X53167501Y-85990000I-249999J0D01*
G01*
X52342499Y-85990000D01*
G75*
G02*
X52092500Y-85740001I0J249999D01*
G01*
X52092500Y-84439999D01*
G75*
G02*
X52342499Y-84190000I249999J0D01*
G01*
X53167501Y-84190000D01*
G75*
G02*
X53417500Y-84439999I0J-249999D01*
G01*
G37*
G04 #@! TD.AperFunction*
G04 #@! TA.AperFunction,SMDPad,CuDef*
G36*
G01*
X56542500Y-84439999D02*
X56542500Y-85740001D01*
G75*
G02*
X56292501Y-85990000I-249999J0D01*
G01*
X55467499Y-85990000D01*
G75*
G02*
X55217500Y-85740001I0J249999D01*
G01*
X55217500Y-84439999D01*
G75*
G02*
X55467499Y-84190000I249999J0D01*
G01*
X56292501Y-84190000D01*
G75*
G02*
X56542500Y-84439999I0J-249999D01*
G01*
G37*
G04 #@! TD.AperFunction*
G04 #@! TA.AperFunction,SMDPad,CuDef*
G36*
G01*
X56775000Y-69650001D02*
X56775000Y-68349999D01*
G75*
G02*
X57024999Y-68100000I249999J0D01*
G01*
X57850001Y-68100000D01*
G75*
G02*
X58100000Y-68349999I0J-249999D01*
G01*
X58100000Y-69650001D01*
G75*
G02*
X57850001Y-69900000I-249999J0D01*
G01*
X57024999Y-69900000D01*
G75*
G02*
X56775000Y-69650001I0J249999D01*
G01*
G37*
G04 #@! TD.AperFunction*
G04 #@! TA.AperFunction,SMDPad,CuDef*
G36*
G01*
X59900000Y-69650001D02*
X59900000Y-68349999D01*
G75*
G02*
X60149999Y-68100000I249999J0D01*
G01*
X60975001Y-68100000D01*
G75*
G02*
X61225000Y-68349999I0J-249999D01*
G01*
X61225000Y-69650001D01*
G75*
G02*
X60975001Y-69900000I-249999J0D01*
G01*
X60149999Y-69900000D01*
G75*
G02*
X59900000Y-69650001I0J249999D01*
G01*
G37*
G04 #@! TD.AperFunction*
D17*
X55943500Y-78420001D03*
X55943500Y-77470000D03*
X55943500Y-76519999D03*
X53276500Y-76519999D03*
X53276500Y-77470000D03*
X53276500Y-78420001D03*
D18*
X152400000Y-44450000D03*
X154940000Y-44450000D03*
X157480000Y-44450000D03*
X151460000Y-108000000D03*
X154000000Y-108000000D03*
X156540000Y-108000000D03*
G04 #@! TA.AperFunction,SMDPad,CuDef*
G36*
G01*
X60125000Y-61150000D02*
X61375000Y-61150000D01*
G75*
G02*
X61625000Y-61400000I0J-250000D01*
G01*
X61625000Y-62200000D01*
G75*
G02*
X61375000Y-62450000I-250000J0D01*
G01*
X60125000Y-62450000D01*
G75*
G02*
X59875000Y-62200000I0J250000D01*
G01*
X59875000Y-61400000D01*
G75*
G02*
X60125000Y-61150000I250000J0D01*
G01*
G37*
G04 #@! TD.AperFunction*
G04 #@! TA.AperFunction,SMDPad,CuDef*
G36*
G01*
X60125000Y-58050000D02*
X61375000Y-58050000D01*
G75*
G02*
X61625000Y-58300000I0J-250000D01*
G01*
X61625000Y-59100000D01*
G75*
G02*
X61375000Y-59350000I-250000J0D01*
G01*
X60125000Y-59350000D01*
G75*
G02*
X59875000Y-59100000I0J250000D01*
G01*
X59875000Y-58300000D01*
G75*
G02*
X60125000Y-58050000I250000J0D01*
G01*
G37*
G04 #@! TD.AperFunction*
G04 #@! TA.AperFunction,SMDPad,CuDef*
G36*
G01*
X53875000Y-58050000D02*
X55125000Y-58050000D01*
G75*
G02*
X55375000Y-58300000I0J-250000D01*
G01*
X55375000Y-59100000D01*
G75*
G02*
X55125000Y-59350000I-250000J0D01*
G01*
X53875000Y-59350000D01*
G75*
G02*
X53625000Y-59100000I0J250000D01*
G01*
X53625000Y-58300000D01*
G75*
G02*
X53875000Y-58050000I250000J0D01*
G01*
G37*
G04 #@! TD.AperFunction*
G04 #@! TA.AperFunction,SMDPad,CuDef*
G36*
G01*
X53875000Y-61150000D02*
X55125000Y-61150000D01*
G75*
G02*
X55375000Y-61400000I0J-250000D01*
G01*
X55375000Y-62200000D01*
G75*
G02*
X55125000Y-62450000I-250000J0D01*
G01*
X53875000Y-62450000D01*
G75*
G02*
X53625000Y-62200000I0J250000D01*
G01*
X53625000Y-61400000D01*
G75*
G02*
X53875000Y-61150000I250000J0D01*
G01*
G37*
G04 #@! TD.AperFunction*
G04 #@! TA.AperFunction,SMDPad,CuDef*
G36*
G01*
X48174999Y-42150000D02*
X50325001Y-42150000D01*
G75*
G02*
X50575000Y-42399999I0J-249999D01*
G01*
X50575000Y-43300001D01*
G75*
G02*
X50325001Y-43550000I-249999J0D01*
G01*
X48174999Y-43550000D01*
G75*
G02*
X47925000Y-43300001I0J249999D01*
G01*
X47925000Y-42399999D01*
G75*
G02*
X48174999Y-42150000I249999J0D01*
G01*
G37*
G04 #@! TD.AperFunction*
G04 #@! TA.AperFunction,SMDPad,CuDef*
G36*
G01*
X48174999Y-46950000D02*
X50325001Y-46950000D01*
G75*
G02*
X50575000Y-47199999I0J-249999D01*
G01*
X50575000Y-48100001D01*
G75*
G02*
X50325001Y-48350000I-249999J0D01*
G01*
X48174999Y-48350000D01*
G75*
G02*
X47925000Y-48100001I0J249999D01*
G01*
X47925000Y-47199999D01*
G75*
G02*
X48174999Y-46950000I249999J0D01*
G01*
G37*
G04 #@! TD.AperFunction*
G04 #@! TA.AperFunction,SMDPad,CuDef*
G36*
G01*
X74875000Y-57200000D02*
X73625000Y-57200000D01*
G75*
G02*
X73375000Y-56950000I0J250000D01*
G01*
X73375000Y-56150000D01*
G75*
G02*
X73625000Y-55900000I250000J0D01*
G01*
X74875000Y-55900000D01*
G75*
G02*
X75125000Y-56150000I0J-250000D01*
G01*
X75125000Y-56950000D01*
G75*
G02*
X74875000Y-57200000I-250000J0D01*
G01*
G37*
G04 #@! TD.AperFunction*
G04 #@! TA.AperFunction,SMDPad,CuDef*
G36*
G01*
X74875000Y-54100000D02*
X73625000Y-54100000D01*
G75*
G02*
X73375000Y-53850000I0J250000D01*
G01*
X73375000Y-53050000D01*
G75*
G02*
X73625000Y-52800000I250000J0D01*
G01*
X74875000Y-52800000D01*
G75*
G02*
X75125000Y-53050000I0J-250000D01*
G01*
X75125000Y-53850000D01*
G75*
G02*
X74875000Y-54100000I-250000J0D01*
G01*
G37*
G04 #@! TD.AperFunction*
G04 #@! TA.AperFunction,SMDPad,CuDef*
G36*
G01*
X62875000Y-84720000D02*
X64125000Y-84720000D01*
G75*
G02*
X64375000Y-84970000I0J-250000D01*
G01*
X64375000Y-85770000D01*
G75*
G02*
X64125000Y-86020000I-250000J0D01*
G01*
X62875000Y-86020000D01*
G75*
G02*
X62625000Y-85770000I0J250000D01*
G01*
X62625000Y-84970000D01*
G75*
G02*
X62875000Y-84720000I250000J0D01*
G01*
G37*
G04 #@! TD.AperFunction*
G04 #@! TA.AperFunction,SMDPad,CuDef*
G36*
G01*
X62875000Y-81620000D02*
X64125000Y-81620000D01*
G75*
G02*
X64375000Y-81870000I0J-250000D01*
G01*
X64375000Y-82670000D01*
G75*
G02*
X64125000Y-82920000I-250000J0D01*
G01*
X62875000Y-82920000D01*
G75*
G02*
X62625000Y-82670000I0J250000D01*
G01*
X62625000Y-81870000D01*
G75*
G02*
X62875000Y-81620000I250000J0D01*
G01*
G37*
G04 #@! TD.AperFunction*
G04 #@! TA.AperFunction,SMDPad,CuDef*
G36*
G01*
X43520000Y-75555000D02*
X43520000Y-74305000D01*
G75*
G02*
X43770000Y-74055000I250000J0D01*
G01*
X44570000Y-74055000D01*
G75*
G02*
X44820000Y-74305000I0J-250000D01*
G01*
X44820000Y-75555000D01*
G75*
G02*
X44570000Y-75805000I-250000J0D01*
G01*
X43770000Y-75805000D01*
G75*
G02*
X43520000Y-75555000I0J250000D01*
G01*
G37*
G04 #@! TD.AperFunction*
G04 #@! TA.AperFunction,SMDPad,CuDef*
G36*
G01*
X46620000Y-75555000D02*
X46620000Y-74305000D01*
G75*
G02*
X46870000Y-74055000I250000J0D01*
G01*
X47670000Y-74055000D01*
G75*
G02*
X47920000Y-74305000I0J-250000D01*
G01*
X47920000Y-75555000D01*
G75*
G02*
X47670000Y-75805000I-250000J0D01*
G01*
X46870000Y-75805000D01*
G75*
G02*
X46620000Y-75555000I0J250000D01*
G01*
G37*
G04 #@! TD.AperFunction*
G04 #@! TA.AperFunction,SMDPad,CuDef*
G36*
G01*
X97475000Y-67929999D02*
X97475000Y-69230001D01*
G75*
G02*
X97225001Y-69480000I-249999J0D01*
G01*
X96399999Y-69480000D01*
G75*
G02*
X96150000Y-69230001I0J249999D01*
G01*
X96150000Y-67929999D01*
G75*
G02*
X96399999Y-67680000I249999J0D01*
G01*
X97225001Y-67680000D01*
G75*
G02*
X97475000Y-67929999I0J-249999D01*
G01*
G37*
G04 #@! TD.AperFunction*
G04 #@! TA.AperFunction,SMDPad,CuDef*
G36*
G01*
X94350000Y-67929999D02*
X94350000Y-69230001D01*
G75*
G02*
X94100001Y-69480000I-249999J0D01*
G01*
X93274999Y-69480000D01*
G75*
G02*
X93025000Y-69230001I0J249999D01*
G01*
X93025000Y-67929999D01*
G75*
G02*
X93274999Y-67680000I249999J0D01*
G01*
X94100001Y-67680000D01*
G75*
G02*
X94350000Y-67929999I0J-249999D01*
G01*
G37*
G04 #@! TD.AperFunction*
G04 #@! TA.AperFunction,SMDPad,CuDef*
G36*
G01*
X119010000Y-60340001D02*
X119010000Y-59039999D01*
G75*
G02*
X119259999Y-58790000I249999J0D01*
G01*
X120085001Y-58790000D01*
G75*
G02*
X120335000Y-59039999I0J-249999D01*
G01*
X120335000Y-60340001D01*
G75*
G02*
X120085001Y-60590000I-249999J0D01*
G01*
X119259999Y-60590000D01*
G75*
G02*
X119010000Y-60340001I0J249999D01*
G01*
G37*
G04 #@! TD.AperFunction*
G04 #@! TA.AperFunction,SMDPad,CuDef*
G36*
G01*
X115885000Y-60340001D02*
X115885000Y-59039999D01*
G75*
G02*
X116134999Y-58790000I249999J0D01*
G01*
X116960001Y-58790000D01*
G75*
G02*
X117210000Y-59039999I0J-249999D01*
G01*
X117210000Y-60340001D01*
G75*
G02*
X116960001Y-60590000I-249999J0D01*
G01*
X116134999Y-60590000D01*
G75*
G02*
X115885000Y-60340001I0J249999D01*
G01*
G37*
G04 #@! TD.AperFunction*
G04 #@! TA.AperFunction,SMDPad,CuDef*
G36*
G01*
X106365000Y-59039999D02*
X106365000Y-60340001D01*
G75*
G02*
X106115001Y-60590000I-249999J0D01*
G01*
X105289999Y-60590000D01*
G75*
G02*
X105040000Y-60340001I0J249999D01*
G01*
X105040000Y-59039999D01*
G75*
G02*
X105289999Y-58790000I249999J0D01*
G01*
X106115001Y-58790000D01*
G75*
G02*
X106365000Y-59039999I0J-249999D01*
G01*
G37*
G04 #@! TD.AperFunction*
G04 #@! TA.AperFunction,SMDPad,CuDef*
G36*
G01*
X103240000Y-59039999D02*
X103240000Y-60340001D01*
G75*
G02*
X102990001Y-60590000I-249999J0D01*
G01*
X102164999Y-60590000D01*
G75*
G02*
X101915000Y-60340001I0J249999D01*
G01*
X101915000Y-59039999D01*
G75*
G02*
X102164999Y-58790000I249999J0D01*
G01*
X102990001Y-58790000D01*
G75*
G02*
X103240000Y-59039999I0J-249999D01*
G01*
G37*
G04 #@! TD.AperFunction*
G04 #@! TA.AperFunction,SMDPad,CuDef*
G36*
G01*
X90540000Y-41259999D02*
X90540000Y-42560001D01*
G75*
G02*
X90290001Y-42810000I-249999J0D01*
G01*
X89464999Y-42810000D01*
G75*
G02*
X89215000Y-42560001I0J249999D01*
G01*
X89215000Y-41259999D01*
G75*
G02*
X89464999Y-41010000I249999J0D01*
G01*
X90290001Y-41010000D01*
G75*
G02*
X90540000Y-41259999I0J-249999D01*
G01*
G37*
G04 #@! TD.AperFunction*
G04 #@! TA.AperFunction,SMDPad,CuDef*
G36*
G01*
X93665000Y-41259999D02*
X93665000Y-42560001D01*
G75*
G02*
X93415001Y-42810000I-249999J0D01*
G01*
X92589999Y-42810000D01*
G75*
G02*
X92340000Y-42560001I0J249999D01*
G01*
X92340000Y-41259999D01*
G75*
G02*
X92589999Y-41010000I249999J0D01*
G01*
X93415001Y-41010000D01*
G75*
G02*
X93665000Y-41259999I0J-249999D01*
G01*
G37*
G04 #@! TD.AperFunction*
D19*
X107950000Y-44450000D03*
X107950000Y-49530000D03*
G04 #@! TA.AperFunction,SMDPad,CuDef*
G36*
G01*
X87010000Y-52715000D02*
X87010000Y-53965000D01*
G75*
G02*
X86760000Y-54215000I-250000J0D01*
G01*
X85960000Y-54215000D01*
G75*
G02*
X85710000Y-53965000I0J250000D01*
G01*
X85710000Y-52715000D01*
G75*
G02*
X85960000Y-52465000I250000J0D01*
G01*
X86760000Y-52465000D01*
G75*
G02*
X87010000Y-52715000I0J-250000D01*
G01*
G37*
G04 #@! TD.AperFunction*
G04 #@! TA.AperFunction,SMDPad,CuDef*
G36*
G01*
X83910000Y-52715000D02*
X83910000Y-53965000D01*
G75*
G02*
X83660000Y-54215000I-250000J0D01*
G01*
X82860000Y-54215000D01*
G75*
G02*
X82610000Y-53965000I0J250000D01*
G01*
X82610000Y-52715000D01*
G75*
G02*
X82860000Y-52465000I250000J0D01*
G01*
X83660000Y-52465000D01*
G75*
G02*
X83910000Y-52715000I0J-250000D01*
G01*
G37*
G04 #@! TD.AperFunction*
G04 #@! TA.AperFunction,SMDPad,CuDef*
G36*
G01*
X94350000Y-62875000D02*
X94350000Y-64125000D01*
G75*
G02*
X94100000Y-64375000I-250000J0D01*
G01*
X93300000Y-64375000D01*
G75*
G02*
X93050000Y-64125000I0J250000D01*
G01*
X93050000Y-62875000D01*
G75*
G02*
X93300000Y-62625000I250000J0D01*
G01*
X94100000Y-62625000D01*
G75*
G02*
X94350000Y-62875000I0J-250000D01*
G01*
G37*
G04 #@! TD.AperFunction*
G04 #@! TA.AperFunction,SMDPad,CuDef*
G36*
G01*
X97450000Y-62875000D02*
X97450000Y-64125000D01*
G75*
G02*
X97200000Y-64375000I-250000J0D01*
G01*
X96400000Y-64375000D01*
G75*
G02*
X96150000Y-64125000I0J250000D01*
G01*
X96150000Y-62875000D01*
G75*
G02*
X96400000Y-62625000I250000J0D01*
G01*
X97200000Y-62625000D01*
G75*
G02*
X97450000Y-62875000I0J-250000D01*
G01*
G37*
G04 #@! TD.AperFunction*
D20*
X93935550Y-53659999D03*
X93935550Y-54610000D03*
X93935550Y-55560001D03*
X96564450Y-55560001D03*
X96564450Y-54610000D03*
X96564450Y-53659999D03*
D18*
X90170000Y-115570000D03*
X90170000Y-113030000D03*
X92710000Y-115570000D03*
X92710000Y-113030000D03*
X95250000Y-115570000D03*
X95250000Y-113030000D03*
X97790000Y-115570000D03*
X97790000Y-113030000D03*
X100330000Y-115570000D03*
X100330000Y-113030000D03*
G04 #@! TA.AperFunction,SMDPad,CuDef*
D21*
G36*
X94500975Y-48125096D02*
G01*
X94501913Y-48125381D01*
X94502778Y-48125843D01*
X94503536Y-48126464D01*
X94504157Y-48127222D01*
X94504619Y-48128087D01*
X94504904Y-48129025D01*
X94505000Y-48130000D01*
X94505000Y-50930000D01*
X94504904Y-50930975D01*
X94504619Y-50931913D01*
X94504157Y-50932778D01*
X94503536Y-50933536D01*
X94502778Y-50934157D01*
X94501913Y-50934619D01*
X94500975Y-50934904D01*
X94500000Y-50935000D01*
X93300000Y-50935000D01*
X93299025Y-50934904D01*
X93298087Y-50934619D01*
X93297222Y-50934157D01*
X93296204Y-50933254D01*
X92996204Y-50583254D01*
X92995642Y-50582451D01*
X92995247Y-50581553D01*
X92995036Y-50580596D01*
X92995000Y-50580000D01*
X92995000Y-50285000D01*
X91500000Y-50285000D01*
X91499025Y-50284904D01*
X91498087Y-50284619D01*
X91497222Y-50284157D01*
X91496464Y-50283536D01*
X91495843Y-50282778D01*
X91495381Y-50281913D01*
X91495096Y-50280975D01*
X91495000Y-50280000D01*
X91495000Y-48780000D01*
X91495096Y-48779025D01*
X91495381Y-48778087D01*
X91495843Y-48777222D01*
X91496464Y-48776464D01*
X91497222Y-48775843D01*
X91498087Y-48775381D01*
X91499025Y-48775096D01*
X91500000Y-48775000D01*
X92995000Y-48775000D01*
X92995000Y-48480000D01*
X92995096Y-48479025D01*
X92995381Y-48478087D01*
X92995843Y-48477222D01*
X92996204Y-48476746D01*
X93296204Y-48126746D01*
X93296911Y-48126068D01*
X93297738Y-48125541D01*
X93298651Y-48125185D01*
X93300000Y-48125000D01*
X94500000Y-48125000D01*
X94500975Y-48125096D01*
G37*
G04 #@! TD.AperFunction*
G04 #@! TA.AperFunction,SMDPad,CuDef*
G36*
X97200975Y-48125096D02*
G01*
X97201913Y-48125381D01*
X97202778Y-48125843D01*
X97203796Y-48126746D01*
X97503796Y-48476746D01*
X97504358Y-48477549D01*
X97504753Y-48478447D01*
X97504964Y-48479404D01*
X97505000Y-48480000D01*
X97505000Y-48775000D01*
X99000000Y-48775000D01*
X99000975Y-48775096D01*
X99001913Y-48775381D01*
X99002778Y-48775843D01*
X99003536Y-48776464D01*
X99004157Y-48777222D01*
X99004619Y-48778087D01*
X99004904Y-48779025D01*
X99005000Y-48780000D01*
X99005000Y-50280000D01*
X99004904Y-50280975D01*
X99004619Y-50281913D01*
X99004157Y-50282778D01*
X99003536Y-50283536D01*
X99002778Y-50284157D01*
X99001913Y-50284619D01*
X99000975Y-50284904D01*
X99000000Y-50285000D01*
X97505000Y-50285000D01*
X97505000Y-50580000D01*
X97504904Y-50580975D01*
X97504619Y-50581913D01*
X97504157Y-50582778D01*
X97503796Y-50583254D01*
X97203796Y-50933254D01*
X97203089Y-50933932D01*
X97202262Y-50934459D01*
X97201349Y-50934815D01*
X97200000Y-50935000D01*
X96000000Y-50935000D01*
X95999025Y-50934904D01*
X95998087Y-50934619D01*
X95997222Y-50934157D01*
X95996464Y-50933536D01*
X95995843Y-50932778D01*
X95995381Y-50931913D01*
X95995096Y-50930975D01*
X95995000Y-50930000D01*
X95995000Y-48130000D01*
X95995096Y-48129025D01*
X95995381Y-48128087D01*
X95995843Y-48127222D01*
X95996464Y-48126464D01*
X95997222Y-48125843D01*
X95998087Y-48125381D01*
X95999025Y-48125096D01*
X96000000Y-48125000D01*
X97200000Y-48125000D01*
X97200975Y-48125096D01*
G37*
G04 #@! TD.AperFunction*
G04 #@! TA.AperFunction,SMDPad,CuDef*
G36*
G01*
X115230000Y-78115000D02*
X115230000Y-79365000D01*
G75*
G02*
X114980000Y-79615000I-250000J0D01*
G01*
X114180000Y-79615000D01*
G75*
G02*
X113930000Y-79365000I0J250000D01*
G01*
X113930000Y-78115000D01*
G75*
G02*
X114180000Y-77865000I250000J0D01*
G01*
X114980000Y-77865000D01*
G75*
G02*
X115230000Y-78115000I0J-250000D01*
G01*
G37*
G04 #@! TD.AperFunction*
G04 #@! TA.AperFunction,SMDPad,CuDef*
G36*
G01*
X112130000Y-78115000D02*
X112130000Y-79365000D01*
G75*
G02*
X111880000Y-79615000I-250000J0D01*
G01*
X111080000Y-79615000D01*
G75*
G02*
X110830000Y-79365000I0J250000D01*
G01*
X110830000Y-78115000D01*
G75*
G02*
X111080000Y-77865000I250000J0D01*
G01*
X111880000Y-77865000D01*
G75*
G02*
X112130000Y-78115000I0J-250000D01*
G01*
G37*
G04 #@! TD.AperFunction*
G04 #@! TA.AperFunction,SMDPad,CuDef*
G36*
G01*
X112130000Y-73035000D02*
X112130000Y-74285000D01*
G75*
G02*
X111880000Y-74535000I-250000J0D01*
G01*
X111080000Y-74535000D01*
G75*
G02*
X110830000Y-74285000I0J250000D01*
G01*
X110830000Y-73035000D01*
G75*
G02*
X111080000Y-72785000I250000J0D01*
G01*
X111880000Y-72785000D01*
G75*
G02*
X112130000Y-73035000I0J-250000D01*
G01*
G37*
G04 #@! TD.AperFunction*
G04 #@! TA.AperFunction,SMDPad,CuDef*
G36*
G01*
X115230000Y-73035000D02*
X115230000Y-74285000D01*
G75*
G02*
X114980000Y-74535000I-250000J0D01*
G01*
X114180000Y-74535000D01*
G75*
G02*
X113930000Y-74285000I0J250000D01*
G01*
X113930000Y-73035000D01*
G75*
G02*
X114180000Y-72785000I250000J0D01*
G01*
X114980000Y-72785000D01*
G75*
G02*
X115230000Y-73035000I0J-250000D01*
G01*
G37*
G04 #@! TD.AperFunction*
G04 #@! TA.AperFunction,SMDPad,CuDef*
G36*
G01*
X115230000Y-67955000D02*
X115230000Y-69205000D01*
G75*
G02*
X114980000Y-69455000I-250000J0D01*
G01*
X114180000Y-69455000D01*
G75*
G02*
X113930000Y-69205000I0J250000D01*
G01*
X113930000Y-67955000D01*
G75*
G02*
X114180000Y-67705000I250000J0D01*
G01*
X114980000Y-67705000D01*
G75*
G02*
X115230000Y-67955000I0J-250000D01*
G01*
G37*
G04 #@! TD.AperFunction*
G04 #@! TA.AperFunction,SMDPad,CuDef*
G36*
G01*
X112130000Y-67955000D02*
X112130000Y-69205000D01*
G75*
G02*
X111880000Y-69455000I-250000J0D01*
G01*
X111080000Y-69455000D01*
G75*
G02*
X110830000Y-69205000I0J250000D01*
G01*
X110830000Y-67955000D01*
G75*
G02*
X111080000Y-67705000I250000J0D01*
G01*
X111880000Y-67705000D01*
G75*
G02*
X112130000Y-67955000I0J-250000D01*
G01*
G37*
G04 #@! TD.AperFunction*
G04 #@! TA.AperFunction,SMDPad,CuDef*
G36*
G01*
X54240000Y-104765000D02*
X54240000Y-103515000D01*
G75*
G02*
X54490000Y-103265000I250000J0D01*
G01*
X55290000Y-103265000D01*
G75*
G02*
X55540000Y-103515000I0J-250000D01*
G01*
X55540000Y-104765000D01*
G75*
G02*
X55290000Y-105015000I-250000J0D01*
G01*
X54490000Y-105015000D01*
G75*
G02*
X54240000Y-104765000I0J250000D01*
G01*
G37*
G04 #@! TD.AperFunction*
G04 #@! TA.AperFunction,SMDPad,CuDef*
G36*
G01*
X51140000Y-104765000D02*
X51140000Y-103515000D01*
G75*
G02*
X51390000Y-103265000I250000J0D01*
G01*
X52190000Y-103265000D01*
G75*
G02*
X52440000Y-103515000I0J-250000D01*
G01*
X52440000Y-104765000D01*
G75*
G02*
X52190000Y-105015000I-250000J0D01*
G01*
X51390000Y-105015000D01*
G75*
G02*
X51140000Y-104765000I0J250000D01*
G01*
G37*
G04 #@! TD.AperFunction*
G04 #@! TA.AperFunction,SMDPad,CuDef*
G36*
G01*
X48600000Y-92065000D02*
X48600000Y-90815000D01*
G75*
G02*
X48850000Y-90565000I250000J0D01*
G01*
X49650000Y-90565000D01*
G75*
G02*
X49900000Y-90815000I0J-250000D01*
G01*
X49900000Y-92065000D01*
G75*
G02*
X49650000Y-92315000I-250000J0D01*
G01*
X48850000Y-92315000D01*
G75*
G02*
X48600000Y-92065000I0J250000D01*
G01*
G37*
G04 #@! TD.AperFunction*
G04 #@! TA.AperFunction,SMDPad,CuDef*
G36*
G01*
X51700000Y-92065000D02*
X51700000Y-90815000D01*
G75*
G02*
X51950000Y-90565000I250000J0D01*
G01*
X52750000Y-90565000D01*
G75*
G02*
X53000000Y-90815000I0J-250000D01*
G01*
X53000000Y-92065000D01*
G75*
G02*
X52750000Y-92315000I-250000J0D01*
G01*
X51950000Y-92315000D01*
G75*
G02*
X51700000Y-92065000I0J250000D01*
G01*
G37*
G04 #@! TD.AperFunction*
D22*
X50750000Y-40550000D03*
X63250000Y-51500000D03*
X63750000Y-53000000D03*
X65000000Y-89000000D03*
X147320000Y-90170000D03*
X138750000Y-64500000D03*
X55000000Y-91000000D03*
X63000000Y-69000000D03*
X123190000Y-59690000D03*
X119380000Y-62230000D03*
X102870000Y-62230000D03*
X74250000Y-89500000D03*
X74250000Y-72750000D03*
X147320000Y-104140000D03*
X58420000Y-77470000D03*
X55880000Y-81280000D03*
X102250000Y-107500000D03*
X102750000Y-67000000D03*
X97500000Y-73000000D03*
X87000000Y-108500000D03*
X99000000Y-74250000D03*
X102000000Y-78750000D03*
X52070000Y-80010000D03*
X48260000Y-88900000D03*
X48260000Y-78740000D03*
X50800000Y-80010000D03*
X97790000Y-62230000D03*
X97790000Y-54610000D03*
X102870000Y-50800000D03*
X91440000Y-55880000D03*
X93980000Y-58420000D03*
X93980000Y-60960000D03*
X86360000Y-55880000D03*
X105410000Y-52070000D03*
X105410000Y-57150000D03*
X110490000Y-58420000D03*
X110490000Y-60960000D03*
X113030000Y-64770000D03*
X138430000Y-90170000D03*
D23*
X49250000Y-42050000D02*
X50750000Y-40550000D01*
X49250000Y-42912500D02*
X49250000Y-42050000D01*
D24*
X62575001Y-52174999D02*
X60421000Y-52174999D01*
X63250000Y-51500000D02*
X62575001Y-52174999D01*
X60421000Y-52825001D02*
X63575001Y-52825001D01*
D25*
X63575001Y-52825001D02*
X63750000Y-53000000D01*
X60421000Y-52174999D02*
X60421000Y-52825001D01*
X65000000Y-89000000D02*
X63250000Y-87250000D01*
X142750000Y-59222500D02*
X142240000Y-58712500D01*
X146342500Y-91147500D02*
X143510000Y-91147500D01*
X147320000Y-90170000D02*
X146342500Y-91147500D01*
D23*
X138750000Y-64500000D02*
X140152900Y-64500000D01*
D25*
X142750000Y-61902900D02*
X142750000Y-61153600D01*
D23*
X140152900Y-64500000D02*
X142750000Y-61902900D01*
D25*
X142750000Y-61902900D02*
X142750000Y-59222500D01*
X63250000Y-85620000D02*
X63500000Y-85370000D01*
X63250000Y-87250000D02*
X63250000Y-85620000D01*
X54560000Y-91440000D02*
X55000000Y-91000000D01*
X52350000Y-91440000D02*
X54560000Y-91440000D01*
X60562500Y-69000000D02*
X63000000Y-69000000D01*
X119672500Y-59690000D02*
X123190000Y-59690000D01*
X102870000Y-59982500D02*
X102577500Y-59690000D01*
X119672500Y-61937500D02*
X119380000Y-62230000D01*
X119672500Y-59690000D02*
X119672500Y-61937500D01*
D23*
X102577500Y-59690000D02*
X99060000Y-59690000D01*
D25*
X102577500Y-61937500D02*
X102870000Y-62230000D01*
X102577500Y-59690000D02*
X102577500Y-61937500D01*
D23*
X93935550Y-54610000D02*
X88900000Y-54610000D01*
D25*
X157480000Y-44450000D02*
X157480000Y-52070000D01*
X96564450Y-55560001D02*
X98109999Y-55560001D01*
X97913001Y-53659999D02*
X96564450Y-53659999D01*
X98515001Y-55154999D02*
X98515001Y-54261999D01*
X98515001Y-54261999D02*
X97913001Y-53659999D01*
X98109999Y-55560001D02*
X98515001Y-55154999D01*
D23*
X142240000Y-55587500D02*
X102970000Y-55587500D01*
D25*
X96500000Y-53595549D02*
X96564450Y-53659999D01*
D23*
X102970000Y-55587500D02*
X102577500Y-55587500D01*
X102577500Y-55587500D02*
X102577500Y-53047500D01*
X102577500Y-53047500D02*
X100330000Y-50800000D01*
D25*
X97913001Y-50943001D02*
X96500000Y-49530000D01*
X97913001Y-53659999D02*
X97913001Y-50943001D01*
X114737500Y-68750000D02*
X144000000Y-68750000D01*
X156304999Y-60865001D02*
X157480000Y-59690000D01*
X151884999Y-60865001D02*
X156304999Y-60865001D01*
X144000000Y-68750000D02*
X151884999Y-60865001D01*
X114750000Y-73750000D02*
X140000000Y-73750000D01*
X156115001Y-63594999D02*
X157480000Y-62230000D01*
X150155001Y-63594999D02*
X156115001Y-63594999D01*
X140000000Y-73750000D02*
X150155001Y-63594999D01*
X156304999Y-65945001D02*
X157480000Y-64770000D01*
X148441409Y-65945001D02*
X156304999Y-65945001D01*
X135636410Y-78750000D02*
X148441409Y-65945001D01*
X114750000Y-78750000D02*
X135636410Y-78750000D01*
D23*
X154940000Y-97790000D02*
X157480000Y-97790000D01*
D25*
X74250000Y-72750000D02*
X74250000Y-56487500D01*
X77000000Y-91750000D02*
X100410000Y-112960000D01*
X74250000Y-89500000D02*
X77000000Y-91750000D01*
D23*
X159500000Y-98000000D02*
X159500000Y-101750000D01*
X157480000Y-97790000D02*
X159290000Y-97790000D01*
D25*
X159290000Y-97790000D02*
X159500000Y-98000000D01*
D23*
X159500000Y-101750000D02*
X158750000Y-102500000D01*
X153500000Y-102500000D02*
X152500000Y-101500000D01*
X158750000Y-102500000D02*
X157500000Y-102500000D01*
X157500000Y-102500000D02*
X153500000Y-102500000D01*
D25*
X146680000Y-103500000D02*
X147320000Y-104140000D01*
X146680000Y-101500000D02*
X146680000Y-103500000D01*
X152500000Y-101500000D02*
X146680000Y-101500000D01*
X42000000Y-67500000D02*
X37750000Y-63250000D01*
X42000000Y-73250000D02*
X42000000Y-67500000D01*
X60750000Y-61737500D02*
X54500000Y-61737500D01*
D23*
X37750000Y-77500000D02*
X42000000Y-73250000D01*
D25*
X45720000Y-98070000D02*
X51790000Y-104140000D01*
X45720000Y-83318499D02*
X45720000Y-98070000D01*
X52518500Y-76519999D02*
X45720000Y-83318499D01*
X53276500Y-76519999D02*
X52518500Y-76519999D01*
D26*
X154940000Y-95250000D02*
X157480000Y-95250000D01*
D25*
X67187501Y-76549999D02*
X69750000Y-73987500D01*
D23*
X56374999Y-76549999D02*
X67187501Y-76549999D01*
D25*
X55943500Y-77470000D02*
X58420000Y-77470000D01*
X55880000Y-81280000D02*
X55880000Y-85090000D01*
X42790000Y-52250000D02*
X44183000Y-52250000D01*
X42865001Y-52174999D02*
X42790000Y-52250000D01*
X54579000Y-52174999D02*
X42865001Y-52174999D01*
X55112400Y-51525001D02*
X54579000Y-51525001D01*
X59237500Y-47399901D02*
X55112400Y-51525001D01*
X59237500Y-43750000D02*
X59237500Y-47399901D01*
X53262501Y-53474999D02*
X50737500Y-56000000D01*
X54579000Y-53474999D02*
X53262501Y-53474999D01*
X54579000Y-58683500D02*
X54500000Y-58762500D01*
X54579000Y-53474999D02*
X54579000Y-58683500D01*
X36648390Y-53311610D02*
X37710000Y-52250000D01*
X36648390Y-54219586D02*
X36648390Y-53311610D01*
X37750000Y-55321196D02*
X36648390Y-54219586D01*
X37750000Y-59750000D02*
X37750000Y-55321196D01*
X36300000Y-59750000D02*
X35250000Y-60800000D01*
X37750000Y-59750000D02*
X36300000Y-59750000D01*
X37750000Y-72550000D02*
X37750000Y-74000000D01*
X35250000Y-70050000D02*
X37750000Y-72550000D01*
X35250000Y-60800000D02*
X35250000Y-70050000D01*
X61382200Y-53474999D02*
X61907201Y-54000000D01*
X60421000Y-53474999D02*
X61382200Y-53474999D01*
X73275000Y-53512500D02*
X74250000Y-53512500D01*
X72787500Y-54000000D02*
X73275000Y-53512500D01*
X61907201Y-54000000D02*
X72787500Y-54000000D01*
X75225000Y-53512500D02*
X104212500Y-82500000D01*
X74250000Y-53512500D02*
X75225000Y-53512500D01*
X156304999Y-88994999D02*
X157480000Y-90170000D01*
X150068001Y-88994999D02*
X156304999Y-88994999D01*
X143573002Y-82500000D02*
X150068001Y-88994999D01*
X104212500Y-82500000D02*
X143573002Y-82500000D01*
X100410000Y-115500000D02*
X102250000Y-113660000D01*
X102250000Y-113660000D02*
X102250000Y-107500000D01*
X102750000Y-67000000D02*
X103500000Y-66250000D01*
X143300000Y-66250000D02*
X154940000Y-54610000D01*
X103500000Y-66250000D02*
X143300000Y-66250000D01*
X111762500Y-68750000D02*
X101750000Y-68750000D01*
X101750000Y-68750000D02*
X97500000Y-73000000D01*
X87000000Y-109710000D02*
X87000000Y-108500000D01*
X90250000Y-112960000D02*
X87000000Y-109710000D01*
X110962500Y-73750000D02*
X110462500Y-74250000D01*
X111775000Y-73750000D02*
X110962500Y-73750000D01*
X110462500Y-74250000D02*
X99000000Y-74250000D01*
X111775000Y-78750000D02*
X102000000Y-78750000D01*
X92580000Y-118250000D02*
X95330000Y-115500000D01*
X81750000Y-118250000D02*
X92580000Y-118250000D01*
X67640000Y-104140000D02*
X70650000Y-107150000D01*
X54890000Y-104140000D02*
X67640000Y-104140000D01*
X70650000Y-107150000D02*
X81750000Y-118250000D01*
X70250000Y-106750000D02*
X70650000Y-107150000D01*
X81370000Y-99000000D02*
X95330000Y-112960000D01*
X53276500Y-77470000D02*
X53340000Y-77470000D01*
X68512500Y-99000000D02*
X68640000Y-99000000D01*
X68640000Y-99000000D02*
X81370000Y-99000000D01*
X52879499Y-77470000D02*
X53276500Y-77470000D01*
X52070000Y-78279499D02*
X52879499Y-77470000D01*
X52070000Y-80010000D02*
X52070000Y-78279499D01*
X49250000Y-89890000D02*
X49250000Y-91440000D01*
X48260000Y-88900000D02*
X49250000Y-89890000D01*
X56810000Y-99000000D02*
X68640000Y-99000000D01*
X49250000Y-91440000D02*
X56810000Y-99000000D01*
X60750000Y-57950000D02*
X60750000Y-58762500D01*
X55625001Y-52825001D02*
X60750000Y-57950000D01*
X54579000Y-52825001D02*
X55625001Y-52825001D01*
X44170000Y-74930000D02*
X47980000Y-78740000D01*
X52755000Y-85090000D02*
X52070000Y-85090000D01*
X52070000Y-85090000D02*
X50800000Y-83820000D01*
X50800000Y-83820000D02*
X50800000Y-80010000D01*
X51525001Y-80735001D02*
X52614999Y-80735001D01*
X50800000Y-80010000D02*
X51525001Y-80735001D01*
X53276500Y-80073500D02*
X53276500Y-78420001D01*
X52614999Y-80735001D02*
X53276500Y-80073500D01*
X60514999Y-79284999D02*
X56808498Y-79284999D01*
X56808498Y-79284999D02*
X55943500Y-78420001D01*
X63500000Y-82270000D02*
X60514999Y-79284999D01*
X96812500Y-63512500D02*
X96800000Y-63500000D01*
X96812500Y-68580000D02*
X96812500Y-63512500D01*
X96800000Y-63220000D02*
X97790000Y-62230000D01*
X96800000Y-63500000D02*
X96800000Y-63220000D01*
X97790000Y-54610000D02*
X96564450Y-54610000D01*
X103768190Y-63500000D02*
X96800000Y-63500000D01*
X107578190Y-59690000D02*
X103768190Y-63500000D01*
X116547500Y-59690000D02*
X107578190Y-59690000D01*
X104140000Y-46990000D02*
X104140000Y-44450000D01*
X104140000Y-44450000D02*
X107950000Y-44450000D01*
X102870000Y-48260000D02*
X104140000Y-46990000D01*
X102870000Y-50800000D02*
X102870000Y-48260000D01*
X93615551Y-55880000D02*
X93935550Y-55560001D01*
X92710000Y-55880000D02*
X93615551Y-55880000D01*
X93935550Y-58375550D02*
X93980000Y-58420000D01*
X93935550Y-55560001D02*
X93935550Y-58375550D01*
X93980000Y-63220000D02*
X93700000Y-63500000D01*
X93980000Y-60960000D02*
X93980000Y-63220000D01*
X93700000Y-68567500D02*
X93687500Y-68580000D01*
X93700000Y-63500000D02*
X93700000Y-68567500D01*
X92710000Y-55880000D02*
X91440000Y-55880000D01*
X86360000Y-55880000D02*
X86360000Y-53340000D01*
X107950000Y-49530000D02*
X105410000Y-52070000D01*
X105702500Y-57442500D02*
X105410000Y-57150000D01*
X105702500Y-59690000D02*
X105702500Y-57442500D01*
X106972500Y-58420000D02*
X110490000Y-58420000D01*
X105702500Y-59690000D02*
X106972500Y-58420000D01*
X110490000Y-60960000D02*
X110490000Y-62230000D01*
X110490000Y-62230000D02*
X113030000Y-64770000D01*
X155491813Y-101505001D02*
X157073407Y-99923407D01*
X153764999Y-100894001D02*
X154375999Y-101505001D01*
X148255811Y-100894001D02*
X153764999Y-100894001D01*
X138430000Y-91068190D02*
X148255811Y-100894001D01*
X154375999Y-101505001D02*
X155491813Y-101505001D01*
X138430000Y-90170000D02*
X138430000Y-91068190D01*
X94000000Y-53595549D02*
X93935550Y-53659999D01*
X94000000Y-49530000D02*
X94000000Y-53595549D01*
D27*
X39623000Y-60873000D02*
X39587772Y-60873000D01*
X39585000Y-60162750D01*
X39426250Y-60004000D01*
X38004000Y-60004000D01*
X38004000Y-60024000D01*
X37496000Y-60024000D01*
X37496000Y-60004000D01*
X36073750Y-60004000D01*
X35915000Y-60162750D01*
X35912228Y-60873000D01*
X35625000Y-60873000D01*
X35600224Y-60875440D01*
X35576399Y-60882667D01*
X35554443Y-60894403D01*
X35535197Y-60910197D01*
X35519403Y-60929443D01*
X35507667Y-60951399D01*
X35500440Y-60975224D01*
X35498044Y-61003341D01*
X35623044Y-65753341D01*
X35626135Y-65778045D01*
X35633986Y-65801671D01*
X35646296Y-65823311D01*
X35662591Y-65842134D01*
X35682245Y-65857416D01*
X35704503Y-65868571D01*
X35728509Y-65875168D01*
X35750000Y-65877000D01*
X37623000Y-65877000D01*
X37623000Y-72000000D01*
X37625440Y-72024776D01*
X37632667Y-72048601D01*
X37644403Y-72070557D01*
X37660197Y-72089803D01*
X37679443Y-72105597D01*
X37701399Y-72117333D01*
X37725224Y-72124560D01*
X37750000Y-72127000D01*
X39373000Y-72127000D01*
X39373000Y-72325684D01*
X39304494Y-72269463D01*
X39194180Y-72210498D01*
X39074482Y-72174188D01*
X38950000Y-72161928D01*
X38162750Y-72165000D01*
X38004000Y-72323750D01*
X38004000Y-73746000D01*
X38024000Y-73746000D01*
X38024000Y-74254000D01*
X38004000Y-74254000D01*
X38004000Y-74274000D01*
X37496000Y-74274000D01*
X37496000Y-74254000D01*
X36073750Y-74254000D01*
X35915000Y-74412750D01*
X35912421Y-75073595D01*
X33625364Y-74883007D01*
X33596026Y-72800000D01*
X35911928Y-72800000D01*
X35915000Y-73587250D01*
X36073750Y-73746000D01*
X37496000Y-73746000D01*
X37496000Y-72323750D01*
X37337250Y-72165000D01*
X36550000Y-72161928D01*
X36425518Y-72174188D01*
X36305820Y-72210498D01*
X36195506Y-72269463D01*
X36098815Y-72348815D01*
X36019463Y-72445506D01*
X35960498Y-72555820D01*
X35924188Y-72675518D01*
X35911928Y-72800000D01*
X33596026Y-72800000D01*
X33395323Y-58550000D01*
X35911928Y-58550000D01*
X35915000Y-59337250D01*
X36073750Y-59496000D01*
X37496000Y-59496000D01*
X37496000Y-58073750D01*
X38004000Y-58073750D01*
X38004000Y-59496000D01*
X39426250Y-59496000D01*
X39585000Y-59337250D01*
X39588072Y-58550000D01*
X39575812Y-58425518D01*
X39539502Y-58305820D01*
X39480537Y-58195506D01*
X39401185Y-58098815D01*
X39304494Y-58019463D01*
X39194180Y-57960498D01*
X39074482Y-57924188D01*
X38950000Y-57911928D01*
X38162750Y-57915000D01*
X38004000Y-58073750D01*
X37496000Y-58073750D01*
X37337250Y-57915000D01*
X36550000Y-57911928D01*
X36425518Y-57924188D01*
X36305820Y-57960498D01*
X36195506Y-58019463D01*
X36098815Y-58098815D01*
X36019463Y-58195506D01*
X35960498Y-58305820D01*
X35924188Y-58425518D01*
X35911928Y-58550000D01*
X33395323Y-58550000D01*
X33376987Y-57248211D01*
X33372427Y-57216227D01*
X31416778Y-50127000D01*
X39623000Y-50127000D01*
X39623000Y-60873000D01*
G04 #@! TA.AperFunction,Conductor*
D28*
G36*
X39623000Y-60873000D02*
G01*
X39587772Y-60873000D01*
X39585000Y-60162750D01*
X39426250Y-60004000D01*
X38004000Y-60004000D01*
X38004000Y-60024000D01*
X37496000Y-60024000D01*
X37496000Y-60004000D01*
X36073750Y-60004000D01*
X35915000Y-60162750D01*
X35912228Y-60873000D01*
X35625000Y-60873000D01*
X35600224Y-60875440D01*
X35576399Y-60882667D01*
X35554443Y-60894403D01*
X35535197Y-60910197D01*
X35519403Y-60929443D01*
X35507667Y-60951399D01*
X35500440Y-60975224D01*
X35498044Y-61003341D01*
X35623044Y-65753341D01*
X35626135Y-65778045D01*
X35633986Y-65801671D01*
X35646296Y-65823311D01*
X35662591Y-65842134D01*
X35682245Y-65857416D01*
X35704503Y-65868571D01*
X35728509Y-65875168D01*
X35750000Y-65877000D01*
X37623000Y-65877000D01*
X37623000Y-72000000D01*
X37625440Y-72024776D01*
X37632667Y-72048601D01*
X37644403Y-72070557D01*
X37660197Y-72089803D01*
X37679443Y-72105597D01*
X37701399Y-72117333D01*
X37725224Y-72124560D01*
X37750000Y-72127000D01*
X39373000Y-72127000D01*
X39373000Y-72325684D01*
X39304494Y-72269463D01*
X39194180Y-72210498D01*
X39074482Y-72174188D01*
X38950000Y-72161928D01*
X38162750Y-72165000D01*
X38004000Y-72323750D01*
X38004000Y-73746000D01*
X38024000Y-73746000D01*
X38024000Y-74254000D01*
X38004000Y-74254000D01*
X38004000Y-74274000D01*
X37496000Y-74274000D01*
X37496000Y-74254000D01*
X36073750Y-74254000D01*
X35915000Y-74412750D01*
X35912421Y-75073595D01*
X33625364Y-74883007D01*
X33596026Y-72800000D01*
X35911928Y-72800000D01*
X35915000Y-73587250D01*
X36073750Y-73746000D01*
X37496000Y-73746000D01*
X37496000Y-72323750D01*
X37337250Y-72165000D01*
X36550000Y-72161928D01*
X36425518Y-72174188D01*
X36305820Y-72210498D01*
X36195506Y-72269463D01*
X36098815Y-72348815D01*
X36019463Y-72445506D01*
X35960498Y-72555820D01*
X35924188Y-72675518D01*
X35911928Y-72800000D01*
X33596026Y-72800000D01*
X33395323Y-58550000D01*
X35911928Y-58550000D01*
X35915000Y-59337250D01*
X36073750Y-59496000D01*
X37496000Y-59496000D01*
X37496000Y-58073750D01*
X38004000Y-58073750D01*
X38004000Y-59496000D01*
X39426250Y-59496000D01*
X39585000Y-59337250D01*
X39588072Y-58550000D01*
X39575812Y-58425518D01*
X39539502Y-58305820D01*
X39480537Y-58195506D01*
X39401185Y-58098815D01*
X39304494Y-58019463D01*
X39194180Y-57960498D01*
X39074482Y-57924188D01*
X38950000Y-57911928D01*
X38162750Y-57915000D01*
X38004000Y-58073750D01*
X37496000Y-58073750D01*
X37337250Y-57915000D01*
X36550000Y-57911928D01*
X36425518Y-57924188D01*
X36305820Y-57960498D01*
X36195506Y-58019463D01*
X36098815Y-58098815D01*
X36019463Y-58195506D01*
X35960498Y-58305820D01*
X35924188Y-58425518D01*
X35911928Y-58550000D01*
X33395323Y-58550000D01*
X33376987Y-57248211D01*
X33372427Y-57216227D01*
X31416778Y-50127000D01*
X39623000Y-50127000D01*
X39623000Y-60873000D01*
G37*
G04 #@! TD.AperFunction*
D27*
X61873000Y-60625479D02*
X61873000Y-64704235D01*
X58926709Y-66786214D01*
X58907882Y-66802506D01*
X58892596Y-66822157D01*
X58881438Y-66844412D01*
X58874836Y-66868417D01*
X58873000Y-66889932D01*
X58873000Y-71103089D01*
X54452582Y-72882184D01*
X54430509Y-72893699D01*
X54411106Y-72909298D01*
X54395119Y-72928384D01*
X54383162Y-72950221D01*
X54375696Y-72973971D01*
X54373000Y-73000000D01*
X54373000Y-76623000D01*
X54017149Y-76623000D01*
X53908982Y-76590188D01*
X53784500Y-76577928D01*
X52768500Y-76577928D01*
X52644018Y-76590188D01*
X52535851Y-76623000D01*
X52250000Y-76623000D01*
X52216584Y-76627475D01*
X48265659Y-77705000D01*
X48158061Y-77705000D01*
X48042740Y-77727939D01*
X45458072Y-75143271D01*
X45458072Y-74305000D01*
X45441008Y-74131746D01*
X45390472Y-73965150D01*
X45308405Y-73811614D01*
X45197962Y-73677038D01*
X45063386Y-73566595D01*
X44909850Y-73484528D01*
X44743254Y-73433992D01*
X44570000Y-73416928D01*
X43770000Y-73416928D01*
X43596746Y-73433992D01*
X43430150Y-73484528D01*
X43276614Y-73566595D01*
X43142038Y-73677038D01*
X43031595Y-73811614D01*
X42949528Y-73965150D01*
X42898992Y-74131746D01*
X42881928Y-74305000D01*
X42881928Y-75555000D01*
X42898992Y-75728254D01*
X42949528Y-75894850D01*
X43031595Y-76048386D01*
X43142038Y-76182962D01*
X43276614Y-76293405D01*
X43430150Y-76375472D01*
X43596746Y-76426008D01*
X43770000Y-76443072D01*
X44570000Y-76443072D01*
X44604839Y-76439641D01*
X46383511Y-78218313D01*
X41232992Y-79623000D01*
X33627000Y-79623000D01*
X33627000Y-78857557D01*
X36751653Y-78857557D01*
X36882017Y-79126806D01*
X37216069Y-79264882D01*
X37570640Y-79335135D01*
X37932103Y-79334865D01*
X38286569Y-79264082D01*
X38617983Y-79126806D01*
X38748347Y-78857557D01*
X37750000Y-77859210D01*
X36751653Y-78857557D01*
X33627000Y-78857557D01*
X33627000Y-77320640D01*
X35914865Y-77320640D01*
X35915135Y-77682103D01*
X35985918Y-78036569D01*
X36123194Y-78367983D01*
X36392443Y-78498347D01*
X37390790Y-77500000D01*
X36392443Y-76501653D01*
X36123194Y-76632017D01*
X35985118Y-76966069D01*
X35914865Y-77320640D01*
X33627000Y-77320640D01*
X33627000Y-75886755D01*
X36762979Y-76119050D01*
X36751653Y-76142443D01*
X37750000Y-77140790D01*
X37764143Y-77126648D01*
X38123353Y-77485858D01*
X38109210Y-77500000D01*
X39107557Y-78498347D01*
X39376806Y-78367983D01*
X39514882Y-78033931D01*
X39585135Y-77679360D01*
X39584865Y-77317897D01*
X39514082Y-76963431D01*
X39376806Y-76632017D01*
X39107559Y-76501654D01*
X39232991Y-76376222D01*
X39152846Y-76296077D01*
X40240618Y-76376653D01*
X40265507Y-76376050D01*
X40289800Y-76370602D01*
X40312564Y-76360520D01*
X40332923Y-76346191D01*
X40350096Y-76328165D01*
X40363422Y-76307136D01*
X40372389Y-76283910D01*
X40377000Y-76250000D01*
X40377000Y-71250000D01*
X40374560Y-71225224D01*
X40367333Y-71201399D01*
X40355597Y-71179443D01*
X40339803Y-71160197D01*
X40320557Y-71144403D01*
X40298601Y-71132667D01*
X40274776Y-71125440D01*
X40250000Y-71123000D01*
X38627000Y-71123000D01*
X38627000Y-65000000D01*
X38624560Y-64975224D01*
X38617333Y-64951399D01*
X38605597Y-64929443D01*
X38589803Y-64910197D01*
X38572215Y-64895764D01*
X38617983Y-64876806D01*
X38748347Y-64607557D01*
X37750000Y-63609210D01*
X36751653Y-64607557D01*
X36880174Y-64873000D01*
X36377000Y-64873000D01*
X36377000Y-64240870D01*
X36392443Y-64248347D01*
X37390790Y-63250000D01*
X38109210Y-63250000D01*
X39107557Y-64248347D01*
X39376806Y-64117983D01*
X39514882Y-63783931D01*
X39585135Y-63429360D01*
X39584865Y-63067897D01*
X39514082Y-62713431D01*
X39376806Y-62382017D01*
X39107557Y-62251653D01*
X38109210Y-63250000D01*
X37390790Y-63250000D01*
X36392443Y-62251653D01*
X36377000Y-62259130D01*
X36377000Y-61877000D01*
X36759130Y-61877000D01*
X36751653Y-61892443D01*
X37750000Y-62890790D01*
X38748347Y-61892443D01*
X38740870Y-61877000D01*
X40000000Y-61877000D01*
X40024776Y-61874560D01*
X40048601Y-61867333D01*
X40070557Y-61855597D01*
X40097564Y-61831303D01*
X41308884Y-60377719D01*
X61873000Y-60625479D01*
G04 #@! TA.AperFunction,Conductor*
D28*
G36*
X61873000Y-60625479D02*
G01*
X61873000Y-64704235D01*
X58926709Y-66786214D01*
X58907882Y-66802506D01*
X58892596Y-66822157D01*
X58881438Y-66844412D01*
X58874836Y-66868417D01*
X58873000Y-66889932D01*
X58873000Y-71103089D01*
X54452582Y-72882184D01*
X54430509Y-72893699D01*
X54411106Y-72909298D01*
X54395119Y-72928384D01*
X54383162Y-72950221D01*
X54375696Y-72973971D01*
X54373000Y-73000000D01*
X54373000Y-76623000D01*
X54017149Y-76623000D01*
X53908982Y-76590188D01*
X53784500Y-76577928D01*
X52768500Y-76577928D01*
X52644018Y-76590188D01*
X52535851Y-76623000D01*
X52250000Y-76623000D01*
X52216584Y-76627475D01*
X48265659Y-77705000D01*
X48158061Y-77705000D01*
X48042740Y-77727939D01*
X45458072Y-75143271D01*
X45458072Y-74305000D01*
X45441008Y-74131746D01*
X45390472Y-73965150D01*
X45308405Y-73811614D01*
X45197962Y-73677038D01*
X45063386Y-73566595D01*
X44909850Y-73484528D01*
X44743254Y-73433992D01*
X44570000Y-73416928D01*
X43770000Y-73416928D01*
X43596746Y-73433992D01*
X43430150Y-73484528D01*
X43276614Y-73566595D01*
X43142038Y-73677038D01*
X43031595Y-73811614D01*
X42949528Y-73965150D01*
X42898992Y-74131746D01*
X42881928Y-74305000D01*
X42881928Y-75555000D01*
X42898992Y-75728254D01*
X42949528Y-75894850D01*
X43031595Y-76048386D01*
X43142038Y-76182962D01*
X43276614Y-76293405D01*
X43430150Y-76375472D01*
X43596746Y-76426008D01*
X43770000Y-76443072D01*
X44570000Y-76443072D01*
X44604839Y-76439641D01*
X46383511Y-78218313D01*
X41232992Y-79623000D01*
X33627000Y-79623000D01*
X33627000Y-78857557D01*
X36751653Y-78857557D01*
X36882017Y-79126806D01*
X37216069Y-79264882D01*
X37570640Y-79335135D01*
X37932103Y-79334865D01*
X38286569Y-79264082D01*
X38617983Y-79126806D01*
X38748347Y-78857557D01*
X37750000Y-77859210D01*
X36751653Y-78857557D01*
X33627000Y-78857557D01*
X33627000Y-77320640D01*
X35914865Y-77320640D01*
X35915135Y-77682103D01*
X35985918Y-78036569D01*
X36123194Y-78367983D01*
X36392443Y-78498347D01*
X37390790Y-77500000D01*
X36392443Y-76501653D01*
X36123194Y-76632017D01*
X35985118Y-76966069D01*
X35914865Y-77320640D01*
X33627000Y-77320640D01*
X33627000Y-75886755D01*
X36762979Y-76119050D01*
X36751653Y-76142443D01*
X37750000Y-77140790D01*
X37764143Y-77126648D01*
X38123353Y-77485858D01*
X38109210Y-77500000D01*
X39107557Y-78498347D01*
X39376806Y-78367983D01*
X39514882Y-78033931D01*
X39585135Y-77679360D01*
X39584865Y-77317897D01*
X39514082Y-76963431D01*
X39376806Y-76632017D01*
X39107559Y-76501654D01*
X39232991Y-76376222D01*
X39152846Y-76296077D01*
X40240618Y-76376653D01*
X40265507Y-76376050D01*
X40289800Y-76370602D01*
X40312564Y-76360520D01*
X40332923Y-76346191D01*
X40350096Y-76328165D01*
X40363422Y-76307136D01*
X40372389Y-76283910D01*
X40377000Y-76250000D01*
X40377000Y-71250000D01*
X40374560Y-71225224D01*
X40367333Y-71201399D01*
X40355597Y-71179443D01*
X40339803Y-71160197D01*
X40320557Y-71144403D01*
X40298601Y-71132667D01*
X40274776Y-71125440D01*
X40250000Y-71123000D01*
X38627000Y-71123000D01*
X38627000Y-65000000D01*
X38624560Y-64975224D01*
X38617333Y-64951399D01*
X38605597Y-64929443D01*
X38589803Y-64910197D01*
X38572215Y-64895764D01*
X38617983Y-64876806D01*
X38748347Y-64607557D01*
X37750000Y-63609210D01*
X36751653Y-64607557D01*
X36880174Y-64873000D01*
X36377000Y-64873000D01*
X36377000Y-64240870D01*
X36392443Y-64248347D01*
X37390790Y-63250000D01*
X38109210Y-63250000D01*
X39107557Y-64248347D01*
X39376806Y-64117983D01*
X39514882Y-63783931D01*
X39585135Y-63429360D01*
X39584865Y-63067897D01*
X39514082Y-62713431D01*
X39376806Y-62382017D01*
X39107557Y-62251653D01*
X38109210Y-63250000D01*
X37390790Y-63250000D01*
X36392443Y-62251653D01*
X36377000Y-62259130D01*
X36377000Y-61877000D01*
X36759130Y-61877000D01*
X36751653Y-61892443D01*
X37750000Y-62890790D01*
X38748347Y-61892443D01*
X38740870Y-61877000D01*
X40000000Y-61877000D01*
X40024776Y-61874560D01*
X40048601Y-61867333D01*
X40070557Y-61855597D01*
X40097564Y-61831303D01*
X41308884Y-60377719D01*
X61873000Y-60625479D01*
G37*
G04 #@! TD.AperFunction*
D27*
X159373000Y-53373000D02*
X158301629Y-53373000D01*
X158244466Y-53334805D01*
X158361355Y-53265178D01*
X158577588Y-53070269D01*
X158751641Y-52836920D01*
X158876825Y-52574099D01*
X158921476Y-52426890D01*
X158800155Y-52197000D01*
X157607000Y-52197000D01*
X157607000Y-52217000D01*
X157353000Y-52217000D01*
X157353000Y-52197000D01*
X157333000Y-52197000D01*
X157333000Y-51943000D01*
X157353000Y-51943000D01*
X157353000Y-50749186D01*
X157607000Y-50749186D01*
X157607000Y-51943000D01*
X158800155Y-51943000D01*
X158921476Y-51713110D01*
X158876825Y-51565901D01*
X158751641Y-51303080D01*
X158577588Y-51069731D01*
X158361355Y-50874822D01*
X158111252Y-50725843D01*
X157836891Y-50628519D01*
X157607000Y-50749186D01*
X157353000Y-50749186D01*
X157123109Y-50628519D01*
X156848748Y-50725843D01*
X156598645Y-50874822D01*
X156402498Y-51051626D01*
X156379502Y-50975820D01*
X156320537Y-50865506D01*
X156241185Y-50768815D01*
X156144494Y-50689463D01*
X156034180Y-50630498D01*
X155914482Y-50594188D01*
X155790000Y-50581928D01*
X154090000Y-50581928D01*
X153965518Y-50594188D01*
X153845820Y-50630498D01*
X153735506Y-50689463D01*
X153638815Y-50768815D01*
X153559463Y-50865506D01*
X153500498Y-50975820D01*
X153464188Y-51095518D01*
X153451928Y-51220000D01*
X153451928Y-52920000D01*
X153464188Y-53044482D01*
X153500498Y-53164180D01*
X153559463Y-53274494D01*
X153638815Y-53371185D01*
X153641027Y-53373000D01*
X153000000Y-53373000D01*
X152975224Y-53375440D01*
X152951399Y-53382667D01*
X152931938Y-53392778D01*
X147213095Y-57023000D01*
X139827000Y-57023000D01*
X139827000Y-51127000D01*
X150250000Y-51127000D01*
X150274776Y-51124560D01*
X150298601Y-51117333D01*
X150320557Y-51105597D01*
X150331805Y-51097144D01*
X155081805Y-47097144D01*
X155099185Y-47079318D01*
X155112753Y-47058444D01*
X155121989Y-47035323D01*
X155127000Y-47000000D01*
X155127000Y-45837172D01*
X155347490Y-45793314D01*
X155601727Y-45688005D01*
X155830535Y-45535120D01*
X155950090Y-45415565D01*
X156694040Y-45415565D01*
X156761020Y-45655656D01*
X157010048Y-45772756D01*
X157277135Y-45839023D01*
X157552017Y-45851910D01*
X157824133Y-45810922D01*
X158083023Y-45717636D01*
X158198980Y-45655656D01*
X158265960Y-45415565D01*
X157480000Y-44629605D01*
X156694040Y-45415565D01*
X155950090Y-45415565D01*
X156025120Y-45340535D01*
X156178005Y-45111727D01*
X156207692Y-45040057D01*
X156212364Y-45053023D01*
X156274344Y-45168980D01*
X156514435Y-45235960D01*
X157300395Y-44450000D01*
X157659605Y-44450000D01*
X158445565Y-45235960D01*
X158685656Y-45168980D01*
X158802756Y-44919952D01*
X158869023Y-44652865D01*
X158881910Y-44377983D01*
X158840922Y-44105867D01*
X158747636Y-43846977D01*
X158685656Y-43731020D01*
X158445565Y-43664040D01*
X157659605Y-44450000D01*
X157300395Y-44450000D01*
X156514435Y-43664040D01*
X156274344Y-43731020D01*
X156210515Y-43866760D01*
X156178005Y-43788273D01*
X156025120Y-43559465D01*
X155950090Y-43484435D01*
X156694040Y-43484435D01*
X157480000Y-44270395D01*
X158265960Y-43484435D01*
X158198980Y-43244344D01*
X157949952Y-43127244D01*
X157682865Y-43060977D01*
X157407983Y-43048090D01*
X157135867Y-43089078D01*
X156876977Y-43182364D01*
X156761020Y-43244344D01*
X156694040Y-43484435D01*
X155950090Y-43484435D01*
X155830535Y-43364880D01*
X155601727Y-43211995D01*
X155347490Y-43106686D01*
X155127000Y-43062828D01*
X155127000Y-42127000D01*
X159373000Y-42127000D01*
X159373000Y-53373000D01*
G04 #@! TA.AperFunction,Conductor*
D28*
G36*
X159373000Y-53373000D02*
G01*
X158301629Y-53373000D01*
X158244466Y-53334805D01*
X158361355Y-53265178D01*
X158577588Y-53070269D01*
X158751641Y-52836920D01*
X158876825Y-52574099D01*
X158921476Y-52426890D01*
X158800155Y-52197000D01*
X157607000Y-52197000D01*
X157607000Y-52217000D01*
X157353000Y-52217000D01*
X157353000Y-52197000D01*
X157333000Y-52197000D01*
X157333000Y-51943000D01*
X157353000Y-51943000D01*
X157353000Y-50749186D01*
X157607000Y-50749186D01*
X157607000Y-51943000D01*
X158800155Y-51943000D01*
X158921476Y-51713110D01*
X158876825Y-51565901D01*
X158751641Y-51303080D01*
X158577588Y-51069731D01*
X158361355Y-50874822D01*
X158111252Y-50725843D01*
X157836891Y-50628519D01*
X157607000Y-50749186D01*
X157353000Y-50749186D01*
X157123109Y-50628519D01*
X156848748Y-50725843D01*
X156598645Y-50874822D01*
X156402498Y-51051626D01*
X156379502Y-50975820D01*
X156320537Y-50865506D01*
X156241185Y-50768815D01*
X156144494Y-50689463D01*
X156034180Y-50630498D01*
X155914482Y-50594188D01*
X155790000Y-50581928D01*
X154090000Y-50581928D01*
X153965518Y-50594188D01*
X153845820Y-50630498D01*
X153735506Y-50689463D01*
X153638815Y-50768815D01*
X153559463Y-50865506D01*
X153500498Y-50975820D01*
X153464188Y-51095518D01*
X153451928Y-51220000D01*
X153451928Y-52920000D01*
X153464188Y-53044482D01*
X153500498Y-53164180D01*
X153559463Y-53274494D01*
X153638815Y-53371185D01*
X153641027Y-53373000D01*
X153000000Y-53373000D01*
X152975224Y-53375440D01*
X152951399Y-53382667D01*
X152931938Y-53392778D01*
X147213095Y-57023000D01*
X139827000Y-57023000D01*
X139827000Y-51127000D01*
X150250000Y-51127000D01*
X150274776Y-51124560D01*
X150298601Y-51117333D01*
X150320557Y-51105597D01*
X150331805Y-51097144D01*
X155081805Y-47097144D01*
X155099185Y-47079318D01*
X155112753Y-47058444D01*
X155121989Y-47035323D01*
X155127000Y-47000000D01*
X155127000Y-45837172D01*
X155347490Y-45793314D01*
X155601727Y-45688005D01*
X155830535Y-45535120D01*
X155950090Y-45415565D01*
X156694040Y-45415565D01*
X156761020Y-45655656D01*
X157010048Y-45772756D01*
X157277135Y-45839023D01*
X157552017Y-45851910D01*
X157824133Y-45810922D01*
X158083023Y-45717636D01*
X158198980Y-45655656D01*
X158265960Y-45415565D01*
X157480000Y-44629605D01*
X156694040Y-45415565D01*
X155950090Y-45415565D01*
X156025120Y-45340535D01*
X156178005Y-45111727D01*
X156207692Y-45040057D01*
X156212364Y-45053023D01*
X156274344Y-45168980D01*
X156514435Y-45235960D01*
X157300395Y-44450000D01*
X157659605Y-44450000D01*
X158445565Y-45235960D01*
X158685656Y-45168980D01*
X158802756Y-44919952D01*
X158869023Y-44652865D01*
X158881910Y-44377983D01*
X158840922Y-44105867D01*
X158747636Y-43846977D01*
X158685656Y-43731020D01*
X158445565Y-43664040D01*
X157659605Y-44450000D01*
X157300395Y-44450000D01*
X156514435Y-43664040D01*
X156274344Y-43731020D01*
X156210515Y-43866760D01*
X156178005Y-43788273D01*
X156025120Y-43559465D01*
X155950090Y-43484435D01*
X156694040Y-43484435D01*
X157480000Y-44270395D01*
X158265960Y-43484435D01*
X158198980Y-43244344D01*
X157949952Y-43127244D01*
X157682865Y-43060977D01*
X157407983Y-43048090D01*
X157135867Y-43089078D01*
X156876977Y-43182364D01*
X156761020Y-43244344D01*
X156694040Y-43484435D01*
X155950090Y-43484435D01*
X155830535Y-43364880D01*
X155601727Y-43211995D01*
X155347490Y-43106686D01*
X155127000Y-43062828D01*
X155127000Y-42127000D01*
X159373000Y-42127000D01*
X159373000Y-53373000D01*
G37*
G04 #@! TD.AperFunction*
D27*
X147957825Y-93125368D02*
X153641586Y-97079289D01*
X153543175Y-97285901D01*
X153498524Y-97433110D01*
X153619845Y-97663000D01*
X154813000Y-97663000D01*
X154813000Y-97643000D01*
X155067000Y-97643000D01*
X155067000Y-97663000D01*
X157353000Y-97663000D01*
X157353000Y-97643000D01*
X157607000Y-97643000D01*
X157607000Y-97663000D01*
X158800155Y-97663000D01*
X158921476Y-97433110D01*
X158876825Y-97285901D01*
X158801139Y-97127000D01*
X159873000Y-97127000D01*
X159873000Y-101938961D01*
X158680307Y-102893115D01*
X152941254Y-105887404D01*
X152920416Y-105901028D01*
X152902637Y-105918456D01*
X152888599Y-105939017D01*
X152878843Y-105961922D01*
X152873742Y-105986290D01*
X152873000Y-106000000D01*
X152873000Y-107172143D01*
X152761995Y-107338273D01*
X152732308Y-107409943D01*
X152727636Y-107396977D01*
X152665656Y-107281020D01*
X152425565Y-107214040D01*
X151639605Y-108000000D01*
X151653748Y-108014143D01*
X151474143Y-108193748D01*
X151460000Y-108179605D01*
X151445858Y-108193748D01*
X151266253Y-108014143D01*
X151280395Y-108000000D01*
X150494435Y-107214040D01*
X150254344Y-107281020D01*
X150137244Y-107530048D01*
X150070977Y-107797135D01*
X150058090Y-108072017D01*
X150082772Y-108235880D01*
X148280605Y-107034435D01*
X150674040Y-107034435D01*
X151460000Y-107820395D01*
X152245960Y-107034435D01*
X152178980Y-106794344D01*
X151929952Y-106677244D01*
X151662865Y-106610977D01*
X151387983Y-106598090D01*
X151115867Y-106639078D01*
X150856977Y-106732364D01*
X150741020Y-106794344D01*
X150674040Y-107034435D01*
X148280605Y-107034435D01*
X148098875Y-106913282D01*
X143159076Y-96872067D01*
X147692011Y-101405003D01*
X147715810Y-101434002D01*
X147831535Y-101528975D01*
X147963564Y-101599547D01*
X148106825Y-101643004D01*
X148218478Y-101654001D01*
X148218487Y-101654001D01*
X148255810Y-101657677D01*
X148293133Y-101654001D01*
X153450197Y-101654001D01*
X153812204Y-102016009D01*
X153835998Y-102045002D01*
X153864991Y-102068796D01*
X153864995Y-102068800D01*
X153935684Y-102126812D01*
X153951723Y-102139975D01*
X154083752Y-102210547D01*
X154227013Y-102254004D01*
X154338666Y-102265001D01*
X154338675Y-102265001D01*
X154375998Y-102268677D01*
X154413321Y-102265001D01*
X155454491Y-102265001D01*
X155491813Y-102268677D01*
X155529135Y-102265001D01*
X155529146Y-102265001D01*
X155640799Y-102254004D01*
X155784060Y-102210547D01*
X155916089Y-102139975D01*
X156031814Y-102045002D01*
X156055617Y-102015998D01*
X156566202Y-101505414D01*
X156776589Y-101645990D01*
X157046842Y-101757932D01*
X157333740Y-101815000D01*
X157626260Y-101815000D01*
X157913158Y-101757932D01*
X158183411Y-101645990D01*
X158426632Y-101483475D01*
X158633475Y-101276632D01*
X158795990Y-101033411D01*
X158907932Y-100763158D01*
X158965000Y-100476260D01*
X158965000Y-100183740D01*
X158907932Y-99896842D01*
X158795990Y-99626589D01*
X158633475Y-99383368D01*
X158426632Y-99176525D01*
X158244466Y-99054805D01*
X158361355Y-98985178D01*
X158577588Y-98790269D01*
X158751641Y-98556920D01*
X158876825Y-98294099D01*
X158921476Y-98146890D01*
X158800155Y-97917000D01*
X157607000Y-97917000D01*
X157607000Y-97937000D01*
X157353000Y-97937000D01*
X157353000Y-97917000D01*
X155067000Y-97917000D01*
X155067000Y-97937000D01*
X154813000Y-97937000D01*
X154813000Y-97917000D01*
X153619845Y-97917000D01*
X153498524Y-98146890D01*
X153543175Y-98294099D01*
X153668359Y-98556920D01*
X153842412Y-98790269D01*
X154058645Y-98985178D01*
X154175534Y-99054805D01*
X153993368Y-99176525D01*
X153786525Y-99383368D01*
X153624010Y-99626589D01*
X153512068Y-99896842D01*
X153464894Y-100134001D01*
X148570613Y-100134001D01*
X141286787Y-92850175D01*
X147957825Y-93125368D01*
G04 #@! TA.AperFunction,Conductor*
D28*
G36*
X147957825Y-93125368D02*
G01*
X153641586Y-97079289D01*
X153543175Y-97285901D01*
X153498524Y-97433110D01*
X153619845Y-97663000D01*
X154813000Y-97663000D01*
X154813000Y-97643000D01*
X155067000Y-97643000D01*
X155067000Y-97663000D01*
X157353000Y-97663000D01*
X157353000Y-97643000D01*
X157607000Y-97643000D01*
X157607000Y-97663000D01*
X158800155Y-97663000D01*
X158921476Y-97433110D01*
X158876825Y-97285901D01*
X158801139Y-97127000D01*
X159873000Y-97127000D01*
X159873000Y-101938961D01*
X158680307Y-102893115D01*
X152941254Y-105887404D01*
X152920416Y-105901028D01*
X152902637Y-105918456D01*
X152888599Y-105939017D01*
X152878843Y-105961922D01*
X152873742Y-105986290D01*
X152873000Y-106000000D01*
X152873000Y-107172143D01*
X152761995Y-107338273D01*
X152732308Y-107409943D01*
X152727636Y-107396977D01*
X152665656Y-107281020D01*
X152425565Y-107214040D01*
X151639605Y-108000000D01*
X151653748Y-108014143D01*
X151474143Y-108193748D01*
X151460000Y-108179605D01*
X151445858Y-108193748D01*
X151266253Y-108014143D01*
X151280395Y-108000000D01*
X150494435Y-107214040D01*
X150254344Y-107281020D01*
X150137244Y-107530048D01*
X150070977Y-107797135D01*
X150058090Y-108072017D01*
X150082772Y-108235880D01*
X148280605Y-107034435D01*
X150674040Y-107034435D01*
X151460000Y-107820395D01*
X152245960Y-107034435D01*
X152178980Y-106794344D01*
X151929952Y-106677244D01*
X151662865Y-106610977D01*
X151387983Y-106598090D01*
X151115867Y-106639078D01*
X150856977Y-106732364D01*
X150741020Y-106794344D01*
X150674040Y-107034435D01*
X148280605Y-107034435D01*
X148098875Y-106913282D01*
X143159076Y-96872067D01*
X147692011Y-101405003D01*
X147715810Y-101434002D01*
X147831535Y-101528975D01*
X147963564Y-101599547D01*
X148106825Y-101643004D01*
X148218478Y-101654001D01*
X148218487Y-101654001D01*
X148255810Y-101657677D01*
X148293133Y-101654001D01*
X153450197Y-101654001D01*
X153812204Y-102016009D01*
X153835998Y-102045002D01*
X153864991Y-102068796D01*
X153864995Y-102068800D01*
X153935684Y-102126812D01*
X153951723Y-102139975D01*
X154083752Y-102210547D01*
X154227013Y-102254004D01*
X154338666Y-102265001D01*
X154338675Y-102265001D01*
X154375998Y-102268677D01*
X154413321Y-102265001D01*
X155454491Y-102265001D01*
X155491813Y-102268677D01*
X155529135Y-102265001D01*
X155529146Y-102265001D01*
X155640799Y-102254004D01*
X155784060Y-102210547D01*
X155916089Y-102139975D01*
X156031814Y-102045002D01*
X156055617Y-102015998D01*
X156566202Y-101505414D01*
X156776589Y-101645990D01*
X157046842Y-101757932D01*
X157333740Y-101815000D01*
X157626260Y-101815000D01*
X157913158Y-101757932D01*
X158183411Y-101645990D01*
X158426632Y-101483475D01*
X158633475Y-101276632D01*
X158795990Y-101033411D01*
X158907932Y-100763158D01*
X158965000Y-100476260D01*
X158965000Y-100183740D01*
X158907932Y-99896842D01*
X158795990Y-99626589D01*
X158633475Y-99383368D01*
X158426632Y-99176525D01*
X158244466Y-99054805D01*
X158361355Y-98985178D01*
X158577588Y-98790269D01*
X158751641Y-98556920D01*
X158876825Y-98294099D01*
X158921476Y-98146890D01*
X158800155Y-97917000D01*
X157607000Y-97917000D01*
X157607000Y-97937000D01*
X157353000Y-97937000D01*
X157353000Y-97917000D01*
X155067000Y-97917000D01*
X155067000Y-97937000D01*
X154813000Y-97937000D01*
X154813000Y-97917000D01*
X153619845Y-97917000D01*
X153498524Y-98146890D01*
X153543175Y-98294099D01*
X153668359Y-98556920D01*
X153842412Y-98790269D01*
X154058645Y-98985178D01*
X154175534Y-99054805D01*
X153993368Y-99176525D01*
X153786525Y-99383368D01*
X153624010Y-99626589D01*
X153512068Y-99896842D01*
X153464894Y-100134001D01*
X148570613Y-100134001D01*
X141286787Y-92850175D01*
X147957825Y-93125368D01*
G37*
G04 #@! TD.AperFunction*
D27*
X57373000Y-45234892D02*
X56432866Y-49129734D01*
X54853471Y-50709129D01*
X53867800Y-50709129D01*
X53743318Y-50721389D01*
X53623620Y-50757699D01*
X53513306Y-50816664D01*
X53416615Y-50896016D01*
X53337263Y-50992707D01*
X53278298Y-51103021D01*
X53241988Y-51222719D01*
X53229728Y-51347201D01*
X53229728Y-51702801D01*
X53241988Y-51827283D01*
X53278298Y-51946981D01*
X53337263Y-52057295D01*
X53416615Y-52153986D01*
X53442222Y-52175001D01*
X53416615Y-52196016D01*
X53337263Y-52292707D01*
X53278298Y-52403021D01*
X53241988Y-52522719D01*
X53229728Y-52647201D01*
X53229728Y-52714551D01*
X53225176Y-52714999D01*
X53225168Y-52714999D01*
X53113515Y-52725996D01*
X52970254Y-52769453D01*
X52838225Y-52840025D01*
X52722500Y-52934998D01*
X52698702Y-52963996D01*
X51918246Y-53744452D01*
X49456983Y-54630507D01*
X49434497Y-54641196D01*
X49414529Y-54656065D01*
X49397846Y-54674545D01*
X49385088Y-54695924D01*
X49375049Y-54727282D01*
X48894009Y-57373000D01*
X43063500Y-57373000D01*
X40877000Y-54457667D01*
X40877000Y-50067968D01*
X47538452Y-45627000D01*
X51000000Y-45627000D01*
X51024776Y-45624560D01*
X51048601Y-45617333D01*
X51073239Y-45603755D01*
X55290309Y-42627000D01*
X57373000Y-42627000D01*
X57373000Y-45234892D01*
G04 #@! TA.AperFunction,Conductor*
D28*
G36*
X57373000Y-45234892D02*
G01*
X56432866Y-49129734D01*
X54853471Y-50709129D01*
X53867800Y-50709129D01*
X53743318Y-50721389D01*
X53623620Y-50757699D01*
X53513306Y-50816664D01*
X53416615Y-50896016D01*
X53337263Y-50992707D01*
X53278298Y-51103021D01*
X53241988Y-51222719D01*
X53229728Y-51347201D01*
X53229728Y-51702801D01*
X53241988Y-51827283D01*
X53278298Y-51946981D01*
X53337263Y-52057295D01*
X53416615Y-52153986D01*
X53442222Y-52175001D01*
X53416615Y-52196016D01*
X53337263Y-52292707D01*
X53278298Y-52403021D01*
X53241988Y-52522719D01*
X53229728Y-52647201D01*
X53229728Y-52714551D01*
X53225176Y-52714999D01*
X53225168Y-52714999D01*
X53113515Y-52725996D01*
X52970254Y-52769453D01*
X52838225Y-52840025D01*
X52722500Y-52934998D01*
X52698702Y-52963996D01*
X51918246Y-53744452D01*
X49456983Y-54630507D01*
X49434497Y-54641196D01*
X49414529Y-54656065D01*
X49397846Y-54674545D01*
X49385088Y-54695924D01*
X49375049Y-54727282D01*
X48894009Y-57373000D01*
X43063500Y-57373000D01*
X40877000Y-54457667D01*
X40877000Y-50067968D01*
X47538452Y-45627000D01*
X51000000Y-45627000D01*
X51024776Y-45624560D01*
X51048601Y-45617333D01*
X51073239Y-45603755D01*
X55290309Y-42627000D01*
X57373000Y-42627000D01*
X57373000Y-45234892D01*
G37*
G04 #@! TD.AperFunction*
D27*
X163873000Y-115123000D02*
X117787238Y-115123000D01*
X60942576Y-78652734D01*
X60939275Y-78650025D01*
X60933753Y-78647073D01*
X59758579Y-77893108D01*
X59736408Y-77881783D01*
X59712453Y-77875001D01*
X59690000Y-77873000D01*
X57014906Y-77873000D01*
X56982037Y-77811507D01*
X56902685Y-77714816D01*
X56805994Y-77635464D01*
X56695680Y-77576499D01*
X56575982Y-77540189D01*
X56451500Y-77527929D01*
X55435500Y-77527929D01*
X55377000Y-77533691D01*
X55377000Y-76090432D01*
X61791543Y-73870013D01*
X61814158Y-73859603D01*
X61839803Y-73839803D01*
X63052606Y-72627000D01*
X70971980Y-72627000D01*
X153946560Y-111115209D01*
X153970063Y-111123421D01*
X153994716Y-111126890D01*
X154019573Y-111125483D01*
X154043677Y-111119253D01*
X154066103Y-111108441D01*
X154085989Y-111093461D01*
X154102570Y-111074890D01*
X154115209Y-111053440D01*
X154123421Y-111029937D01*
X154127000Y-111000000D01*
X154127000Y-109397000D01*
X154137592Y-109397000D01*
X154407490Y-109343314D01*
X154661727Y-109238005D01*
X154890535Y-109085120D01*
X155010090Y-108965565D01*
X155754040Y-108965565D01*
X155821020Y-109205656D01*
X156070048Y-109322756D01*
X156337135Y-109389023D01*
X156612017Y-109401910D01*
X156884133Y-109360922D01*
X157143023Y-109267636D01*
X157258980Y-109205656D01*
X157325960Y-108965565D01*
X156540000Y-108179605D01*
X155754040Y-108965565D01*
X155010090Y-108965565D01*
X155085120Y-108890535D01*
X155238005Y-108661727D01*
X155267692Y-108590057D01*
X155272364Y-108603023D01*
X155334344Y-108718980D01*
X155574435Y-108785960D01*
X156360395Y-108000000D01*
X156719605Y-108000000D01*
X157505565Y-108785960D01*
X157745656Y-108718980D01*
X157862756Y-108469952D01*
X157929023Y-108202865D01*
X157941910Y-107927983D01*
X157900922Y-107655867D01*
X157807636Y-107396977D01*
X157745656Y-107281020D01*
X157505565Y-107214040D01*
X156719605Y-108000000D01*
X156360395Y-108000000D01*
X155574435Y-107214040D01*
X155334344Y-107281020D01*
X155270515Y-107416760D01*
X155238005Y-107338273D01*
X155085120Y-107109465D01*
X155010090Y-107034435D01*
X155754040Y-107034435D01*
X156540000Y-107820395D01*
X157325960Y-107034435D01*
X157258980Y-106794344D01*
X157009952Y-106677244D01*
X156742865Y-106610977D01*
X156467983Y-106598090D01*
X156195867Y-106639078D01*
X155936977Y-106732364D01*
X155821020Y-106794344D01*
X155754040Y-107034435D01*
X155010090Y-107034435D01*
X154890535Y-106914880D01*
X154661727Y-106761995D01*
X154407490Y-106656686D01*
X154137592Y-106603000D01*
X154127000Y-106603000D01*
X154127000Y-106127000D01*
X160750000Y-106127000D01*
X160774776Y-106124560D01*
X160798601Y-106117333D01*
X160820557Y-106105597D01*
X160839803Y-106089803D01*
X160855597Y-106070557D01*
X160867333Y-106048601D01*
X160874560Y-106024776D01*
X160877000Y-106000000D01*
X160877000Y-96250000D01*
X160874560Y-96225224D01*
X160867333Y-96201399D01*
X160855597Y-96179443D01*
X160839803Y-96160197D01*
X160820557Y-96144403D01*
X160798601Y-96132667D01*
X160774776Y-96125440D01*
X160750000Y-96123000D01*
X158672517Y-96123000D01*
X158751641Y-96016920D01*
X158876825Y-95754099D01*
X158921476Y-95606890D01*
X158800155Y-95377000D01*
X157607000Y-95377000D01*
X157607000Y-95397000D01*
X157353000Y-95397000D01*
X157353000Y-95377000D01*
X155067000Y-95377000D01*
X155067000Y-95397000D01*
X154813000Y-95397000D01*
X154813000Y-95377000D01*
X154793000Y-95377000D01*
X154793000Y-95123000D01*
X154813000Y-95123000D01*
X154813000Y-95103000D01*
X155067000Y-95103000D01*
X155067000Y-95123000D01*
X157353000Y-95123000D01*
X157353000Y-95103000D01*
X157607000Y-95103000D01*
X157607000Y-95123000D01*
X158800155Y-95123000D01*
X158921476Y-94893110D01*
X158876825Y-94745901D01*
X158751641Y-94483080D01*
X158577588Y-94249731D01*
X158441430Y-94127000D01*
X160750000Y-94127000D01*
X160774776Y-94124560D01*
X160798601Y-94117333D01*
X160820557Y-94105597D01*
X160839803Y-94089803D01*
X160855597Y-94070557D01*
X160867333Y-94048601D01*
X160874560Y-94024776D01*
X160877000Y-94000000D01*
X160877000Y-41000000D01*
X160874560Y-40975224D01*
X160867333Y-40951399D01*
X160855597Y-40929443D01*
X160839803Y-40910197D01*
X160820557Y-40894403D01*
X160798601Y-40882667D01*
X160774776Y-40875440D01*
X160750000Y-40873000D01*
X154000000Y-40873000D01*
X153975224Y-40875440D01*
X153951399Y-40882667D01*
X153929443Y-40894403D01*
X153910197Y-40910197D01*
X153894403Y-40929443D01*
X153882667Y-40951399D01*
X153875440Y-40975224D01*
X153873000Y-41000000D01*
X153873000Y-43541345D01*
X153854880Y-43559465D01*
X153701995Y-43788273D01*
X153672308Y-43859943D01*
X153667636Y-43846977D01*
X153605656Y-43731020D01*
X153365565Y-43664040D01*
X152579605Y-44450000D01*
X153365565Y-45235960D01*
X153605656Y-45168980D01*
X153669485Y-45033240D01*
X153701995Y-45111727D01*
X153854880Y-45340535D01*
X153873000Y-45358655D01*
X153873000Y-45873000D01*
X146127797Y-45873000D01*
X146130655Y-45415565D01*
X151614040Y-45415565D01*
X151681020Y-45655656D01*
X151930048Y-45772756D01*
X152197135Y-45839023D01*
X152472017Y-45851910D01*
X152744133Y-45810922D01*
X153003023Y-45717636D01*
X153118980Y-45655656D01*
X153185960Y-45415565D01*
X152400000Y-44629605D01*
X151614040Y-45415565D01*
X146130655Y-45415565D01*
X146136240Y-44522017D01*
X150998090Y-44522017D01*
X151039078Y-44794133D01*
X151132364Y-45053023D01*
X151194344Y-45168980D01*
X151434435Y-45235960D01*
X152220395Y-44450000D01*
X151434435Y-43664040D01*
X151194344Y-43731020D01*
X151077244Y-43980048D01*
X151010977Y-44247135D01*
X150998090Y-44522017D01*
X146136240Y-44522017D01*
X146142724Y-43484435D01*
X151614040Y-43484435D01*
X152400000Y-44270395D01*
X153185960Y-43484435D01*
X153118980Y-43244344D01*
X152869952Y-43127244D01*
X152602865Y-43060977D01*
X152327983Y-43048090D01*
X152055867Y-43089078D01*
X151796977Y-43182364D01*
X151681020Y-43244344D01*
X151614040Y-43484435D01*
X146142724Y-43484435D01*
X146176220Y-38125255D01*
X163873000Y-37878781D01*
X163873000Y-115123000D01*
G04 #@! TA.AperFunction,Conductor*
D28*
G36*
X163873000Y-115123000D02*
G01*
X117787238Y-115123000D01*
X60942576Y-78652734D01*
X60939275Y-78650025D01*
X60933753Y-78647073D01*
X59758579Y-77893108D01*
X59736408Y-77881783D01*
X59712453Y-77875001D01*
X59690000Y-77873000D01*
X57014906Y-77873000D01*
X56982037Y-77811507D01*
X56902685Y-77714816D01*
X56805994Y-77635464D01*
X56695680Y-77576499D01*
X56575982Y-77540189D01*
X56451500Y-77527929D01*
X55435500Y-77527929D01*
X55377000Y-77533691D01*
X55377000Y-76090432D01*
X61791543Y-73870013D01*
X61814158Y-73859603D01*
X61839803Y-73839803D01*
X63052606Y-72627000D01*
X70971980Y-72627000D01*
X153946560Y-111115209D01*
X153970063Y-111123421D01*
X153994716Y-111126890D01*
X154019573Y-111125483D01*
X154043677Y-111119253D01*
X154066103Y-111108441D01*
X154085989Y-111093461D01*
X154102570Y-111074890D01*
X154115209Y-111053440D01*
X154123421Y-111029937D01*
X154127000Y-111000000D01*
X154127000Y-109397000D01*
X154137592Y-109397000D01*
X154407490Y-109343314D01*
X154661727Y-109238005D01*
X154890535Y-109085120D01*
X155010090Y-108965565D01*
X155754040Y-108965565D01*
X155821020Y-109205656D01*
X156070048Y-109322756D01*
X156337135Y-109389023D01*
X156612017Y-109401910D01*
X156884133Y-109360922D01*
X157143023Y-109267636D01*
X157258980Y-109205656D01*
X157325960Y-108965565D01*
X156540000Y-108179605D01*
X155754040Y-108965565D01*
X155010090Y-108965565D01*
X155085120Y-108890535D01*
X155238005Y-108661727D01*
X155267692Y-108590057D01*
X155272364Y-108603023D01*
X155334344Y-108718980D01*
X155574435Y-108785960D01*
X156360395Y-108000000D01*
X156719605Y-108000000D01*
X157505565Y-108785960D01*
X157745656Y-108718980D01*
X157862756Y-108469952D01*
X157929023Y-108202865D01*
X157941910Y-107927983D01*
X157900922Y-107655867D01*
X157807636Y-107396977D01*
X157745656Y-107281020D01*
X157505565Y-107214040D01*
X156719605Y-108000000D01*
X156360395Y-108000000D01*
X155574435Y-107214040D01*
X155334344Y-107281020D01*
X155270515Y-107416760D01*
X155238005Y-107338273D01*
X155085120Y-107109465D01*
X155010090Y-107034435D01*
X155754040Y-107034435D01*
X156540000Y-107820395D01*
X157325960Y-107034435D01*
X157258980Y-106794344D01*
X157009952Y-106677244D01*
X156742865Y-106610977D01*
X156467983Y-106598090D01*
X156195867Y-106639078D01*
X155936977Y-106732364D01*
X155821020Y-106794344D01*
X155754040Y-107034435D01*
X155010090Y-107034435D01*
X154890535Y-106914880D01*
X154661727Y-106761995D01*
X154407490Y-106656686D01*
X154137592Y-106603000D01*
X154127000Y-106603000D01*
X154127000Y-106127000D01*
X160750000Y-106127000D01*
X160774776Y-106124560D01*
X160798601Y-106117333D01*
X160820557Y-106105597D01*
X160839803Y-106089803D01*
X160855597Y-106070557D01*
X160867333Y-106048601D01*
X160874560Y-106024776D01*
X160877000Y-106000000D01*
X160877000Y-96250000D01*
X160874560Y-96225224D01*
X160867333Y-96201399D01*
X160855597Y-96179443D01*
X160839803Y-96160197D01*
X160820557Y-96144403D01*
X160798601Y-96132667D01*
X160774776Y-96125440D01*
X160750000Y-96123000D01*
X158672517Y-96123000D01*
X158751641Y-96016920D01*
X158876825Y-95754099D01*
X158921476Y-95606890D01*
X158800155Y-95377000D01*
X157607000Y-95377000D01*
X157607000Y-95397000D01*
X157353000Y-95397000D01*
X157353000Y-95377000D01*
X155067000Y-95377000D01*
X155067000Y-95397000D01*
X154813000Y-95397000D01*
X154813000Y-95377000D01*
X154793000Y-95377000D01*
X154793000Y-95123000D01*
X154813000Y-95123000D01*
X154813000Y-95103000D01*
X155067000Y-95103000D01*
X155067000Y-95123000D01*
X157353000Y-95123000D01*
X157353000Y-95103000D01*
X157607000Y-95103000D01*
X157607000Y-95123000D01*
X158800155Y-95123000D01*
X158921476Y-94893110D01*
X158876825Y-94745901D01*
X158751641Y-94483080D01*
X158577588Y-94249731D01*
X158441430Y-94127000D01*
X160750000Y-94127000D01*
X160774776Y-94124560D01*
X160798601Y-94117333D01*
X160820557Y-94105597D01*
X160839803Y-94089803D01*
X160855597Y-94070557D01*
X160867333Y-94048601D01*
X160874560Y-94024776D01*
X160877000Y-94000000D01*
X160877000Y-41000000D01*
X160874560Y-40975224D01*
X160867333Y-40951399D01*
X160855597Y-40929443D01*
X160839803Y-40910197D01*
X160820557Y-40894403D01*
X160798601Y-40882667D01*
X160774776Y-40875440D01*
X160750000Y-40873000D01*
X154000000Y-40873000D01*
X153975224Y-40875440D01*
X153951399Y-40882667D01*
X153929443Y-40894403D01*
X153910197Y-40910197D01*
X153894403Y-40929443D01*
X153882667Y-40951399D01*
X153875440Y-40975224D01*
X153873000Y-41000000D01*
X153873000Y-43541345D01*
X153854880Y-43559465D01*
X153701995Y-43788273D01*
X153672308Y-43859943D01*
X153667636Y-43846977D01*
X153605656Y-43731020D01*
X153365565Y-43664040D01*
X152579605Y-44450000D01*
X153365565Y-45235960D01*
X153605656Y-45168980D01*
X153669485Y-45033240D01*
X153701995Y-45111727D01*
X153854880Y-45340535D01*
X153873000Y-45358655D01*
X153873000Y-45873000D01*
X146127797Y-45873000D01*
X146130655Y-45415565D01*
X151614040Y-45415565D01*
X151681020Y-45655656D01*
X151930048Y-45772756D01*
X152197135Y-45839023D01*
X152472017Y-45851910D01*
X152744133Y-45810922D01*
X153003023Y-45717636D01*
X153118980Y-45655656D01*
X153185960Y-45415565D01*
X152400000Y-44629605D01*
X151614040Y-45415565D01*
X146130655Y-45415565D01*
X146136240Y-44522017D01*
X150998090Y-44522017D01*
X151039078Y-44794133D01*
X151132364Y-45053023D01*
X151194344Y-45168980D01*
X151434435Y-45235960D01*
X152220395Y-44450000D01*
X151434435Y-43664040D01*
X151194344Y-43731020D01*
X151077244Y-43980048D01*
X151010977Y-44247135D01*
X150998090Y-44522017D01*
X146136240Y-44522017D01*
X146142724Y-43484435D01*
X151614040Y-43484435D01*
X152400000Y-44270395D01*
X153185960Y-43484435D01*
X153118980Y-43244344D01*
X152869952Y-43127244D01*
X152602865Y-43060977D01*
X152327983Y-43048090D01*
X152055867Y-43089078D01*
X151796977Y-43182364D01*
X151681020Y-43244344D01*
X151614040Y-43484435D01*
X146142724Y-43484435D01*
X146176220Y-38125255D01*
X163873000Y-37878781D01*
X163873000Y-115123000D01*
G37*
G04 #@! TD.AperFunction*
D27*
X90043000Y-40495250D02*
X90004500Y-40533750D01*
X90004500Y-41783000D01*
X90024500Y-41783000D01*
X90024500Y-42037000D01*
X90004500Y-42037000D01*
X90004500Y-43286250D01*
X90043000Y-43324750D01*
X90043000Y-58420000D01*
X90045440Y-58444776D01*
X90052667Y-58468601D01*
X90064403Y-58490557D01*
X90080197Y-58509803D01*
X90099443Y-58525597D01*
X90121399Y-58537333D01*
X90145224Y-58544560D01*
X90170000Y-58547000D01*
X92949985Y-58547000D01*
X92984774Y-58721898D01*
X93062795Y-58910256D01*
X93176063Y-59079774D01*
X93320226Y-59223937D01*
X93489744Y-59337205D01*
X93678102Y-59415226D01*
X93878061Y-59455000D01*
X94081939Y-59455000D01*
X94281898Y-59415226D01*
X94470256Y-59337205D01*
X94639774Y-59223937D01*
X94783937Y-59079774D01*
X94897205Y-58910256D01*
X94975226Y-58721898D01*
X95010015Y-58547000D01*
X100203000Y-58547000D01*
X100203000Y-60833000D01*
X95010015Y-60833000D01*
X94975226Y-60658102D01*
X94897205Y-60469744D01*
X94783937Y-60300226D01*
X94639774Y-60156063D01*
X94470256Y-60042795D01*
X94281898Y-59964774D01*
X94081939Y-59925000D01*
X93878061Y-59925000D01*
X93678102Y-59964774D01*
X93489744Y-60042795D01*
X93320226Y-60156063D01*
X93176063Y-60300226D01*
X93062795Y-60469744D01*
X92984774Y-60658102D01*
X92949985Y-60833000D01*
X87757000Y-60833000D01*
X87757000Y-50800000D01*
X87754560Y-50775224D01*
X87747333Y-50751399D01*
X87735597Y-50729443D01*
X87719803Y-50710197D01*
X87700557Y-50694403D01*
X87678601Y-50682667D01*
X87654776Y-50675440D01*
X87630000Y-50673000D01*
X85090000Y-50673000D01*
X85065224Y-50675440D01*
X85041399Y-50682667D01*
X85019443Y-50694403D01*
X85000197Y-50710197D01*
X84984403Y-50729443D01*
X84972667Y-50751399D01*
X84965440Y-50775224D01*
X84963000Y-50800000D01*
X84963000Y-55753000D01*
X80091259Y-55753000D01*
X79381413Y-54215000D01*
X81971928Y-54215000D01*
X81984188Y-54339482D01*
X82020498Y-54459180D01*
X82079463Y-54569494D01*
X82158815Y-54666185D01*
X82255506Y-54745537D01*
X82365820Y-54804502D01*
X82485518Y-54840812D01*
X82610000Y-54853072D01*
X82974250Y-54850000D01*
X83133000Y-54691250D01*
X83133000Y-53467000D01*
X83387000Y-53467000D01*
X83387000Y-54691250D01*
X83545750Y-54850000D01*
X83910000Y-54853072D01*
X84034482Y-54840812D01*
X84154180Y-54804502D01*
X84264494Y-54745537D01*
X84361185Y-54666185D01*
X84440537Y-54569494D01*
X84499502Y-54459180D01*
X84535812Y-54339482D01*
X84548072Y-54215000D01*
X84545000Y-53625750D01*
X84386250Y-53467000D01*
X83387000Y-53467000D01*
X83133000Y-53467000D01*
X82133750Y-53467000D01*
X81975000Y-53625750D01*
X81971928Y-54215000D01*
X79381413Y-54215000D01*
X78573721Y-52465000D01*
X81971928Y-52465000D01*
X81975000Y-53054250D01*
X82133750Y-53213000D01*
X83133000Y-53213000D01*
X83133000Y-51988750D01*
X83387000Y-51988750D01*
X83387000Y-53213000D01*
X84386250Y-53213000D01*
X84545000Y-53054250D01*
X84548072Y-52465000D01*
X84535812Y-52340518D01*
X84499502Y-52220820D01*
X84440537Y-52110506D01*
X84361185Y-52013815D01*
X84264494Y-51934463D01*
X84154180Y-51875498D01*
X84034482Y-51839188D01*
X83910000Y-51826928D01*
X83545750Y-51830000D01*
X83387000Y-51988750D01*
X83133000Y-51988750D01*
X82974250Y-51830000D01*
X82610000Y-51826928D01*
X82485518Y-51839188D01*
X82365820Y-51875498D01*
X82255506Y-51934463D01*
X82158815Y-52013815D01*
X82079463Y-52110506D01*
X82020498Y-52220820D01*
X81984188Y-52340518D01*
X81971928Y-52465000D01*
X78573721Y-52465000D01*
X74117567Y-42810000D01*
X88576928Y-42810000D01*
X88589188Y-42934482D01*
X88625498Y-43054180D01*
X88684463Y-43164494D01*
X88763815Y-43261185D01*
X88860506Y-43340537D01*
X88970820Y-43399502D01*
X89090518Y-43435812D01*
X89215000Y-43448072D01*
X89591750Y-43445000D01*
X89750500Y-43286250D01*
X89750500Y-42037000D01*
X88738750Y-42037000D01*
X88580000Y-42195750D01*
X88576928Y-42810000D01*
X74117567Y-42810000D01*
X73286798Y-41010000D01*
X88576928Y-41010000D01*
X88580000Y-41624250D01*
X88738750Y-41783000D01*
X89750500Y-41783000D01*
X89750500Y-40533750D01*
X89591750Y-40375000D01*
X89215000Y-40371928D01*
X89090518Y-40384188D01*
X88970820Y-40420498D01*
X88860506Y-40479463D01*
X88763815Y-40558815D01*
X88684463Y-40655506D01*
X88625498Y-40765820D01*
X88589188Y-40885518D01*
X88576928Y-41010000D01*
X73286798Y-41010000D01*
X72588489Y-39497000D01*
X90043000Y-39497000D01*
X90043000Y-40495250D01*
G04 #@! TA.AperFunction,Conductor*
D28*
G36*
X90043000Y-40495250D02*
G01*
X90004500Y-40533750D01*
X90004500Y-41783000D01*
X90024500Y-41783000D01*
X90024500Y-42037000D01*
X90004500Y-42037000D01*
X90004500Y-43286250D01*
X90043000Y-43324750D01*
X90043000Y-58420000D01*
X90045440Y-58444776D01*
X90052667Y-58468601D01*
X90064403Y-58490557D01*
X90080197Y-58509803D01*
X90099443Y-58525597D01*
X90121399Y-58537333D01*
X90145224Y-58544560D01*
X90170000Y-58547000D01*
X92949985Y-58547000D01*
X92984774Y-58721898D01*
X93062795Y-58910256D01*
X93176063Y-59079774D01*
X93320226Y-59223937D01*
X93489744Y-59337205D01*
X93678102Y-59415226D01*
X93878061Y-59455000D01*
X94081939Y-59455000D01*
X94281898Y-59415226D01*
X94470256Y-59337205D01*
X94639774Y-59223937D01*
X94783937Y-59079774D01*
X94897205Y-58910256D01*
X94975226Y-58721898D01*
X95010015Y-58547000D01*
X100203000Y-58547000D01*
X100203000Y-60833000D01*
X95010015Y-60833000D01*
X94975226Y-60658102D01*
X94897205Y-60469744D01*
X94783937Y-60300226D01*
X94639774Y-60156063D01*
X94470256Y-60042795D01*
X94281898Y-59964774D01*
X94081939Y-59925000D01*
X93878061Y-59925000D01*
X93678102Y-59964774D01*
X93489744Y-60042795D01*
X93320226Y-60156063D01*
X93176063Y-60300226D01*
X93062795Y-60469744D01*
X92984774Y-60658102D01*
X92949985Y-60833000D01*
X87757000Y-60833000D01*
X87757000Y-50800000D01*
X87754560Y-50775224D01*
X87747333Y-50751399D01*
X87735597Y-50729443D01*
X87719803Y-50710197D01*
X87700557Y-50694403D01*
X87678601Y-50682667D01*
X87654776Y-50675440D01*
X87630000Y-50673000D01*
X85090000Y-50673000D01*
X85065224Y-50675440D01*
X85041399Y-50682667D01*
X85019443Y-50694403D01*
X85000197Y-50710197D01*
X84984403Y-50729443D01*
X84972667Y-50751399D01*
X84965440Y-50775224D01*
X84963000Y-50800000D01*
X84963000Y-55753000D01*
X80091259Y-55753000D01*
X79381413Y-54215000D01*
X81971928Y-54215000D01*
X81984188Y-54339482D01*
X82020498Y-54459180D01*
X82079463Y-54569494D01*
X82158815Y-54666185D01*
X82255506Y-54745537D01*
X82365820Y-54804502D01*
X82485518Y-54840812D01*
X82610000Y-54853072D01*
X82974250Y-54850000D01*
X83133000Y-54691250D01*
X83133000Y-53467000D01*
X83387000Y-53467000D01*
X83387000Y-54691250D01*
X83545750Y-54850000D01*
X83910000Y-54853072D01*
X84034482Y-54840812D01*
X84154180Y-54804502D01*
X84264494Y-54745537D01*
X84361185Y-54666185D01*
X84440537Y-54569494D01*
X84499502Y-54459180D01*
X84535812Y-54339482D01*
X84548072Y-54215000D01*
X84545000Y-53625750D01*
X84386250Y-53467000D01*
X83387000Y-53467000D01*
X83133000Y-53467000D01*
X82133750Y-53467000D01*
X81975000Y-53625750D01*
X81971928Y-54215000D01*
X79381413Y-54215000D01*
X78573721Y-52465000D01*
X81971928Y-52465000D01*
X81975000Y-53054250D01*
X82133750Y-53213000D01*
X83133000Y-53213000D01*
X83133000Y-51988750D01*
X83387000Y-51988750D01*
X83387000Y-53213000D01*
X84386250Y-53213000D01*
X84545000Y-53054250D01*
X84548072Y-52465000D01*
X84535812Y-52340518D01*
X84499502Y-52220820D01*
X84440537Y-52110506D01*
X84361185Y-52013815D01*
X84264494Y-51934463D01*
X84154180Y-51875498D01*
X84034482Y-51839188D01*
X83910000Y-51826928D01*
X83545750Y-51830000D01*
X83387000Y-51988750D01*
X83133000Y-51988750D01*
X82974250Y-51830000D01*
X82610000Y-51826928D01*
X82485518Y-51839188D01*
X82365820Y-51875498D01*
X82255506Y-51934463D01*
X82158815Y-52013815D01*
X82079463Y-52110506D01*
X82020498Y-52220820D01*
X81984188Y-52340518D01*
X81971928Y-52465000D01*
X78573721Y-52465000D01*
X74117567Y-42810000D01*
X88576928Y-42810000D01*
X88589188Y-42934482D01*
X88625498Y-43054180D01*
X88684463Y-43164494D01*
X88763815Y-43261185D01*
X88860506Y-43340537D01*
X88970820Y-43399502D01*
X89090518Y-43435812D01*
X89215000Y-43448072D01*
X89591750Y-43445000D01*
X89750500Y-43286250D01*
X89750500Y-42037000D01*
X88738750Y-42037000D01*
X88580000Y-42195750D01*
X88576928Y-42810000D01*
X74117567Y-42810000D01*
X73286798Y-41010000D01*
X88576928Y-41010000D01*
X88580000Y-41624250D01*
X88738750Y-41783000D01*
X89750500Y-41783000D01*
X89750500Y-40533750D01*
X89591750Y-40375000D01*
X89215000Y-40371928D01*
X89090518Y-40384188D01*
X88970820Y-40420498D01*
X88860506Y-40479463D01*
X88763815Y-40558815D01*
X88684463Y-40655506D01*
X88625498Y-40765820D01*
X88589188Y-40885518D01*
X88576928Y-41010000D01*
X73286798Y-41010000D01*
X72588489Y-39497000D01*
X90043000Y-39497000D01*
X90043000Y-40495250D01*
G37*
G04 #@! TD.AperFunction*
D27*
X100244016Y-51943000D02*
X95377000Y-51943000D01*
X95377000Y-51078392D01*
X95384583Y-51116472D01*
X95384868Y-51117410D01*
X95432557Y-51232520D01*
X95433019Y-51233385D01*
X95502264Y-51337148D01*
X95502885Y-51337906D01*
X95592094Y-51427115D01*
X95592852Y-51427736D01*
X95696615Y-51496981D01*
X95697480Y-51497443D01*
X95812590Y-51545132D01*
X95813528Y-51545417D01*
X95936502Y-51569905D01*
X95937477Y-51570001D01*
X96000000Y-51573072D01*
X97200000Y-51573072D01*
X97286693Y-51567155D01*
X97288042Y-51566970D01*
X97433150Y-51529293D01*
X97434063Y-51528937D01*
X97545164Y-51472561D01*
X97545991Y-51472034D01*
X97644730Y-51394463D01*
X97645437Y-51393785D01*
X97688256Y-51348506D01*
X97988256Y-50998506D01*
X98012196Y-50968826D01*
X98012557Y-50968350D01*
X98041560Y-50923072D01*
X99000000Y-50923072D01*
X99062523Y-50920001D01*
X99063498Y-50919905D01*
X99186472Y-50895417D01*
X99187410Y-50895132D01*
X99302520Y-50847443D01*
X99303385Y-50846981D01*
X99407148Y-50777736D01*
X99407906Y-50777115D01*
X99497115Y-50687906D01*
X99497736Y-50687148D01*
X99566981Y-50583385D01*
X99567443Y-50582520D01*
X99615132Y-50467410D01*
X99615417Y-50466472D01*
X99639905Y-50343498D01*
X99640001Y-50342523D01*
X99643072Y-50280000D01*
X99643072Y-48780000D01*
X99640001Y-48717477D01*
X99639905Y-48716502D01*
X99615417Y-48593528D01*
X99615132Y-48592590D01*
X99567443Y-48477480D01*
X99566981Y-48476615D01*
X99497736Y-48372852D01*
X99497115Y-48372094D01*
X99407906Y-48282885D01*
X99407148Y-48282264D01*
X99303385Y-48213019D01*
X99302520Y-48212557D01*
X99187410Y-48164868D01*
X99186472Y-48164583D01*
X99063498Y-48140095D01*
X99062523Y-48139999D01*
X99000000Y-48136928D01*
X98041323Y-48136928D01*
X98027118Y-48111682D01*
X98026556Y-48110879D01*
X97988256Y-48061494D01*
X97688256Y-47711494D01*
X97627213Y-47649406D01*
X97626195Y-47648503D01*
X97503385Y-47563019D01*
X97502520Y-47562557D01*
X97387410Y-47514868D01*
X97386472Y-47514583D01*
X97263498Y-47490095D01*
X97262523Y-47489999D01*
X97200000Y-47486928D01*
X96000000Y-47486928D01*
X95937477Y-47489999D01*
X95936502Y-47490095D01*
X95813528Y-47514583D01*
X95812590Y-47514868D01*
X95697480Y-47562557D01*
X95696615Y-47563019D01*
X95592852Y-47632264D01*
X95592094Y-47632885D01*
X95502885Y-47722094D01*
X95502264Y-47722852D01*
X95433019Y-47826615D01*
X95432557Y-47827480D01*
X95384868Y-47942590D01*
X95384583Y-47943528D01*
X95377000Y-47981608D01*
X95377000Y-45720000D01*
X95374560Y-45695224D01*
X95367333Y-45671399D01*
X95355597Y-45649443D01*
X95339803Y-45630197D01*
X95320557Y-45614403D01*
X95298601Y-45602667D01*
X95274776Y-45595440D01*
X95250000Y-45593000D01*
X92837000Y-45593000D01*
X92837000Y-43324750D01*
X92875500Y-43286250D01*
X92875500Y-42037000D01*
X93129500Y-42037000D01*
X93129500Y-43286250D01*
X93288250Y-43445000D01*
X93665000Y-43448072D01*
X93789482Y-43435812D01*
X93909180Y-43399502D01*
X94019494Y-43340537D01*
X94116185Y-43261185D01*
X94195537Y-43164494D01*
X94254502Y-43054180D01*
X94290812Y-42934482D01*
X94303072Y-42810000D01*
X94300000Y-42195750D01*
X94141250Y-42037000D01*
X93129500Y-42037000D01*
X92875500Y-42037000D01*
X92855500Y-42037000D01*
X92855500Y-41783000D01*
X92875500Y-41783000D01*
X92875500Y-40533750D01*
X93129500Y-40533750D01*
X93129500Y-41783000D01*
X94141250Y-41783000D01*
X94300000Y-41624250D01*
X94303072Y-41010000D01*
X94290812Y-40885518D01*
X94254502Y-40765820D01*
X94195537Y-40655506D01*
X94116185Y-40558815D01*
X94019494Y-40479463D01*
X93909180Y-40420498D01*
X93789482Y-40384188D01*
X93665000Y-40371928D01*
X93288250Y-40375000D01*
X93129500Y-40533750D01*
X92875500Y-40533750D01*
X92837000Y-40495250D01*
X92837000Y-39497000D01*
X105222416Y-39497000D01*
X100244016Y-51943000D01*
G04 #@! TA.AperFunction,Conductor*
D28*
G36*
X100244016Y-51943000D02*
G01*
X95377000Y-51943000D01*
X95377000Y-51078392D01*
X95384583Y-51116472D01*
X95384868Y-51117410D01*
X95432557Y-51232520D01*
X95433019Y-51233385D01*
X95502264Y-51337148D01*
X95502885Y-51337906D01*
X95592094Y-51427115D01*
X95592852Y-51427736D01*
X95696615Y-51496981D01*
X95697480Y-51497443D01*
X95812590Y-51545132D01*
X95813528Y-51545417D01*
X95936502Y-51569905D01*
X95937477Y-51570001D01*
X96000000Y-51573072D01*
X97200000Y-51573072D01*
X97286693Y-51567155D01*
X97288042Y-51566970D01*
X97433150Y-51529293D01*
X97434063Y-51528937D01*
X97545164Y-51472561D01*
X97545991Y-51472034D01*
X97644730Y-51394463D01*
X97645437Y-51393785D01*
X97688256Y-51348506D01*
X97988256Y-50998506D01*
X98012196Y-50968826D01*
X98012557Y-50968350D01*
X98041560Y-50923072D01*
X99000000Y-50923072D01*
X99062523Y-50920001D01*
X99063498Y-50919905D01*
X99186472Y-50895417D01*
X99187410Y-50895132D01*
X99302520Y-50847443D01*
X99303385Y-50846981D01*
X99407148Y-50777736D01*
X99407906Y-50777115D01*
X99497115Y-50687906D01*
X99497736Y-50687148D01*
X99566981Y-50583385D01*
X99567443Y-50582520D01*
X99615132Y-50467410D01*
X99615417Y-50466472D01*
X99639905Y-50343498D01*
X99640001Y-50342523D01*
X99643072Y-50280000D01*
X99643072Y-48780000D01*
X99640001Y-48717477D01*
X99639905Y-48716502D01*
X99615417Y-48593528D01*
X99615132Y-48592590D01*
X99567443Y-48477480D01*
X99566981Y-48476615D01*
X99497736Y-48372852D01*
X99497115Y-48372094D01*
X99407906Y-48282885D01*
X99407148Y-48282264D01*
X99303385Y-48213019D01*
X99302520Y-48212557D01*
X99187410Y-48164868D01*
X99186472Y-48164583D01*
X99063498Y-48140095D01*
X99062523Y-48139999D01*
X99000000Y-48136928D01*
X98041323Y-48136928D01*
X98027118Y-48111682D01*
X98026556Y-48110879D01*
X97988256Y-48061494D01*
X97688256Y-47711494D01*
X97627213Y-47649406D01*
X97626195Y-47648503D01*
X97503385Y-47563019D01*
X97502520Y-47562557D01*
X97387410Y-47514868D01*
X97386472Y-47514583D01*
X97263498Y-47490095D01*
X97262523Y-47489999D01*
X97200000Y-47486928D01*
X96000000Y-47486928D01*
X95937477Y-47489999D01*
X95936502Y-47490095D01*
X95813528Y-47514583D01*
X95812590Y-47514868D01*
X95697480Y-47562557D01*
X95696615Y-47563019D01*
X95592852Y-47632264D01*
X95592094Y-47632885D01*
X95502885Y-47722094D01*
X95502264Y-47722852D01*
X95433019Y-47826615D01*
X95432557Y-47827480D01*
X95384868Y-47942590D01*
X95384583Y-47943528D01*
X95377000Y-47981608D01*
X95377000Y-45720000D01*
X95374560Y-45695224D01*
X95367333Y-45671399D01*
X95355597Y-45649443D01*
X95339803Y-45630197D01*
X95320557Y-45614403D01*
X95298601Y-45602667D01*
X95274776Y-45595440D01*
X95250000Y-45593000D01*
X92837000Y-45593000D01*
X92837000Y-43324750D01*
X92875500Y-43286250D01*
X92875500Y-42037000D01*
X93129500Y-42037000D01*
X93129500Y-43286250D01*
X93288250Y-43445000D01*
X93665000Y-43448072D01*
X93789482Y-43435812D01*
X93909180Y-43399502D01*
X94019494Y-43340537D01*
X94116185Y-43261185D01*
X94195537Y-43164494D01*
X94254502Y-43054180D01*
X94290812Y-42934482D01*
X94303072Y-42810000D01*
X94300000Y-42195750D01*
X94141250Y-42037000D01*
X93129500Y-42037000D01*
X92875500Y-42037000D01*
X92855500Y-42037000D01*
X92855500Y-41783000D01*
X92875500Y-41783000D01*
X92875500Y-40533750D01*
X93129500Y-40533750D01*
X93129500Y-41783000D01*
X94141250Y-41783000D01*
X94300000Y-41624250D01*
X94303072Y-41010000D01*
X94290812Y-40885518D01*
X94254502Y-40765820D01*
X94195537Y-40655506D01*
X94116185Y-40558815D01*
X94019494Y-40479463D01*
X93909180Y-40420498D01*
X93789482Y-40384188D01*
X93665000Y-40371928D01*
X93288250Y-40375000D01*
X93129500Y-40533750D01*
X92875500Y-40533750D01*
X92837000Y-40495250D01*
X92837000Y-39497000D01*
X105222416Y-39497000D01*
X100244016Y-51943000D01*
G37*
G04 #@! TD.AperFunction*
M02*
